/* XPM */
static char *_643817182049[] = {
/* columns rows colors chars-per-pixel */
"64 64 235 2 ",
"   c #000402",
".  c #030A06",
"X  c #060D0A",
"o  c #090F0B",
"O  c #0A120D",
"+  c #07100B",
"@  c #0D1511",
"#  c #0F1812",
"$  c #131C14",
"%  c #1B1E13",
"&  c #141A17",
"*  c #16190D",
"=  c #1C231B",
"-  c #1C2116",
";  c #232415",
":  c #22261B",
">  c #2B2C1D",
",  c #26291C",
"<  c #262B22",
"1  c #292C23",
"2  c #262822",
"3  c #2C3125",
"4  c #2E342A",
"5  c #29332B",
"6  c #333425",
"7  c #32352B",
"8  c #33392D",
"9  c #3A3A2C",
"0  c #38362B",
"q  c #343632",
"w  c #353A33",
"e  c #3A3C35",
"r  c #3D3E3A",
"t  c #363B38",
"y  c #302F27",
"u  c #3D4135",
"i  c #3E433B",
"p  c #374037",
"a  c #42443C",
"s  c #45493D",
"d  c #4A4B3D",
"f  c #434335",
"g  c #3F4543",
"h  c #454641",
"j  c #454B42",
"k  c #4A4C44",
"l  c #4D4E4A",
"z  c #484741",
"x  c #4C5245",
"c  c #4D544B",
"v  c #4C554C",
"b  c #525344",
"n  c #52534C",
"m  c #55594D",
"M  c #5A5A4C",
"N  c #555652",
"B  c #545C52",
"V  c #5A5A54",
"C  c #5E5E59",
"Z  c #585A55",
"A  c #625D53",
"S  c #605F59",
"D  c #605A4B",
"F  c #5A6054",
"G  c #5C635B",
"H  c #566059",
"J  c #63635C",
"K  c #6B665C",
"L  c #68675B",
"P  c #756D5C",
"I  c #5D6965",
"U  c #656661",
"Y  c #646B65",
"T  c #6C6B63",
"R  c #646E6A",
"E  c #6D6E69",
"W  c #696761",
"Q  c #736E64",
"!  c #716F69",
"~  c #66716D",
"^  c #6A736E",
"/  c #747166",
"(  c #75736C",
")  c #79756C",
"_  c #7D796C",
"`  c #7D7766",
"'  c #6C7672",
"]  c #6E7975",
"[  c #767672",
"{  c #797670",
"}  c #7C7A75",
"|  c #7D7D7A",
" . c #727D79",
".. c #837C6C",
"X. c #867A66",
"o. c #827D75",
"O. c #817F7A",
"+. c #907966",
"@. c #9C7458",
"#. c #C8794A",
"$. c #7F807E",
"%. c #8B816F",
"&. c #86806F",
"*. c #868273",
"=. c #8C8473",
"-. c #84827C",
";. c #8A857C",
":. c #8E8A7B",
">. c #8F8877",
",. c #938C7B",
"<. c #998E7B",
"1. c #948976",
"2. c #9B907E",
"3. c #97907F",
"4. c #98806E",
"5. c #B88669",
"6. c #AD9079",
"7. c #CC9471",
"8. c #DDA07A",
"9. c #E29970",
"0. c #7F8781",
"q. c #858582",
"w. c #898782",
"e. c #8C8A84",
"r. c #8C8C8A",
"t. c #838A85",
"y. c #938E81",
"u. c #918E8A",
"i. c #8C918C",
"p. c #969183",
"a. c #9B9483",
"s. c #93928C",
"d. c #9B9689",
"f. c #9D998B",
"g. c #9A988B",
"h. c #939491",
"j. c #999692",
"k. c #9D9C94",
"l. c #969C96",
"z. c #A29682",
"x. c #A39886",
"c. c #A39C8D",
"v. c #A99E8C",
"b. c #A69985",
"n. c #B59B88",
"m. c #A39E91",
"M. c #A49E97",
"N. c #9EA29B",
"B. c #AAA08E",
"V. c #B4A48D",
"C. c #BBA68F",
"Z. c #A5A193",
"A. c #ABA494",
"S. c #A5A39B",
"D. c #ABA699",
"F. c #ADA99C",
"G. c #B2A594",
"H. c #B3AB9C",
"J. c #B9AD9C",
"K. c #B8A895",
"L. c #BAB19E",
"P. c #AAA6A1",
"I. c #ADACA3",
"U. c #A3A8A3",
"Y. c #B2AEA3",
"T. c #B8AFA0",
"R. c #B2AEA8",
"E. c #AEB2A9",
"W. c #B4B1A4",
"Q. c #BBB3A4",
"!. c #B5B5AB",
"~. c #BBB6AA",
"^. c #BBB9AD",
"/. c #B7B8AF",
"(. c #B6B9B2",
"). c #BDBCB2",
"_. c #CA9E85",
"`. c #D3A78A",
"'. c #C6AD95",
"]. c #D2AD93",
"[. c #C7B39D",
"{. c #D7B49A",
"}. c #C7A58B",
"|. c #E1B393",
" X c #C2B6A4",
".X c #C2BBAC",
"XX c #CABDAC",
"oX c #CAB6A3",
"OX c #D5BAA5",
"+X c #C2BEB2",
"@X c #BEC2BA",
"#X c #BEC0B7",
"$X c #C4C1B5",
"%X c #CBC4B4",
"&X c #C4C5BB",
"*X c #CAC6B9",
"=X c #C7C8BF",
"-X c #CBC9BD",
";X c #D3C4B5",
":X c #DBCCBC",
">X c #D6C8B7",
",X c #D5C3AD",
"<X c #E1C4AD",
"1X c #E0CAB5",
"2X c #C6C9C2",
"3X c #CBCDC3",
"4X c #C8CBC5",
"5X c #D1CEC1",
"6X c #DBCFC2",
"7X c #CED2CA",
"8X c #CED0C6",
"9X c #D3D1C5",
"0X c #D2D4CC",
"qX c #D9D6CB",
"wX c #DAD7CB",
"eX c #D5DAD3",
"rX c #D9DDD5",
"tX c #D7DED8",
"yX c #D9DFD9",
"uX c #D4D7D0",
"iX c #E4D7C7",
"pX c #E1DDD1",
"aX c #DCE3DC",
"sX c #DAE0D9",
"dX c #E3E5DB",
"fX c #E6E4D9",
"gX c #DEE6E1",
"hX c #DEE9E4",
"jX c #E1E7E2",
"kX c #E3EAE4",
"lX c #E4EEE9",
"zX c #E9EDE4",
"xX c #EAF3EE",
"cX c #E7F0EC",
"vX c #ECF6F2",
/* pixels */
"r.s.j.j.M.M.M.P.M.M.P.P.P.R.P.R.R.R.R.R.P.P.P.P.P.P.M.R.R.P.P.R.S.P.P.R.P.R.S.P.P.R.R.R.M.P.P.P.P.P.M.M.j.M.M.P.u.j.j.j.j.u.r.u.",
"/ ( ( o.O.o.O.O.O.w.O.-.w.y.w.y.w.w.e.y.;.-.-.-.O.-.;.w.-.q.w.w.O.O.O.O.O.j.o.e.r.| O.O.O.O.O.O.o.o.o.o...o.o.! W ! ! ..! ..W W ",
"$.q.r.s.u.u.j.e.r.u.u.r.r.r.e.w.r.r.r.r.u.r.r.r.r.r.r.r.$.q.h.l.r.r.u.w.q.h.r.r.h.q.q.-.u.u.w.q.w.r.O.w.q.r.q.O.O.{ | $.q.q.$.$.",
"h h l n n n n z n N Z Z S S N N V V V S S V N Z Z C S C N N C E S S U W S S S J W S S l N A C S S S V C V V S S W N h z l l z l ",
"4 t q e r r e r r r r q q q q t e q h e r r a a r t r q r r r h h r r r r q q r q r r h a h h r r r r r e r r q r r r r r r q q ",
"r r h h z h a h a r r a r h z z z k k n n V l k h t h z h r r e r z V N n N N S J W A n k k z z l l l l D n n z z z z l z z z z ",
"S W W ! ! ! [ ) ) -.O.o.{ o.o.[ { { [ o.) Q ;.w.w.y.e.;.-.w.w.u.;.O...;.e.j.j.-.! e.y.u.w.;.o.O.w.w.e.u.u.o.o.o.O.O.O.O.o.{ O.O.",
"{ } w.| Q { { W w.-.W ..o.Q { q.T Q ! K Q j.o.K Q S W u.o.A W ) A O.j.Q A S A W u.o.D K K A s.j.K K W A ! u.! A W +.S w.w.A A K ",
"a w.s.) 7 7 1 J j.w.h y 0 z u.h.K 2 2 r s.s.o.2 3 2 ( j.:.8 , 8 y -.u.W 2 2 2 } j.-.2 2 % k h.u.V = 2 2 [ w.| y y 2 z w.w.W 2 2 ",
"E $.w.N o   2 q.O.-.y     U q.q.W X . l ;.} } @ X = q.} t.p O O q -.o.) @ . & q.O.;.q o o n u.[ o.& o = ( | [ l X @ r O.o.o.t   ",
"} K } h S V T ( ! ! l W n [ T { N C V W ) ) C N G W } T ( B L Y E [ S ) J C Q | E { E W [ ! ) J ! W ! ! S W W ! S o.S W W W W S ",
"W Q W q V V L T ! l z S V N E S r N S N S J i U J C F ( v x F m V W S S V ! C W ! E h N N z S ! S r l h a U W h z V z h W K l l ",
"N l q [ -.} } n l g q.[ $.[ y h -.u.e.s.k 4 } r.O.q.C w x >.$.$.O.l V t O.q.r.N n w Y q.[ q.z a t | ! $.E r q N [ E $.N r q C O.",
"U   U w.-.w.e.= 2 | | } r.U   l s.;.-.q.t O ( q.( q.U . m $.$.$.| 2 . S w.! -.J   r -.| | w.N . [ O.} } -.: : O.[ [ } o.o : { [ ",
"0 * s e.} -.n ; < | -.q.( 0 1 1 T w.O.b > > 9 ( } L 6 , > $.$.$.h ; ; d | O.( 0 , y ( O.o.[ 6 ; z -.[ $.N ; % V q.[ O.z ; ; l o.",
"0 9 > r J 6 , 6 > 6 C z ; 6 9 > - e 6 : 9 6 > ; 2 % 9 f , - 3 , > y > , 0 i ; 1 > ; ; n V 6 > 1 % q S r ; > y % r S 0 % ; ; @ 2 ",
"6 o O . + + * + = , O O $ - - - # $ 3 $ - - - $ $ - , p O $ $ $ = - # $ 6 O # $ # # O O - 3 O + o o o o # # > + . + + + + . + > ",
"8 , s u u f d 8 , 5 , x x F m F p 3 8 5 F m m x m s 5 s 3 b b b m M u , u 8 m b b d d 8 , u 3 d f f d k s = p * f f d s d f % 9 ",
"u : 6 3 d 3 3 = 8 p - , 3 m p , - 5 s , 8 8 m 8 5 8 5 s , 5 3 m u > < p u - 3 < b u = = 3 u - 3 < f 0 ; = = p - ; = u u , = $ u ",
"F j x 5 x 4 i i v B s x 8 m 5 $.$.v $.v $.s $.p v v H $.$.v p v u x m F G v v p v u j v F G v v 8 s q i x v G x v p p u 8 x j F ",
"m x Y m v 5 v F F $.b b p F p 3.$.v v v s s F.s v G G F N.F p B u m F G Y G L u v i x F B F m G i c i u m x s s x p j i 8 x m j ",
"u p L c.H p u i m ^.b u p Y i $.Z.s p 8 8 $.*X$.5 5 i v L.$.p H i u / T x j s p Y ` u p 8 p w T L m v 3 5 w $.i 5 8 v j m *.u u ",
"R I N.=X$.I ~ R $.7X$.$.$.I $.E.2X$.$.$.$.U.=XE.$.$.$.:.@X#X$.$.$.~ #X=X0.~ ' R 0.7Xh.I ' ] ~ P.(.R ^ ~ I ] &Xt.G I Y G i.&X' F ",
"i d :.,.$.i x s >.3.$.d u p F ,.3.3.s s p 3.Z.g.F j p $.Z.3.L u p m :.>.` i s x / g.p.m j x s } p.m i k i m ,.L u u u u / :._ e ",
"u ^ A.f.g.F u d B.c.A.Y i i $.F.Z.F.$.8 F <.3.F.>.i m 3.3.A.:.i i $.L.F.D.m i x M.J.T.( i i G H.W.-.h m j ;.H.F.G j j m f.f.f.c ",
"$.@X7X@X8X@X$.i.@X#X-X=X~ $.-X7X7X7X8X$.#X=X@X7X8XN.#X@X#XeXeXl.$.#X7XsXsX@X$.l.uX7X0X4X] ~ E.eX0X2X] R t.3X&XuXU.R I U.sX2X4XS.",
"3.Z.Z.A.B.Z.#XF.3.g.3.B.>.A.0XA.x.g.B.B.c.^.@XB.H.F.F.F.A.=XQ.B.3.A.B.3.Z.9Xg.f.v.c.x.v.s.s.v.a.a.c.=.u S.D.....3.F d x.#Xp.>.a.",
"3.f.c.B.c.>.#XF.>.m.Z.c.A.F.=XZ.c.Z.Z.F.c.H.#X<.c.Z.m.c.,.#XL.B.c.3.c.g.B.@XZ.3.M.c.c.a.H.&Xp.c.d.x.Z.3.~.N...d.f.c.f.3.W.,.:.a.",
"F.0XeX0XsXA.F.I.!.gXhXgXrXH.8XH.8XaXhXkX3XL.#XL.sXsXaXsXf.&XW.#XgXrXaXeXZ.=XZ.=XjXdXjX+XD.).f.sXsXsXgXF.T.Z.I.lXtXhXsXp.!.a.&XaX",
"D.aXgXgXgXZ.#XH.#XhXwXaXsXL.8XL.8X8XsXaX@XW.%X#XzXsXrXaX3.&XH.$XzXrXdXsXc.-XZ.0XxX1XjX2XD.$XH.lXiXiXlXZ.R.D.W.yXkXyX4Xa./.3.2XaX",
"D.sX:XwXhXZ.#X#XW.fX7.:XaXH.8XQ.7XF.c.,.W.L.@XQ.jX:X9XgXg.&XF.@XpX8.>XsXZ.-Xc.0X6X@.;X4XA.$XH.lXOX].hXZ.~.F.R.P.~.z./.p.^.p.2Xi.",
"m.aX'.}.hXB.#XL.#X,X#.8.tXF.=XW.9XkXZ.F.-XW.%X#XwX].wXkXg.=XG.&X$X7.[.eXc.@Xc.eXXX5.OX@XZ.$XH.cX|.{.hXc.T.m.+X*X+.+.=X,./.e.7Xh.",
"N.tXK.5.7XF.+XR.(.9XC.oXrXT.3XH.0XkX).cX=XH.+X~.aXC.,XkXf.=XF.&XsX5.*XaXc.-XZ.uXtXn.7X&XD.+XA.jX].;XkXc.!.Z.^.0X+.m.uXy.^.y.2XU.",
"Z.tXaXuXyXm.).~.^.kXjXlXeXM.8XT.0XjX=XkX).A.+XQ.lXsXoX-XZ.*XA.@XxXsXdXuXf.=XZ.0XvXlXvX^.S.+XA.cXyXlXkXc.!.Z./.vX0XlXtX,.^.,.7XvX",
"d.I.!.!.!.=.(.~.F.+X~./.Q.M.0X~.!.$X&X&XA.k.$XA.~.&X#XD.,.@XL.D.#X#X#X/.d.=XB.W.$X+X3XW.F.&Xm.2X2X&X&X-.I.A.Z.).).+X^.o.~.y.P.!.",
">.f.x.v.m.x.&X^.z.G.G.K.K.J.uXH.v.D.G.H.G..X%Xc.c.B.B.G.H.8XH.>.g.x.x.B.H.3Xa.c.A.v.v.A.T.+Xa.a.a.a.<.a.).Z.1.a.p.p.a.x.).<.=.o.",
"Y././.&X=X!.).@XR./.+X).!.+XjX8X0X0XqX3X-X8X8X^.-X*X-X-X&XeX&X#X~.&X=X^.W.7X=X&X&X-X&XR.F.2X).+X+X$X$X~.=X=X!.F.I.I.D.d.!.k.g.s.",
"&X#X&X@X).(.0X7X7X3X7X7X2X3XeX9X5X0X3X3X-X0X8X@X&X&X&X&X-XeX8X-X=X3X8X3X0XsX8X0X0X0X0X3X7XeX4X3X3X3X&X=XuX8X-X3X3X3X4X@X7X).).).",
"=._ ` ......!.H.<.a.v.v.y.c.3XK.G.G.G.G.V.$X^.1.a.a.a.2.B.=XZ.2.x.a.a.a.H.0XH.B.B.B.G.2.H.R.=.,.,.=...=.!.A.<.<.2.x.<.p.!.` ..` ",
",.F.S.F.P.x.).H.D.+X(.+X+XD.uXM.~.$X%X&X~.%X@XF.&X&X=X^.H.7Xc.H.$X$X&X~.Q.uXZ.Q.~.Q.~.H.Q.R.>.F.D.F.j.a.~.k.g.R.W.W.f.a.!.*.Z.S.",
"Z.sXjXjXkXI.+XD.).vXlXvXyXv.7XT.0XlXkXcX5X+X+X+XlXlXxXgXL.=XL.9XfXiXfXwXW.0Xc.7XkXaXkX=XQ.!.F.cXlXlXlXc.^.m.&XvXgXlX8Xy.).x.7XhX",
"f.sXtXyXaXY.+XD.^.lX7X2X+XM.7X XyXlXdXlX8X.X+X.XkX<X1XhXL.-X#X,X{.{.`.5XW.0Xv.uX2X( (.3XQ.~.Y.kXjXkXgXc.).c.).kX:XaX3X3.$Xc.3X+X",
"c.hX6.n.kXH.+XM.!.m.a...(.F.7X.X3Xv.6. X2X.X.X+XpX{.1XsXW.7X$X*X{.[.[.3XQ.0XZ.eX( r u.-X~.+XH.lX<XiXkXk.^.c.&XiX|.1X3Xy.+Xm.+X_.",
"f.hXv.V.kXY.+XD.^.2Xy.E.tXM.0X X-XG.2.M.~.~..X+XfX].[.rXL.7X#X:X3X{.fX7XW.7Xc.&Xr.V N.-X~.~.I.aX7.{.hXg.).d.).iX8.].-Xp.).a.4XK.",
"m.aXkXaXkXH.+XD.~.vX4XlXuXA.0XT.yXvXkXvX5XQ.+X.XxX=X=XhXH.0XL.9XvXiXfX8XQ.uXx.7X).Y !.-X^.W.F.yXn.n.yXm.).d.&X1X7.oX3Xd.).a.uXtX",
"d.7XrXsXtXA.).D.!.yXeXtX4Xp.7XQ.&XuX3X0Xc.u.+XY.8XrXgX8Xg.@XL.*XsX,X%X4XA.uXf.7XaXyXgX~.F.I.Z.lXdXeXyXg.!.d.@XaX7XeX&X>.).d.2XuX",
"3.a.A.A.A.B.$XY.a.T.G.D.Q.G.0X Xv.A.c.c.>.k.+Xc.B.F.F.L.F.8XH.F.W.c.c.D.Z.8Xa.H..X~.+XJ..XI.a.D.S.S.M.p./.c.a.Z.k.S.s.>.).y.j.A.",
"a._ 1.<.a.a.!.H.,.A.v.A.F.T.0XQ.H.J.Q.Q. XXX*XT.#XQ.Q.L.L.0XW.G.H.Z.f.2.Z.8Xg.H. X X X X.XI.>.,.1.,.,.1.!.d.=.=.&.*.=.,.).,.>.1.",
"7X@X2X@X=X4XeX7X8X8X@X8X7XsXaXsXeXeXeX0XeXsXsXeXeX0XeX7XeXhXsXeXsXsXuXuXuXaXsXsXeXeXeX0X4XeX7X#X@X/.(.!.2X2X#X!.!.E.!.I.7X=X(./.",
"f.A.D.Y.D.D.=XE.m.N.Z.I.N.F.sXQ.L.L.F.W.B.#X#XA.m.m.Z.f.L.9XW.D.Z.F.H.F.$XuX~.Q.Q..X^.A.&X-X$X*X*X$XW.W.3X!.F.W.F.I.D.W.@XS.F.F.",
"=.>.,.,.>.a.#XZ.=.3.a.f.$.a.uXB.2.B.B.H.A.XX#X2.Z.3.A.A.L.5XF.2.g.f.2.:.H.9XL.H.A.K.K.%.W.$XV.K.K.B.<.=./.a.&.=.=.=...3.).a.<.,.",
"D.2X7X0X9XA.#Xc.N.eXeXsX#XB.0X3.E.8X8XaX#X#XL.Z.sXeXsXsX X5X^.%XsX@XeX^.Q.7XG.-XuXsXeXZ.W.W.c.9X-X9X9Xf./.c.Y.4X2X=X/.a.).y.).&X",
"G.aXaXwXaXG.#XZ.F.zX1XfX-XG.eXF.8XzXkXpX-X^.^.L.kXzXkXkX.X5X X9Xl.k N.0XQ.uX$XsXzX:XzXE.F.%X$XsXzXlXgXd.!.y.&XvX6XfX4X,.&XG.yXkX",
"A.sX,X[.sXA.^.a.F.zX8.].8XV.-XB.#X>X%X>X-X.X#XF.zX,X8.#X X9X.X#XF j N !.Q.uXoXaX:X7.[.I.W.%X$Xa.*XxXsXa./.p.).lX;X`.J.a.&XH.qXeX",
"A.sX'.5.$XF.#X3.#XpX7.[.0XV.=XB.=X%X`.pX&X$X#XL.1X9.7.9XL.9X%XL.B n n k.L.wX%X6X].C.}.W.Q.$X%XQ.1.3XyXa./.y./.lX{.'.&Xp.+XD.%X{.",
"A.eXQ.-XwXL.$Xa.#X%X5.:X=XB.=XB.-XfX{.sX*X%X^.L.sXOX-XsXL.wX.X#XZ i k !..X9X%XQ.6.7.6.H.W.%X$XzXQ.1.~.m.^.1.).iXn.gX8X,.+Xc.7XoX",
"L.#XrXkXsXL.-X3.L.aX-XzX*X<.#X2.=XeX9XhX^.L..XF.kXkXzXsXL.:X$XwXU.N N.-XL.0XoXsX9XG.*XI.Y.*X%XzX0X$XD.c./.,.^.{.0XvX3Xy.).a.gX>X",
"L.3.L.L.L.3.F.3.g.g.N.Z.m.,.#XB.Z.Z.3.Z.3.F.#XF.g.Z.N.U.2.#X,XG.j.I.W.d.c.-X.XW.=X4X@X,.Z.-X$X-X9X9X^.,.^.f.H.B.+X2XR.=.^.x.~.^.",
"$.%.2.V.3.b 3.$.L D &./ P $.#X&.2.B.B.L.^.#X3.2.H.B.B. X%X#X,XL.J.%XG.H.Q.-XoX3.K.L.G.B.Q.>X[.V.G.G.1.K.%Xf.1.*.-.=.>.>.~.a.>.1.",
"A.6.E.E.F.F.9X^.g.:.c.m.2.D.9XZ.^.^.^.+X#X-X/.L.*X#XQ.#XL.%XwX-X5X5X-X9X9XsXQ.F.$X*X*X$X#X9X%X$X~.Q.L.Q.$XH.Z.f.m.m.A.F.3XZ.m.c.",
"Z.6.F.L. XL.3.F.^.L.W.%XL.F.D.^.L.L.L.-X#X^.F.c.L.>X.XH.B.2.A.W.F.Q.Z.Z.F.Z.D.^.H.D.F.Q.W.Q.!.F.H.H.F.W.#XT.W.^.#X#XW.!.P.F.I.!.",
"$.&.V.V.L.V.B.2.L.L. X[.2.2.6.2.L.2.v.>X1X:XL.V.V.[.[.'.C.<.<.2.B.B.%.>.V.6.B.V.2.X.2.G.1.%.%.2.b.2.2.<.>.1.>.1.>.>.1.1.=.=.2.=.",
"B.L. X^.%X%X$X*X%X#X%X#X#X-X9X5X-X-X%X5X9X-X#X%X-X5X%X-X*X*X#X#X#X#X$X*X%X#X$X X^.^.3./ _ &.` T.%XQ.%X$X~.%X$X#XQ.~.^.$X^.^.^.Q.",
"$.3.3.>.1.<.1.6.$.>.3.2.2.L.3.3.3.3.B.L.<.$.,.2.W.D.,.2.B.2.H.B.3.<.:.:.Y.*.3.a.p.A.D.a.g.f.g.W.g.>.3.a.f.!.3.p.3.f.c.!.;._ *.;."
};
