/* XPM */
static char *_643816881375[] = {
/* columns rows colors chars-per-pixel */
"64 64 256 2 ",
"   c #39373A",
".  c #1A363C",
"X  c #780E18",
"o  c #6D141A",
"O  c #69181B",
"+  c #73151B",
"@  c #7B151C",
"#  c #73191D",
"$  c #7B191D",
"%  c #761317",
"&  c #6E0E17",
"*  c #6B1C24",
"=  c #751B22",
"-  c #7B1C22",
";  c #7A1924",
":  c #562B35",
">  c #523033",
",  c #792325",
"<  c #692E32",
"1  c #5F1417",
"2  c #725036",
"3  c #787133",
"4  c #555836",
"5  c #073D47",
"6  c #383A45",
"7  c #2E3A4F",
"8  c #243B75",
"9  c #4D354C",
"0  c #6A3B46",
"q  c #47386D",
"w  c #08454B",
"e  c #184649",
"r  c #084A52",
"t  c #02545B",
"y  c #015A5E",
"u  c #095459",
"i  c #18575A",
"p  c #174C54",
"a  c #354648",
"s  c #394A56",
"d  c #29585A",
"f  c #385659",
"g  c #284A4E",
"h  c #2E645B",
"j  c #025C63",
"k  c #075B66",
"l  c #185C64",
"z  c #145275",
"x  c #285C64",
"c  c #305170",
"v  c #02646A",
"b  c #026A6C",
"n  c #096669",
"m  c #176769",
"M  c #026C73",
"N  c #066B75",
"B  c #176B75",
"V  c #047274",
"C  c #02737B",
"Z  c #09767A",
"A  c #177579",
"S  c #0B726F",
"D  c #276768",
"F  c #386869",
"G  c #256C73",
"H  c #267778",
"J  c #377778",
"K  c #366F6E",
"L  c #12625F",
"P  c #4B4649",
"I  c #5A4849",
"U  c #464958",
"Y  c #495959",
"T  c #575655",
"R  c #53574B",
"E  c #764B48",
"W  c #6E534F",
"Q  c #516F56",
"!  c #726F4E",
"~  c #4A546B",
"^  c #6E5178",
"/  c #48696A",
"(  c #446677",
")  c #467978",
"_  c #57797A",
"`  c #536F6A",
"'  c #6E6F6B",
"]  c #2F4F38",
"[  c #880E19",
"{  c #960D17",
"}  c #84141C",
"|  c #8B141C",
" . c #841A1D",
".. c #8B191E",
"X. c #861317",
"o. c #93141D",
"O. c #99141C",
"+. c #A20F1A",
"@. c #841621",
"#. c #8C1522",
"$. c #831B23",
"%. c #8B1A23",
"&. c #8B1D2A",
"*. c #841D29",
"=. c #931521",
"-. c #941B24",
";. c #9B1B25",
":. c #9B1D2A",
">. c #981826",
",. c #950F20",
"<. c #A21B2A",
"1. c #A51926",
"2. c #B11E32",
"3. c #8C242C",
"4. c #86232A",
"5. c #92242D",
"6. c #9B232C",
"7. c #95262B",
"8. c #882732",
"9. c #972732",
"0. c #8E3833",
"q. c #A4222D",
"w. c #A42432",
"e. c #AB2434",
"r. c #A92937",
"t. c #B62837",
"y. c #AB3235",
"u. c #C81B30",
"i. c #C62636",
"p. c #CC252E",
"a. c #924C3C",
"s. c #907031",
"d. c #AF7128",
"f. c #A5631C",
"g. c #C4711D",
"h. c #99304D",
"j. c #974C46",
"k. c #955853",
"l. c #8D524D",
"z. c #AA4F48",
"x. c #8F6D51",
"c. c #AF6359",
"v. c #8D7271",
"b. c #AE716C",
"n. c #8D506B",
"m. c #CA524E",
"M. c #D95B58",
"N. c #15827D",
"B. c #32887A",
"V. c #71834F",
"C. c #488678",
"Z. c #558773",
"A. c #6C8473",
"S. c #50845F",
"D. c #A18535",
"F. c #A3834C",
"G. c #918679",
"H. c #A3875E",
"J. c #0D3A95",
"K. c #163B9A",
"L. c #0D5787",
"P. c #155687",
"I. c #0F5193",
"U. c #30558B",
"Y. c #017382",
"T. c #027B83",
"R. c #087A87",
"E. c #187985",
"W. c #107094",
"Q. c #297B85",
"!. c #387B85",
"~. c #287698",
"^. c #346C94",
"/. c #0346A6",
"(. c #0658A7",
"). c #155AA9",
"_. c #0659B7",
"`. c #1555B2",
"'. c #2A5CAD",
"]. c #1969A6",
"[. c #0876A8",
"{. c #1978A9",
"}. c #1667B7",
"|. c #0578B7",
" X c #1876B7",
".X c #0968B1",
"XX c #2667A8",
"oX c #2777A8",
"OX c #3676A7",
"+X c #2768B7",
"@X c #2775B4",
"#X c #3572AE",
"$X c #4E708C",
"%X c #6C728A",
"&X c #4577AB",
"*X c #54599A",
"=X c #145BC8",
"-X c #0468C9",
";X c #1575C9",
":X c #196AD6",
">X c #0B72D0",
",X c #2771D1",
"<X c #1574EA",
"1X c #2267D1",
"2X c #934C80",
"3X c #058389",
"4X c #188589",
"5X c #028592",
"6X c #068A96",
"7X c #178795",
"8X c #19949A",
"9X c #02919D",
"0X c #278688",
"qX c #388788",
"wX c #288A96",
"eX c #388A93",
"rX c #299399",
"tX c #369598",
"yX c #3F928C",
"uX c #0689A7",
"iX c #0796A6",
"pX c #169AA7",
"aX c #0587B7",
"sX c #158CB2",
"dX c #2999A6",
"fX c #318BAD",
"gX c #13A3AF",
"hX c #32A8B1",
"jX c #2DA391",
"kX c #468889",
"lX c #568887",
"zX c #488A98",
"xX c #479697",
"cX c #569797",
"vX c #548F8C",
"bX c #679899",
"nX c #6E8C8D",
"mX c #52A29F",
"MX c #7197A7",
"NX c #4BA6AE",
"BX c #78A3A9",
"VX c #6FABB4",
"CX c #5B97A6",
"ZX c #1088CF",
"AX c #2B8FC8",
"SX c #33B1C4",
"DX c #148AE9",
"FX c #2595E1",
"GX c #4DA4CA",
"HX c #44C3DB",
"JX c #838885",
"KX c #8F9290",
"LX c #AA908B",
"PX c #8CABB2",
"IX c #8D96A9",
"UX c #B2C7CE",
/* pixels */
"= + ; ; ; = * *.$.$.@.&.; $.@.@.@.@.; [ #.[ #.[ & @ [ [ [ [ & [ [ X [ [ X X ,.[ } [ & & [ X.X.}  .% % % % % % % % #  .@ % % % & ",
"= = = @.*.- * , $.; #.%.@ #.@.#.@.@.@ ,.,.#.,.#.= [ #.,.,.[ & ; #.[ [ ,.X X o.o.[ [ + & { [ X.X.} X X X @ @ X.% o } X.$ % @ % & ",
"; ; ; ; ; = * $.%.@.#.-.; #.o.,.#.@.+ =.,.O.o.[ = [ [ { { [ O  .[ { { { [ [ o.[ X.O.% o O.| | X.} @ [ @ X.@ @ @ +  . .$ @ % & & ",
"; ; $.*.4.; = %.&.@.%.>.; #.o.@.#.#.@ } #.O.o.@.* , < q c c c 8 c 8 q : : * { { { { % & ,.o.{ o.[ + X [ @ } @ # O $ $ @ % o o o ",
"= , *.*.&.4., %.#.@.&.@.+ =.=.%...#.@.#.o. .0.a.E D.S.uXZX|.I._.(././._.J.J.J.  :  .O & =.[ o.o.| @ @ @ } @ @ $ O $ $.# O + o & ",
"; 4.*.&.*.4.- &.&.&.>.-.; =.O.>.>.+.} @.4.z.D.g.x.D.C.C 6X{.I./.I./././.J.(.[.M M m 7 > } [ { { [ @ @ & % @ # O * , $.# O + o O ",
", , 8.5.&.4., :.>.>.>.1.= ,.o.,.{ 3.a 4 D.g.d.d.s.V.S V T.qXP./..X).J.`.P.v 3XY.3XR.u r p : { { @.+ @ + @ @ # O 1 ,  .$ @ % o 1 ",
"; 8.&.&.3.4., :.>.>.1.;.; =.1.+.0 R.v h D.D.d.D.s.f j V 4X' s _..X`.).[.k v 5X3XT.R.l v C M x < [ + } X.} } # + O , X. . .@ o O ",
"*.8.3.3.3.3., 5.>.>.1.1.@.=.@.x 5X5Xk N Y.Y.Z.D.Q A K b.k.k.U /.(.).E.v m N 5XT.N.A s l Y.Y.C Z 6 O X.[ X.} + % # $  . .X. .# O ",
"- 3.3.3.7.5.4.-.>.:.1.1.@.: E.6XN Y.k M N Y.E.J / n.z.y.k.x.I ( [.S j b D j 3XV C Z i T l.x M T.C . o X.X.} @ % #  .X. . .X.# % ",
"*.*.5.6.7.7.*.>.1.<.1.1.P R.Y.R.M C v E.R.R.!.x.j.j.l.k.x.' T m j v M C u v 3XV V Z u v h k.Y Z Z r . * | X.} } #  . . . . .# O ",
"*.5.6.6.6.&.$.:.:.1.>./ B wXY.Y.Y.Y.k 9XE.pXT.R.' m.j.x.k.k.R n V h 3 3 ] j N.b b n e l M b k.A T.w y d O | [ } #  . . . .$ % O ",
"*.9.w.:.6.-.$.:.<.1.T 8Xl fX7XY.R.Y.t Y.A 4X4X4XG m.z.z.z.z.R j S s.f.f.2 r V N.j n e f T / Y l.d w t C l + | @ # .. ...X.$ # O ",
"&.w.w.:.:.<.&.:.1.0 0XpXR.pXR.5X9XC t M 4X0X4XtXZ B ` k.k.' u y L f.d.s.4 3 N.j y N u k Y W k.j.j.a t Z C F @  ., %.....X. .% % ",
"&.:.w.<.q.q.3.:.- / fXhX7XN T.5X5XY.b b 6X0X0XN.6XV C N.4X4Xu j S.x.d.f.3 g.3 b b Z r A 6XC m d k 2 g Z C ! 2 o ,  .| X.X. .$ # ",
"&.:.w.e.e.e.:.5.$XrXNXhXR.v T.5XT.n v v b 8XwX4XE.C N.3XE.A u t S s.f.s.Q f V.Z.S Z i H hXtXJ f M g I 3XZ Q ! 2 * ........ .% # ",
":.w.2.e.w.2.e.0 rXfXhXSXn R.W.D s U a   G 0X4XhXE.0X3XN.4XQ.u j v Q s.! u t Z S H 7Xl H hX0XwX/ W g I G Z S.3 3 > X.o...| | # ; ",
":.<.2.e.e.2.8.6XSXSXpX6Xk d 9 U.{.>X`.).9 U 7XdXm tX8XV wXbXr j y y y u w u V Z b 4Xn N.0XJ qX4Xd : 2 G N.! D.x.2 $ o...X.| @ $ ",
"9.<.2.2.t.2.c 5XiXR.R.R.6 9 1X;XuX>X=X:X=Xq ) R.m tXgXZ N.kXK t y m t t w t V S n 8Xl e N.0XJ / f < l.C S.s.s.s.3 , X...} | @ ; ",
"9.2.2.2.p.h.C R.N E.Q.F : +X1X'..X|.[.`.=X}.U 7XN.0XtX0X0XvXnXlXt y y t 5 t v N 0XtXp R.pXN.wXi I , E N H D.! s.3 E  ...@.%.@ @.",
"w.2.u.i.p.( Y.Y.R.) ` j.~ *X*X*X7XA.) ].=X1X^.> ( rX0XbXB.kXvXCXV k z Y.5 k Q.m b 7Xi 3X8X8XE.r p > I S S Q s.s.2 qX< % o %.@ $.",
"w.e.2.p.r.6XY.Y.uX5X^ v._ *Xn.E G.KXx.vX.X+XfXW.6 F A kXbXxXR.uXW.(._.sXI./.IXlXv v 5 i n j N j n w I h v y i D B.tXY } $ $.@.@.",
"r.t.2.u.0 9XL.C W.' E @XW.*Xn.m.' n 3 H.kX[.{..X~.W.0XK lXPXH /.(.7XPXbXz /.< Q T E > $XA N Z n r t Y ~ 5Xj r Y.A rXQ.; | %.; *.",
"e.2.2.u.( iX5XR.Q.F ~ DX].(.ZX@X' f W g.H.vXE.(.I.).H D F B.B /.{.oX#XD c *Xc.z.y.b.W C.u y V t u E.T y.W 3Xl R.E.dXwX0 o.&.*.$.",
"e.e.2.2.|.gX9X3X3XZ U.DX.Xv R.aXyXW T d.g.F.vXB.B W.[.9XqX/ B (.tXW.(.l D PXCX%XIXBXD v t t v n Z x a.l.j.A yXE.Q.pXgXY [ $.$.$.",
"e.e.u.h.DXFX5X3X5Xg U.DX[.Y.>XZXOXz.f s.D.4 0XxX) nXcX8XA.%Xx E.zXrXxXJ e x j B K kXg A y v N N N l E 0.W A qXcXY v.dXH  .@.@.%.",
"2.h.i.*X>XFXpXZ 5Xm U.<XW.L.:X:X;Xn.2 E h h eXdXJ B.yXqXkXC.l 7XcXcXkXvX/ ' _ Z.' ( g G j n V S m r E.K E.0XS MXkXf W l.$.@.$.%.",
"2.t.u.q ZXDXZXuXT.S U.fX~.=X X+XZXOXn.^ *X*XCXfXk S N.H mXvXD iXqXxXE.K nXIXIXKXi r e x T R m Z H 5 B W m qXV cXvXC $XI , %.@ ; ",
"r.r.2.'.>XDX>XFXAX5X7 !.Q.=X,XAXsXZX,X,X1XoXeX{.i w S m xXkXp 7XtXdXuXG nXIXIXIXD u e S l g j.` Y > W E n cXm BXkX!.0Xv < o.$.= ",
"h.r.e.`.>XZX>X-XDXtXi U.|.}.GXUXNXOX*X&X_.].eXwXx y v B.eX~.l u B.dXuXE.F IXVXBXIXK e s W E W W T < W u G bX$XPXA qXzXk : | $.$.",
"2.t.t.`.>X>X>X>XMXc.T.a U.=X:XGXVXv.k.+X-X}.fXwXm S n H fX{.P.).V 0XC N B E.6XqX) G e i N T.V 4X/ > K A J bXBXPXm BXJ eX> o.$.$.",
"2.t.r.+X-XDXZXJXm.m.Q.7Xg XXFXZXsXcX! $X;X}.@X~.i H A ~.sXW.z I.~.H t j y k N H i y p D g F I l.I g H H bXvXBXPXbXMXbXeX> o.$.$.",
"t.t.t.+XDXFXBXx.b.M.qXT.4XK hX8XjXxX! k.c.v.sX~.r H fXZXuX{.L.J.E.A t u r w w N u i g S d I / A G w B lXvXbXPXPXPXPXBXn : | @.*.",
"t.t.t.=X<XVXb.v.b.b.4XC 7XD rX4X4XhX' z.k.$XCXlXd Q.sXsXsXOXP.z {.7Xn k w t 5XR.H h e S b b V Z D w n B.BXVXPXVXPXUXbXA > #.- @.",
"t.t.t.CXMXIXbX' JXtXT.S 8XrXhXgXhXjXS.' :X;XwXqX` ' {.aX X{.z (.W. XE.m w B H D h A p b y v n S m w A y m $X+X~.PXUX$Xy : %.$.&.",
"i.t.i.zXNXVXhXgXpXpX4X4X3X8XpXdXC.jXQ OX:X=X}.].z lXnXfXaXsXL.I.{.oX].n 5 B rXH rX4Xi 8Xv v b b J p S V l s +X).PXkXy L < -.$.$.",
"t.t.i.%XgXHXhXgXpXpX8XR.v R.gX4XjXB.B.x '.=X-X`.L.qXxX_ vXsXz W.yX2 s.m w E.hXeXhXrXe xXKXJ _ kXH p A S d U.+X~.J t b L # ..$.%.",
"t.t.i.v.NXHX8XiX6XpX7XV V k F lXV.! 3 3 q 8 }.;XL.J wXfXvXkXP.!.C.! f.Q z ].rXF 0XwXi G.b.KXv.JXJ r Z n a ~.+X^.H b b u | %. .4.",
"t.t.2.z.hXNXrX8XHXdX6XZ E.a U.JXd.S.3 OX'.~ Y U.P.J OXoXdXkX/ C.C.s.s.Q z /..XqXeXvXP JXv.nXv.v.` w n i U.@X].!.m v Z f O. . .4.",
"r.t.t.t.wXHXhXdXmX0X6XN 6 q <X1XzXwXoX;X|.ZXlX8.6 F oXoX~.rX/ x.C.3 s.Z.I.XX).W.lXf.4 A.v.nXZ.nXJ i h U OX+X{.J n v b 9 O.%. .%.",
"t.t.r.t.%XHXGXR.pXpX5Xl 6 +X1X1X;XaX[.R.J Z.KXb.> ' $XfX!.~.B ` Z.! s.' c /.).P.D Q a yXB.Q.S 0XK 5 U '.#XoX~.D v j S < {  . .4.",
"e.h.t.i.n.DXAX X7XN T.s c }.<X<XsX9XkXG.H.F lXv.' ' ` zXkX^.L.wX' s.a.W 2 *X_.z J K e jXi B H tXJ   ( +X#X~.) L y v g ...... . .",
"e.r.t.t.t.AXZX.X;XR.Z 9 I.}.<X:X|.4XG.D.F.N.0XJXK ^.^./ !.XXP.uXkXW 0.E 2 ^ `.m Z.' e B y Z G tX/ 6 +X'.oXkXK y v v < o.%.%. . .",
"r.w.t.t.i.' FX_.>XR.N Y +X].1X:X5XyXV.x.G.KXnX%XI.{. X' K @XP.[.wXfX%X$XK q F N.H D e L E.gXeXB.> I.+X).~._ m y Z i X.X.o. .$ 4.",
"y.9.e.t.t.y.AX-XAX~.l 9 =XXX<X X3XbXV.%XG.LXG.b.U.^.xXZ.^.@XP.{.vXzXuX XI.'.9 a m G i n pXxXY P U.'.`.|.kXK y u Z < +..... ., - ",
"r.9.9.t.t.2.^ >X&Xc.A s .X].,XaX5XmXS.).&XLXv.LX' Q Z.B.( @XU.{.) / [..XU.+X`.U.U Y a s Y R ~ XX'.I.W.wX/ y y k g =.-.....$ , $ ",
"9.9.5.e.t.t.q.~.AXb.qX7 U. X,X,XuXtXZ.R.-X&XLXKX` ` C.G U.^.P.[.qX' ) iXI.'.'.oX+X^.s U.'.XXOX1XP.W.eX` L Q V.f : 1.%.....$  . .",
"h., 6.e.e.t.2.E fXm._ 7 ~ sX,X,XZXiXZ.%XsXwXvXkXi ) lX].$XOXI.W.B.m ' ' N ZX}.^.'.OXc }.+X+X#XfX~.G ) G B.3 x.4 $.O.=.=.o.# o # ",
"9.8.w.e.e.t.e.w.k.M./ k > XX,X,X:XZX9XmXhX4XJ N.K Z.AX;X$XOXP.R.b v y ` T eXSXzX#XXXx +X`. XfXdXQ ' D J lXA.! * 3.....o...# O o ",
"9.5.9.r.r.e.r.9.y._ 5XC i s DX:X;XtXBX4X7XhXNXlX` sX;X XU.oXz b n V y j i ' ' vXmXwXx gXaXNXnX%XU.$Xv.JXnX! *  .o.O.o...$.$ # # ",
"9.9.9.w.r.w.9.y.y.9.Q.5Xu 6 *X<XMXv.nX4XZ 0XyXeXN {.,X^.~ 1Xz n Z n t t r wXC.Z.lX_ Y nXnXlXkXfX_.OXv.' _ > } - %.o..... .$ $ $ ",
"5.5.5.e.r.r.r.y.y.y.9.B Y.k : U.CXbXwXwX0XQ.mXhX).@X:Xs $Xv.2 W H b k y w tXmXC.Z.K h V.3 v E.fX).%Xv.nX> , ..# ..o.....$.# # # ",
"5.8.5.e.w.e.r.9.y.y.<.>.7 M T.6 s pXpXA 4XdXhXfXoXAX( c $Xx.0.j.` N.b y w dX) Z.S.h h B.n j 0XfX$X' G.U > , $ - ......X. .= = # ",
"5.8.5.e.w.w.w.9.a.w.q.2.2.9 R.R.l F J E.iX;XAXfXU.c s 4X' ' c ! ' x.T j 5 7XtX) qXH h jXM V 7X;X$X` 9 * 4. . .$ %..... .$ # - # ",
"8.8.*.e.9.9.q.9.y.9.<.q.q.5.< L.iXR.n g d 9 / U 6 h 0Xk.%XaXL.]._ h.k.d 5 iX0XqX4XB h 0XM Z sX>X X7 O ; @  .$ $ ..%. .4.$ * = # ",
"9.8.*.9.w.6.:.9.y.9.6.6.7.>.1.5.s iXR.r k m 4XA C A ' v.sX_.z L.!.a.j.Y w S m H 0X0Xf 8XC N 7X!.0 = ; *  .@ # O  ... .$.$ = # # ",
"5.8.4.9.9.7.3.9.0.w.7.q.7.-.1.1.;.I F V Z C 3X3XT.Q.k.#X-X-XL.N ~.W l.n.d t n B.0XQ.x 4XT.F < 7. .$ # $  .@ = $ ....} $.$ $ # O ",
"5.5.&.6.9.3.5.0.0.9.7.7.-.6.1.6.7.7.3.E G T.6X6X6X@XfX;X=X-XL.W.fXkXl.a.Y y Y.4X4XB d F < >.o.%.$ $ , , , $ # %  ... . .# # # o ",
"5.&.&.5.9.9.7.5.0.9.7.7.-.7.;.q.6.7.6.;.-.< h B sX-X-X-X-X>XI.].{.XXXX*XP.k S F I I   5.+.=.#.%. .$ $ ,  .$ #  ..... . .# # # # ",
"&.:.&.5.7.0.8.3.9.9.9.7.4.-.;.6.6.6.;.=.:.1.1.7.0 q K.XX}.-XI..XfX].I.U.U 9 , =.{ | O >.=.} ..%.$ # # $ , # + $  ... .} + # + % ",
"&.:.8.&.7.9.7.8.8.7.7.6.O.&.<.q.6.O.7.:.O.q.6.;.+.+.+.O.%.* < < < 3.o.{ 4.O.+.>.=.| O ,.=.o.....$ $ # $ $ $ # $ %.} @. .+ O + + ",
"&.5.&.&.7.7.3.7.7.3.6.6.7.=.<.1.q.>.O.=.1.1.;.1.O.;.1.1.1.+.X { { { { o. .>.O.o...X.O =.O.o... . .$ # = $ @ # # } }  .; # O + + ",
"&.&.&.&.7.3.7.3.3.0.5.-.6.=.;.1.;.>.>.o.;.;.6.-.=.-.O.O.,.>.X [ ,.,.o.[ } >.| } ..%., o.O.o.|  .% @ # # @ # @ @  . .+ $ = O + + ",
"*.&.&.8.4.3.4.4.4.5.6.&.-.%.;.1.O.6.-...>.=.=.%.[ } ,.o.[ #.& @ @.[ [ [ @ | } } | ; 1 =.=.o.|  .@ @ # # + + + +  .% O - = * + & "
};
