/* XPM */
static char *_99b4dc1158b4a5ff863894b8d7c2a60DRurvG3KPDEYiiGU[] = {
/* columns rows colors chars-per-pixel */
"64 64 247 2 ",
"   c #030C08",
".  c #0B130D",
"X  c #131A0D",
"o  c #0D1712",
"O  c #131B14",
"+  c #171E18",
"@  c #1B2114",
"#  c #1B231C",
"$  c #172019",
"%  c #292C1E",
"&  c #242919",
"*  c #32341D",
"=  c #37371C",
"-  c #2D311D",
";  c #242B23",
":  c #282D24",
">  c #2D3224",
",  c #2E342B",
"<  c #2A3A2B",
"1  c #333524",
"2  c #343A2A",
"3  c #3B3D2B",
"4  c #373927",
"5  c #373C37",
"6  c #2C3331",
"7  c #1C2420",
"8  c #3C4232",
"9  c #3D433C",
"0  c #3F432E",
"q  c #43432C",
"w  c #48482A",
"e  c #424434",
"r  c #42453C",
"t  c #454B3C",
"y  c #494936",
"u  c #524E35",
"i  c #54533C",
"p  c #5A5837",
"a  c #4F5134",
"s  c #605E35",
"d  c #605F2E",
"f  c #6C6A3D",
"g  c #66643B",
"h  c #736F3B",
"j  c #393F40",
"k  c #3C4341",
"l  c #454B42",
"z  c #4B4E4B",
"x  c #454943",
"c  c #4D5344",
"v  c #4D524D",
"b  c #4F5848",
"n  c #525544",
"m  c #52534D",
"M  c #545B4C",
"N  c #5A5C48",
"B  c #525552",
"V  c #565A53",
"C  c #5B5B54",
"Z  c #5C5D5A",
"A  c #575A58",
"S  c #4B5854",
"D  c #615E43",
"F  c #605E56",
"G  c #7A5842",
"H  c #5B6354",
"J  c #5D645B",
"K  c #5C695B",
"L  c #576254",
"P  c #5A614F",
"I  c #6A6748",
"U  c #736C42",
"Y  c #747244",
"T  c #797545",
"R  c #75734A",
"E  c #7A764B",
"W  c #7D7A4D",
"Q  c #7C7846",
"!  c #636555",
"~  c #6B6A53",
"^  c #63635D",
"/  c #636A5C",
"(  c #68695A",
")  c #726E57",
"_  c #6B725E",
"`  c #787757",
"'  c #5E6A63",
"]  c #5F726D",
"[  c #646562",
"{  c #646C63",
"}  c #6B6A65",
"|  c #6D6D69",
" . c #676863",
".. c #716E69",
"X. c #647164",
"o. c #6C7364",
"O. c #64736A",
"+. c #6C756A",
"@. c #6E7A6D",
"#. c #727364",
"$. c #797B65",
"%. c #74736D",
"&. c #747A6D",
"*. c #7B7C6D",
"=. c #787766",
"-. c #6D7C73",
";. c #697C7B",
":. c #747471",
">. c #797772",
",. c #747D73",
"<. c #7C7C74",
"1. c #7D7C79",
"2. c #767F7C",
"3. c #817D4C",
"4. c #817D53",
"5. c #857A5C",
"6. c #977558",
"7. c #846646",
"8. c #A17859",
"9. c #827C6B",
"0. c #817C75",
"q. c #827E7A",
"w. c #9B7C64",
"e. c #A67F60",
"r. c #8E572E",
"t. c #7C8175",
"y. c #74827B",
"u. c #7C857B",
"i. c #7E887D",
"p. c #748174",
"a. c #778074",
"s. c #85814D",
"d. c #89854E",
"f. c #858254",
"g. c #898453",
"h. c #8B865A",
"j. c #8E8A5C",
"k. c #8E8956",
"l. c #928D5D",
"z. c #96915E",
"x. c #898668",
"c. c #928D62",
"v. c #93896A",
"b. c #969163",
"n. c #9B9569",
"m. c #838374",
"M. c #83847C",
"N. c #8A857C",
"B. c #848A7D",
"V. c #8B8B7C",
"C. c #898974",
"Z. c #918D7D",
"A. c #9C8D7B",
"S. c #9A9575",
"D. c #97947B",
"F. c #8E947E",
"G. c #A19B6C",
"H. c #A58B73",
"J. c #A59A77",
"K. c #A38469",
"L. c #A9A378",
"P. c #B2AB7E",
"I. c #7D8A83",
"U. c #7A8782",
"Y. c #8A8681",
"T. c #848C82",
"R. c #8B8D83",
"E. c #878B86",
"W. c #918C84",
"Q. c #938E89",
"!. c #8B9186",
"~. c #8C948B",
"^. c #86918A",
"/. c #949285",
"(. c #999585",
"). c #94948B",
"_. c #9A958D",
"`. c #94998D",
"'. c #9A998D",
"]. c #9B9984",
"[. c #8C9692",
"{. c #8D9994",
"}. c #9B9691",
"|. c #949B93",
" X c #9C9C93",
".X c #949E99",
"XX c #9B9F98",
"oX c #939491",
"OX c #A79A87",
"+X c #A19C94",
"@X c #A39E99",
"#X c #B09F8A",
"$X c #9DA196",
"%X c #9DA29B",
"&X c #97A09A",
"*X c #AAA488",
"=X c #B3AC86",
"-X c #A2A195",
";X c #AAA493",
":X c #A3A49C",
">X c #AAA49C",
",X c #A5A99E",
"<X c #ACAA9D",
"1X c #A9A993",
"2X c #B2AB9D",
"3X c #B4A797",
"4X c #B8B28E",
"5X c #9EA7A2",
"6X c #A4A7A0",
"7X c #ACA6A1",
"8X c #A5AAA2",
"9X c #ABACA4",
"0X c #ABAEA9",
"qX c #A6ADA8",
"wX c #B3ACA4",
"eX c #B5AEA9",
"rX c #B8ADA8",
"tX c #ACB0A6",
"yX c #ADB1AA",
"uX c #B4B1A6",
"iX c #B3B4AB",
"pX c #BBB4AC",
"aX c #B6B9AF",
"sX c #BCB9AD",
"dX c #BAB3A6",
"fX c #B6B9B2",
"gX c #BBBCB3",
"hX c #B9B8B2",
"jX c #A9B2B0",
"kX c #C5B69A",
"lX c #C3BAAC",
"zX c #C1BCB3",
"xX c #C7BFB9",
"cX c #D2B8A4",
"vX c #BEC1B8",
"bX c #C5C1B5",
"nX c #C4C4BB",
"mX c #CAC5BA",
"MX c #CCC9BD",
"NX c #C8C4B9",
"BX c #D5C8B9",
"VX c #CBCBC2",
"CX c #C5C8C3",
"ZX c #D1CDC2",
"AX c #D6D3C9",
"SX c #D7D8CF",
"DX c #DFE0D8",
/* pixels */
"` x.D 0 4 4 e I > t t 8 3 4 : $ > 4 3 3 4 % 1 u u 3 7 ; ` D ! Z.v.q N ) ` 1 ) ) ~ n y u 5.Y.OXI x.x.: $ + + r N 3 i ~ i % R f.e ",
"i q q % % 4 w 3 @ @ % % @ O X X o 4 3 + 3 & * 1 & u i & i I x.D.x.D.D.*X#.l 9.) u e F u i F C.D ) i $ O   . O : e r ) I c 8 I N ",
"}.'.'._.).).Y.q.Y.u./.Y.%.<.%.:.>.0.:.>.q.Y.q.W.0.+XrX+X@X XdXhXdXNXzXpX,X9X<X2X7X}.rX7X#X7XrX+X/.q.u.N.q.1.Y.oXsXuXuXlXbX7XsXbX",
"Q.oX X}.}.@X}.@X@X@X@X>X@X>X>X>X7XwX7XhXkXrXrX7XwXrX7XwXwXeX>XhXwXeXwX7XpXpXpXpXrX7XzXhXxXzXzXrXxXzXlXhXrXrXpXeX7XwXwX7XwXeX9X7X",
"Q.Q.W.Q.).Q._.).Q.Q.oX}.}._.}.).oX@X@X7X}.oX}.}.+X+X@X:X@X@X@XhX7XeXqX7X@X X0X7X7X@X@X@X@X@X@X7X7X XoXoX@X}.}.XX@X6X7X7X6X7X7X6X",
"B B z z B [ } %.>.|  .| | | } | [ | | :.:.:.[ [ .. .[ Z Z z ^ :.U.:.:.| Z  .1.1.1.1.1.1.1.q.Y.Y.Y.E.1.Y.Q.Q.oXE.E.1.[ [ [ [ A v ",
"z z m A B z z B v z z z z z B B z z x z B B Z A B z z B B B v v z z v B A B B B A A A A Z A Z Z A B B v B B B B B A Z [ A Z [ [ ",
"V m z B F [ Z V A A ^ [  .[ ^ Z [ | } [ [ [ } 0.q.q.1.1.:. .:.<.1.| :.:.q.Y.>.:.:.2.q.1.:.:.[ ..:.:.%. . . .[ :.| | | | | >.q.M.",
"}.3X3X@X}.Q.@X7X7X@X}.Q.}.7X+X_.}.W.Q.7XrX7X>X}.}.rXrXlXzXrX7XhXxXpXlXrX@XrXzXlXrXrX}.}.rX7X7X@X}.7XzXrXrX7X7X@XrXpXlXrXrX@XrXlX",
"..F [ C 0.rXq.F [ C ..7X@XF } ^ m 0.}.C } } z 0.7X} F } F F +X>...:...:.7XQ.| 0.} [ @X7X:.1.q.0.Y.7Xq.0.q.0.q.@X0.| ..} B Y.Q.Z ",
"}.# 7 0.}.lXlX: X B +X@XxXx O + 0.@XxXF O + r }.zXq.+ : + Y.pXQ.; : O >.rX+X6 ; O k lXeXA 7 ; 7 }.rXq.6 ; + q.rXoX5 + o k 7X@Xq.",
"_.7 x @XQ.@X3Xj o q.Q.}.rXm   x 7X}.lXq.. + W.}.@X+X+   5 7X}.wX6 o o W.}.@Xk .   z 7XoXQ.+   7 }.Q.7Xj   . 0.Q.+X:.  . 6 }.1.Q.",
"N.Q.0...q.0.} }.....>.W...+Xq.%.q.Q.Q.Y.Q.%.q.0.}.W.q.[ [ Y.Y.@Xq.| [ q.>.Q.Q.>.>.Z q.q.}.| } B >.>.Q.:.[ B Z 0.0.0.x ..j 9...q.",
"F C j ^ [ } ..F B j ..[ ..F [ x [ 9...^ F k Z >.q.%.} [ j J Y.%.^ ..j z 0.Y.>.:...j [ q.q.Z Z j k 0.1.| ..A 6 ^ 0.q.....k 6 } ..",
"@X>X0.6 r }.7X@X@X[ ; ..kX@X>XQ.r e +X7X@X}.z 9 } rX@X@X}.z 5 Q.7X@XoXz r [ rX@X7XQ.k k Q.7X}.7XZ 6 [ 7X}.@X1.j 5 }.@X}.7XZ 7 C ",
"}.}.W.7 + Q.Q.}.Q.m   ..}.}.@X}.6 e }.}.}.@XW.. A @X_.}.>Xm > @X}.oX7Xq.  z 7X@X@XrXZ O Q.@XQ.@X@X+ B @XQ.Q.rXZ . q.}.W.}.7X: ; ",
"W.9.4 * q N C.0.i - a D B.'.Z.u w s ~ +X'.Z.u g a x.`.}.! a p I '.+XN.u p w ` '.+X) w w N OX_.+XC u q 5.}.+X9.w w w N.(.+XF w = ",
": . * 4 1 & + X = = 0 - @ 8 4 @ 4 3 @ 3 F + & q * = n 2 O 1 4 & 1 r @ * y w & y 3 * ~ q @ > V # u q & X , t 1 4 * & + l : + % @ ",
": % y n l t 3 4 a t M b 8 * a < l t r 4 w 1 r n a p & X % 1 1 & X X @ > 1 1 O 4 w n m.P y 1 * 8 =.! e 1 - 0 ~ M y 1 % 1 8 c e 1 ",
"G N ! #.$.*.$.p P R p.x.$.I I ` F./.t.` I ~ C.C.a.t.& p S.F.Z.x.5.5.m.D.Z.D.r e ` _ $.$.~ I s ~ #.#.( G a I _ $.9.~ a p ) *.m.` ",
"P < 8 0 8 M L : 8 9 t p.c 0 0 t _ p.- 8 : : H K 8 b 0 p.1X-X-X]./.!.'.,X1X1Xc n t 8 t 8 & H 8 < 0 4 2 P # > 8 2 N c # > 3 2 ! t ",
"!.i.i.^.~.`.!.^.`.&X&X$X!.B.i.`.%X%X~.^.T.T.`.%X`.!.c p.,X,X1X].U 7.V.iXtX,XM / ~.!.~.R.F.|.^.^.~.R.B.!.i.B.!.!.!.!.B.i.!./.`.i.",
"K H p.T./ K / H i.p._ _ _ o.T.L P K P o.i._ p.t.p.B.P i.vX,XtX,X6.r.6.tXaXyX/ o.y.X.~.t.H H H H `.o.P K b K ~.N n n n u./ M t t ",
"@.@.i.`.p.@.@.O.[.{.i.i.y.i.&Xp.p.p.p.I.&Xi.i.p.p.~./ B.vXiXtXiXA.7.v.tXgXhXo.p..XI.%X!.u.p.t.i.%XR.B.i.u.i.|.,.a.&.+.~.T.<.&.+.",
"%X^.~.^.i.&X%X%X&X&X,XtX5X`.&X&X&XvX|.|.|.&X8X,X{.,XK I.vXiXaXiXtXuXgXhX7XvX+.,./.B.!.^.F.%X!.`./.`.`.%XB.B.B.R. X~.m.t.m.B.$XV.",
"{.] ' K ' p.{.y.p.p.p.&XI.] O.X.X.|.O.K K K p.{.S i.X.|.nXhXgXwXaXaXxX#X>XCX&.t.y.L K X.X.^.@.p.@.+.p.T.M M L n a./ r c b t t.L ",
",X&X&X&X%X%X%X&X%X%X%XtX5X5XqX8X8XvXtX8X,X,X8XtX,XtXp.|.gXhXwXOX3XsXgXOXpXnXt.I.fX0XqXqXqXiX9X9X,X9XqXtX8X5X%X%X8X,X|. X$X|.:X%X",
"L L _ ^.K X.X.K I.i.O.p.p.p.`.@.p.i.i.^.%Xi.y.p.p.{.p.$XCXhXaX>Xw.+XsXJ.>XCXt.i.^._ `.i.@.+.X.+.`.o._ o.L p.i.n / ! N u.b 9 n c ",
"y.i.i.&Xy.I.^.I.%X.XI.[.[.{.8X^.^.^.{.&XvX{.{.{.I.,Xp.&XdXiXCXOXG @XpXH.hXCXu.T.tX~.qX%X.X~.~.~.qX!.T.i.-.~.|.<.u.t.<..Xy.,.U.u.",
"%X~.^.B.!.&X%X!.`.{.{.qX&X`.`.{.%XtX&X&X`.{.tX5X^.qXp.,X2Xz.nXuX9.6.OXOXnXCXM.i.$X|.|.|.|.9X~.!.B.!.|.tXR.i.u.B.$X`.t.B.B.t. X!.",
"&Xp.p.p.p.I.&Xy.p.y.i.&XO.] p.y.I.5Xy.y.p.p.I.I.] {.p.$XVXH.H.2XOXH.w.A.;XCXB.T.I.X.@.-.,..XX.X./ M _ [.M L V v u.O.l n b l E.A ",
"%X%X&X&X[.%X%X&X8XqX,X8X%XqX%X&X5XtX5XtXtX8XjXtXtXvXO.%XVX#X6.#X2XOXw.H.2XCXR.B.vX8XtXyX9X8X,X8XtX8X%X8X8X8XqX:X6X:X%X8X:X%X8X%X",
"O.O.u.T.,.O.] O.{.p.-.y.p.I.{.X.p.p.i.^.&XI.I.i.y..X@.%XnXK.H.H.H.wXH.OXxXxXE.E.I.K ~.I.K M H M ~.L L M M { ~.M V K V i.' n P N ",
"^.^.{.yXVX{.^.[.qX&XbXtX[.&X9X%X,XqX%XqXjX&X&XvX|.5X+.5X3X+XH.6.H.rXOX8.>XCXM.t.qX$XCXyX&X~.$X~.fX5X~.R.!.[.iX0X!.~.R.%XU.!.T.u.",
"%XI.T.`.R.~.|.y.I.~.&X8Xi.T.!.T.%XaX^.[.{.{.qXvX&X8Xp.,XdXiXwXH.#XOXe.3XuXzXi.,.!.!.~.^.!.8X^.~.$X~.oX%X,.<.B.B.|.|.T.m.t.B.XX,.",
"{.-.~.bX%XI.[.;.y.:XpX.X-.-.-.^.aX%Xy.I.I.I.fXyX;.&Xp.%XVXCXnX+X6.8.#XSX;XuXu.2.{.$X!.{ O.%X' B.2X/ O.u.c +.1X+.U.| L V *.0.u.V ",
"%X|.iXVXtX|.%X|.yXNXnXtX,X:X5XiXnXiX%XiXtXyXnXaX%XyX-.%XDXVXvXuX6.H.cX#X7XCXt.,.qXgXvXqX8X,X XtXCX9X|.|.|.uXVX9X:X$X|.%XgX9X X|.",
"O.i.`.,XX.' _ K {.~.@.K { K !.&.p.@.' I.{.i.`.i.O.~.p.vXDX}.qXiXe.3XkXmXVXnX,.,.+.L T.{ M b } C.%Xb b M P <.`.n P ! M R.#.c V c ",
"|.bXVXVX,X~.{.,XnXZXbX&X&X%XvXMXnX%X&X%XvXAXSXvX%X8Xa.SX:Xr S A.K.2XcXAX:XfX%.i.VXuXtX|.!.!.bXZXCX~.~.~.9XvXaX).).oX~.pXgXoXU.E.",
",X!.R.!.*.i.).u.T.B.i.~.a.u.`.).$X%Xy.p.B.i.%X5XU.&X$XMX| x 5 (.3XBXBXcXv 2.T.M.%X$X!.B.R.8X~.~.|.B.~.XX'. X!.&.^.,.$.V.B.*.Y.&.",
"fXsXsXsX!.a.yXgXhXbXiX&XI.dXbXNXbXqXy.|.bXiXaXyX;.qXdX).H l S ,.:.:.Q.OX9 9 /.:XiXuXR.-.U.gX<XsXuXy.^.bXdXlXdX+.T.i.<X2X2X*.Y.L ",
"-XiXuXnX,X`.iXtXnXiX9X%X:XfXCXiXaX,X$XvXVXvXfXyX$XVX<X,XdX|.T.i.R.m.{ N.{ / V. XVXvXvX8XfXgXvXgXMX,X8XgXuXaXnX-X).-X,XsXuX).M.I.",
"m.m.t.,Xm.R./.!.$XR.#.t.B.*.%Xt.p.$.&.^.tXV./.m.+.%X2X].+X+X&.(.+X(.'.;XF.;X3X-X~.K ^. X<X<X1X-X%Xt.;X+X'.`. Xb #.m._ R.u.t M <.",
"vXsXdXNXmXNXNXmXVXCXNXNXMXvXCXMXNXnXMXvXSXAXAXAXAXVXbXvXmXNXbXMXMXVXVXVXnXMXbXnXVXyXiXMXMXAXZXMXgXmXZXZXMXNXMXiXMXZXZXbXNXsXaXmX",
"+X'./.V. X8X&.,.*.m.$X$Xp.V.m.m.yX`.!.R.i.!.9Xp.,.M.t.`.,X_ t.t.#.|.$Xm.V.V.C.:X X1X'.'.]. Xa.m.t./ R.R.o.&.t.t.$Xt.} &.+./ '.{ ",
";X<X;X-X'.gX+X-X$XwXiXsX2X2XuXuXhXiX<X>X<X<XaX2X;X,XuXwXnXdX2XwXuXiXsXwXsXlXsXnXmXmXlXlXpXgX2XuXuX;X:XuX2X2XdX2X9X X/.'._.t.9X).",
",X<XdX'.'.'.$X,XgX'.$X<X:XuX9X).).:X8XnX9X,X$X1X-XvX$X-X:X<XgXgX9X:X,X9XvXiXtX:XyX:XpX,X:X,X-XyX9X9X,X$X:XvX9X1X,X<XhXmXpXgX9X-X",
"Z.C.-X#.( ~ o.*.`./ #././.`.B.! ( #.#./.C.9.$.t.( R.#.*.*.m.'.9X(.].(.Z.-X'.D.V.Z.V.|.t.t.*.` V.t.o.&.&.0.'.%.N #.! ! ).( ! #.M ",
"MXbXsXsXpXdXpXdXbXbXzXNXmXmXxXzXbXNXbXnXZXZXmXmXbXuXuXuXpXgXgXZXZXZXmXmXmXNXmXlXlXmXmXbXxXmXVXmXzXzXzXgXbXbXuX2XpXwX>XsXiX;X<X1X",
" X:X;X X:X:X,X9X X'.,X0X<X9XyX9XpXyXiXiXiXiXiXiXfXiXiXiXhXaXiXhXhXaXiX0X9X0XiXiXiXjXiXiX0XaX0XXX%X0X0X9X9X8X:X:X9X8X:X7X9X:XXX6X",
"`.'.`._.|.). X X|.-X:X X:XXX|.+X@X:X:X:X6X7X:X9X9X:X:XXX:X6X6X9X:X@X:X:X9X@X6X:X:X:X:X:X XXX XR.). X|. X XXX}.).~.).). X}.).oX).",
")./.'. X(.`. X X-X:X+X:X:X:X+X:X:X9X6X:X9X9X9X6X:X6X6X6X:X6X:X:X6X6X:X6X:X9X8X:X:X6X:X:X:X7X@X|.|.:X_. X:X:X:X).).-X:X|.|.|.}. X",
"`./.'.'.'.+X_. X:X'. X X X:X:X:X:X9X>X:X7X,X:X$X:X@X:XXX:X@X X%X:X@X:X%X:X9X7X:X:X:X:XXX:X%X X|. X'.`. X X$X).|.|.). X).}.).).oX",
"/.`././.'.'.;X'.;X+X'. X X+X+X:X,X:X:X:X:X:X:X$X+X%X%X X|.:X:X%X%X:X X:X:X:X:X:X:X@X:X X X X:X/./.).). X). X).).).`.).).~./.).).",
"D.(././.(./.'./.'.$X'. X'. X-X:X:X+X:X-X-X-X$X X%X+X-X:X X:X X X:X X:XXX X:X|.$X-X X:X X`.-X:X).D.).)./.'.'.)./.R.).).).).).R.).",
"S.*X]./././.(.'.).D.;X'.).+X-X X X X X X+X X$X$X-X|.`. X'. X X X X X`.+X:X:X1X X:X_. X X'. X-X'./.).).W.'.'./././.).).W.~.).).T.",
"L.=X=X3X;X(.].;X*Xl.x.OX*X'.+X-X$X-X X'.'.-X/.$X-X!./.`.'.'.-X-X X`.'.$X-X'. X$XD.`.'.'. X`.)./.).(.V.V./././.Z./.).).W.!.W.~.!.",
"k.G.3.n.L.=XG.3.P.J.4.S.J.1XJ.*X=X*X1X9X].;X].].1XD.F.`././.$X'.'.'. X X-X-X;X-Xv.-X'. X'.`.'.m.].].Z./.W./.Z././.).).R.!./.!./.",
"U c.U s l.T Q T Y c.G.G.j.j.J.4XL.L.G.z.J.L.f.b.G.L.L.;XD.4X3X-X;X-X+XD.4X=XkXS.n.=X*X*X*X1X*X*XD.L.S.4XJ.v.'./.R.W.R.V.R.N.Y.R.",
"g s s u E g.s.l.g 3.Q h Q h f.j.l.n.Q a.h.R R Y h Q g.P.n.n.4XS.*XL.G.3.c.G.j.Y h.n.z.l.s.v.c.Q W n.L.=X*XJ.OXV.Z.V.V.V.t.t.m.<.",
"6.Q E l.d.s.U k.h W s.s.W Y Q j.z.z.c.l.s.s.Q a.E E W 4.l.z.d.G.G.G.g.n.R a.z.z.k.b.s.z.Q Y T d p W W n.v.J.L.J.v.OXZ.R.M./.V.t.",
"p h b.G.b.f j.b.d.b.h f I f h.W Q s.n.k.s.Q z.W W 4.E g.z.z.s.G.j.f.d.z.g.c.Q s.k.E h d.3.d d a q I p U s R J.h.T n.n.J.S.v.n.S.",
"p h 3.U f T g.W j.d h 3.a.h a.h R d.j.z.d.l.n.T g.b.n.j.z.z.G.z.f.h.h d g.k.l.h h.E Y T T g g T R v.p p j.3.4.E p p 4.z.E h.j.c.",
"I g g g f f T g f.g d.d.h h d a.L.l.f f.W s.g.h.g.h 3.s.Q d.a.g.Q g.f.Y s.n.n.4.3.l.h n.n.Y f.l.k.c.c.c.d.5.4.s.d w s U Y R g g "
};
