/* XPM */
static char *efc116c543ae49d2e6e81b99b35c4ec85n3tt0pfJWBKNyh8[] = {
/* columns rows colors chars-per-pixel */
"64 64 182 2 ",
"   c #273122",
".  c #2F3525",
"X  c #303525",
"o  c #353C2D",
"O  c #36402F",
"+  c #3C402F",
"@  c #3B4435",
"#  c #3C4A3C",
"$  c #344332",
"%  c #434432",
"&  c #4D4A37",
"*  c #434D3C",
"=  c #4B4D3A",
"-  c #504E3C",
";  c #4C503D",
":  c #3F4E41",
">  c #434C44",
",  c #455243",
"<  c #4C5443",
"1  c #4C5648",
"2  c #4E5A4C",
"3  c #46534C",
"4  c #525644",
"5  c #545947",
"6  c #585843",
"7  c #535B4C",
"8  c #5A5E4C",
"9  c #485753",
"0  c #4F5C51",
"q  c #535E52",
"w  c #585F51",
"e  c #525D58",
"r  c #5C614F",
"t  c #556154",
"y  c #5B6354",
"u  c #566359",
"i  c #5B665A",
"p  c #5E695D",
"a  c #61624E",
"s  c #616555",
"d  c #636856",
"f  c #6A6A55",
"g  c #616758",
"h  c #636B5C",
"j  c #6A6E5D",
"k  c #65705D",
"l  c #6C715E",
"z  c #74715D",
"x  c #79735E",
"c  c #566460",
"v  c #5E6A62",
"b  c #636E63",
"n  c #696E61",
"m  c #636F69",
"M  c #667165",
"N  c #6B7364",
"B  c #66726A",
"V  c #6B756B",
"C  c #6E786D",
"Z  c #727565",
"A  c #7A7761",
"S  c #737865",
"D  c #797A66",
"F  c #717769",
"G  c #737A6D",
"H  c #7B7D6D",
"J  c #6B7670",
"K  c #6E7A72",
"L  c #737D73",
"P  c #797E72",
"I  c #737E79",
"U  c #787F78",
"Y  c #807E6B",
"T  c #817F71",
"R  c #7F816E",
"E  c #768075",
"W  c #7C8174",
"Q  c #76817B",
"!  c #7B847B",
"~  c #7E897E",
"^  c #83816E",
"/  c #838475",
"(  c #888675",
")  c #868977",
"_  c #8B8976",
"`  c #83867A",
"'  c #89877A",
"]  c #84897C",
"[  c #8B8B7D",
"{  c #928D7D",
"}  c #8E907F",
"|  c #91917F",
" . c #7C8681",
".. c #7F8983",
"X. c #808780",
"o. c #848B83",
"O. c #8B8E82",
"+. c #868E89",
"@. c #898F89",
"#. c #928E81",
"$. c #8E9184",
"%. c #87908A",
"&. c #8C928B",
"*. c #939284",
"=. c #9A9486",
"-. c #979886",
";. c #9A9987",
":. c #94968A",
">. c #9B9689",
",. c #95998D",
"<. c #99998A",
"1. c #9A9B8C",
"2. c #9A9D8F",
"3. c #9D998C",
"4. c #8E9691",
"5. c #929791",
"6. c #929991",
"7. c #959A92",
"8. c #969C91",
"9. c #959A94",
"0. c #999D93",
"q. c #9B9F96",
"w. c #999E95",
"e. c #9A9D94",
"r. c #979D98",
"t. c #9A9F99",
"y. c #A29C8D",
"u. c #A39E92",
"i. c #9EA093",
"p. c #9EA096",
"a. c #9EA29A",
"s. c #9DA19B",
"d. c #A1A295",
"f. c #A4A195",
"g. c #AAA395",
"h. c #A0A49B",
"j. c #A5A699",
"k. c #A3A59C",
"l. c #ABA69A",
"z. c #A6A89E",
"x. c #ABAB9F",
"c. c #ACA99D",
"v. c #B2A897",
"b. c #B1AA9D",
"n. c #B8AD9D",
"m. c #A3A7A1",
"M. c #A6A9A3",
"N. c #AAACA5",
"B. c #ABAEA9",
"V. c #B3AEA2",
"C. c #B9AFA1",
"Z. c #B0AFA8",
"A. c #AFB0A5",
"S. c #AEB1AC",
"D. c #B5B2A6",
"F. c #BAB3A6",
"G. c #B4B4AB",
"H. c #BAB6AB",
"J. c #BCB9AD",
"K. c #B4B5B0",
"L. c #B7B8B1",
"P. c #BDBBB3",
"I. c #BFBFB9",
"U. c #C1BBAE",
"Y. c #C2BEB4",
"T. c #C4C1B5",
"R. c #C9C3B6",
"E. c #C5C3BB",
"W. c #CAC6BB",
"Q. c #CDC9BE",
"!. c #D0CBBF",
"~. c #C7C7C1",
"^. c #CDCBC3",
"/. c #D2CEC3",
"(. c #D1CFC8",
"). c #D3D1C6",
"_. c #D4D3CB",
"`. c #D9D6CD",
"'. c #D7D6D0",
"]. c #D8D7D0",
"[. c #DBDAD2",
"{. c #E0DFD9",
/* pixels */
"o o . X . E E # < < ; ; ; ; & % % @ y R $ $ # * ; ; r 2 4 < * + S R $ = ; ; r r y a r 6 ; E ~ ; + @ = ; < 4 r y d r 2 ] G ; = + ",
", , , , # E R , y $ t p r 5 ; ; , # k ~ # # : , 1 , 2 1 2 0 1 # E ! , , 1 0 q t p i p i t E $.p 2 t u v b v M C k y M O.E , < 4 ",
"6.,.7.,.2.2.8.i.d.i.h.h.2.,.-.6.] $.%.i.] %.%.] o.~ ] ~ o.$.$.~ } &.! ~ ~ %.] ] &.$.8.w.:.i.i.,.6.6.8.i.8.p.s.s.a.p.p.i.8.O.o.%.",
"] ) W / ~ R ~ } } } } -.i.| -.| | -.-.-.1.1.<.i.j.j.x.x.j.j.i.i.2.2.i.<.2.i.i.j.;.2.1.-.-.| } | *.*.-.$.a.*.-.-.| | *.} } } } } ",
"p t t t t t t t t u t M i.k k k k k d k k S C l l y S S l l S l l k k k E E ~ 2.H E N d h h h h k p k E 8.E S C C l k h M N M h ",
"p 2 0 u i u u t p b p B 8.E d y r y y y k N N M C 1 p C l k N k h M M k d k E i.C Z j d k N h g d u u p i.E y h d d s s r r r 5 ",
"p 0 p p k t t p p M b V i.B y r t y y i k M V V ~ e B E N N k p k k k v k d E a.C V N d d j i i i y y t 8...M k d d h h h i i i ",
"E J B E E E B B v E v E s.b k t t u t p B B C N E 0 B C C E C V B p v u b M ~ z.V M v c p M v u p p m m i.4.Q Q ! ! ! Q E E K C ",
"%.&.%.&.&.&.4.9.r.8.i.i.m.4.$.%.4.&.%.4.8.9.p.w.r.8.4.7.7.9.s.s.i.i.s.s.a.M.M.A.s.s.s.s.h.t.9.9.r.t.s.u.M.m.h.m.M.M.m.s.a.s.a.s.",
"z.M.M.N.z.z.j.d.j.a.j.j.8.z.A.j.j.h.z.d.z.N.N.N.x.2.d.j.z.j.a.p.a.a.,.,.*.,.,.$.O.} $.:.-.h.h.u.h.d.q.e.-.,.e.w.0.8.0.k.k.:.$.O.",
"M k M N M p.E E E E R k N G C N V j G } C C N N N h h M C N M h ,.+.p B B V V C B V V v p %.4.V W W ~ L L G W ~ ! ! ! s.r.K v v ",
"t t t t t 7.K C E k k k G V k k M M ! 8.L h d h N M M K K E E K s.4.J C C C N h d k d y M &.s. .Q I L C N N N N C G N 9.m.K V V ",
"p v p M v 8.! E N G G N l j h h h p E m...V M V C J B K K E K J s.4.m B B V t p V M M M i ~ s.! Q ! E ! L ! ! ! H C L 9.m.J B m ",
"M B B B J w.+...! Q E C L L E L Q V E k.%.Q L E Q E C E Q Q ! Q i.4.B K J Q J K ! Q  .Q I &.9.I Q ~ ! Q ! ~ ~ X.%.+.o.w.s.I  .Q ",
"m.M.m.m.M.M.M.M.k.m.M.M.k.M.N.m.d.N.M.A.N.m.k.M.S.B.a.S.A.S.S.N.M.N.m.M.m.s.i.9.s.p.p.6.r.m.M.s.t.s.t.&.6.w.9.7.w.9.q.N.B.k.m.s.",
"$.} *.&.:.$.:.-.,.8.0.,.M.,.-.} ^ :.:.$.*.$.*.:.:.a.,.,.,.:.:.$.+.$.O.] %.o.$.M.,.&.$.:.*.:.*.[ ] ) [ $.k.-.O.*.[ O.O.] [ O.$.@.",
"p 2 1 t r k M i t i t v a.C N V k k C G V j M k M 0.%.y p y t y q y v y u u b k.N 7 q w y i u w 7 7 u u w.X.h h M m v i i b g v ",
" .C B M V ! E V p M i C a.+.E N N l N N C k N N M 6.&.p d p g d g d b n h h J m.Q m J K J C K C V m p v t.@.b m V L K L L I L n ",
"E k p p h G E M p M p K k.~ G E G C N N h h N M M 6.4.v y p d g y y t y y 8 h m.J y g g h h m b h b g v r.@.p M b b V V B V B V ",
"..J B J C ~ +.C v v M Q m...E E L E ! E C V V C C 8.9.E L V B C V G L V B B J s.L b m J B B L J J J C J 9.4.K K J C I L Q I I I ",
"B.S.B.S.B.M.s.M.M.k.k.k.M.N.m.k.a.k.k.k.M.M.M.N.N.M.M.N.B.M.M.B.B.B.S.B.M.M.M.B.M.M.B.B.N.N.M.B.B.M.N.B.B.N.B.B.N.B.N.M.B.B.B.N.",
"] ] O.$.] *.i.] [ $.$.W H ] [ [ ) H W a.$.[ $.} $.} ) $.$.,.-.*.w.7.] O.] ] ] W / ` ! ! W @.h./ ` ` ` ` / ` / ` / / ' M.&.O.[ ] ",
"u i t y 1 C s.B M M N C E N M G E K C a.C p h N N M h C G N N y O.o.h b h h b h M b b m b L w.m b N b M M V V B m m J h.I i i m ",
"K k k M y E s.C N N h M N V N C G N G a.E C G C E V M E ! L L C &.9.I ! L C Z V L L G L L  .k...! E K C L C G V L I I u.I i i h ",
"p p M B i L s.C K C h y h B V V M M Q m.Q K L V V b b N N M N M ,.9.C C C V V C m m N C N I k.! G V n b m N C J H C C h.K e i i ",
"J V V C V ..w.L G G L C G L E I L ! ..a.+.] ~ ! X.U P ! W P G L 4.9.K L K E Q Q L J I U U +.a.X.X.X.o.X.! @.@.@.@.X.` h.o.I Q I ",
"B.B.B.B.B.M.M.M.B.B.N.B.N.B.B.B.B.B.S.M.B.B.A.A.G.h.M.I.~.P.M.B.N.M.m.A.M.N.M.M.N.N.K.~.I.m.k.N.N.N.N.N.B.Z.B.Z.S.B.N.B.Z.N.B.B.",
"Z N N V P W ` / P W H G a.C Z S F D S N S N C G Z &.O.:.,.] P P H E W W W N $.:.h n P T Z b n h g b b F h.Z Z Z Z Z N D P G H P ",
"B u q u p b b y g b p B G.E C C N M N V C V G G b &.U q g p p M V V V V J v ~ 9.e 7 v e i b m m v v v I h.J V b b b m N J I I K ",
"K h h M V N N N V C G ..E.:.E ! G G ~ ~ ! L E +. .9.G.1.] M V M B V K N V C %.5.v O.y.' v V J m J L K ..q.J F K I ! 3.P V J C n ",
"m p u e y b M M N V G Q E.O.y h h k N C C N E E V N.^.d.W b b b v v b B m h &.5.P y.y.o.m v v i v m B  .h.C b g ` >.>.n b b N V ",
"+.X. .....o.+.+.&.&.L.M.E.p.! ~ o.o.X.o.o.%.+.%.+.S._.T.&.I Q ! U I U ~ U ! %.w.B.K.H.9.Q I I Q I K I ..q.+.U o.H.H.N. .U  .U  .",
"w.0.0.7.q.m.d.h.h.D._.Y.D.Z.h.m.m.M.M.k.N.B.B.N.I.G.T.`.I.B.B.B.B.B.B.N.N.N.h.G.'.(.{.Y.B.B.B.B.B.Z.B.B.M.S.B.~.[.[.[.K.B.S.S.S.",
"y y p V i :.W M h N F j h N g g g 7 ] O.y g h h W W ` %.W F N P q.F j N N j N F P H H Z g X.9.i i w g n n n n P T O.` u.P g n n ",
" .Q L ! Q r.+.I I ! I L V C V J K b @.5.v y b M W L W ` N M b K q.J b V K C C ! K b b i v  .9.c v v m v m m J J m B J t.V e i b ",
"L B V K L 9.] N :.b.b.Z.O.F N b b h o.&.y m m :.b.y.g.>.V V n C q.X.L L L L q.F.l.V.>.I I o.q.K J K J J K J u.N.u.m.U 9.P w n F ",
"B V L Q L 9.X.U l.l.B.V.@.L L V C V o.&.i V Q u.d.d.V.:.K L C K t.! C G F P l.b.V.V.*.V L X.s.m v m m B m F u.u.u.u.P 5.U w m V ",
"o.@.&.o.X.7.@.G.Q.E.T.T.V.] ] ! X.~ &.5.!  .N.G.H.H.Y.K.&.o.! ] 7.X.o.X.o.N.Y.P.Y.Y.Z.o. .` r.I  . .X.X. .Z.H.P.Y.Y.t.5.@.! X.X.",
"N.B.N.z.N.z.V.^.Q.^././.~.z.u.z.N.l.j.k.M.T.'._.'.'.(._.B.M.N.M.m.s.h.a.Z./.^.(._.(.W.M.t.m.m.B.M.B.Z.N.P.(.(.(.(.'.(.N.B.Z.B.Z.",
"s h d d h i y y b Z j ! P.b w g g y g n Z ) [ [ $.d.3.:.P G H H / P U P T P :.T.#.( F s F F Z Z N n n Z Z.l.T { ' ' T Z H H P P ",
"t y y u q V ` G P G G o.L.I i q 7 1 y 7 2 g h g n w L J n b N p h V V G U V U G.C g i g m g t y w g g w N.u.0 w w w e 5 7 q i 5 ",
"G N m b h >.l.f.u.u.l.@.K.U b V b b V n #.u.u.u.V.n >.O.n L I G G I L 3.C.,.@.J.,.:.N h b J N n V B V b s.Z.F H I T F n n n N n ",
"K C K V O.l.u.3.,.u.u.@.Z.I m m v m C ] F.V.H.F.U.O.3./ N L F L E L ] c.l.g.4.Y.g.u.n g n N b b b b O.T t.Y.>.3.u.#.N m b m V V ",
",.7.,.7.T./.^.~.Q.W./.P.l.5.:.&.@.X.,.P.#.#.:.>.>.3.L.h.X.X.X.o.o.O.D.Y.Y.E.Z.Y.T.Y.&.U +.+.` ` T o.J.Z.N.~.Y.P.Y.L.9.&.@.@.4.5.",
"e.h.d.J.T.U.J.H.H.J.H.Y.Z.u.z.z.M.u.Y.^.Z H ' s Z O.^.^.k.m.M.N.a.E.[.'._.(.Y.J.^./.G.m.m.N.N.B.B.E.(.(.P.Y.(.(.~.^.H.z.N.B.N.N.",
"a f f f s f f 4 5 < < 5 y 8 s g w 4 H W.V.l.V.u.j.W D ( F Z H n f.B.H F n b b n b j j s g F q.Z g n n F Z n g g g g 2 @.X.w s g ",
"Z D Z P i 9 N ( H F H F h v y g b b m ~.l.y.>.3.>.g t y b M h q d.,.2 b G O.O.U T P b g i K u.m i J N V F K F L ` P c @.@.e b b ",
"z / y.v.,.O.u.l.g.u.j.k./ C L C ' 3.T ^.V.y.y.>.y.{ | H d N h h x.Y.u.f.l.g.f.g.l.3.n N N L r.! *.l.u.u.u.u.u.u.l.>.n :.@.v i U ",
"F ;.v.g.v.J.c.f.f.g.u.u.O.C V V ,.b.*./.G.u.u.f.u.e.u.O.L L o.! l.^.l.l.b.b.V.u.u.>.U N b F B.u.M.l.u.l.u.V.u.3.u.3.N &.9.m m 3.",
"W././.!.R.T.R.Q.Q.R.Y.T.H.1.e.Z.J.R.l.Y.~.R.Q.R.T.T.P.F.@.,.Y.x.z.`.Y.Y.W.~.~.W.^.Q.G.9.X.9.W./.(.^.(.(.(.(.^.^.(.^.G.B.u.9.Y./.",
";.u.v.F.J.F.F.U.W.R.W.Y.U.J.C.F.G.J.l.u.W.W.R.R.R.Q.).^.Y.!./.).l.Y.(.~.~.Y.Y.Y.^.~.Y.Z.V.W.L.^./.(./.(._.~.Y.Y.~.^.(.Y.F.^.~.~.",
"l d d y a s r a f 8 5 5 6 8 8 4 # * 1 w d d s f r f.e.8 j j j n y j F n n N m Y.` N n y g b h n g h n i m.V.i g g b g g g h h n ",
"f.f.f.3.;.;.{ H T Z h w > Y *.{ ' O.[ #.*.` ( { ( j.V.G G P [ W P O.' ` O.{ G E.m.#.O.H O.:.>.#.@.,.e.U q.Z.g V n F F n G U P m ",
"c.b.v.l.g.g.y.u.u.u.y.T n =.v.n.l.g.y.y.f.g.v.b.y.N.P.>.u.u.u.3.y.3.=.{ ' { T P.l.#.=.=.>.u.u.e.u.u.u.[ e.Y.#.>.=.=.=.>.y.y.y.>.",
"n.D.c.c.f.g.g.f.u.u.>.u.y.y.C.C.b.b.l.l.v.b.n.F.v.H.J.[ =.>.#.=.#.#.' { ' { P P.V.[ #.=.>.#.#.=.=.#.=.' u.Y.P ' ' ` ' [ O.#.#.#.",
"/.Q.).).!.).!.R.Q.Q.Q.R.U.Y.!././.!./.R.Q.Q.Q.Q.Y.T.Q.T.T.U.J.H.J.H.H.H.H.Z.z.P.Y.L.Y.E.T.J.Y.L.L.Y.E.Y.Z.^.K.H.K.G.H.Z.Z.G.Z.Z.",
"R.!.T.Q.!.R.U.U.U.U.U.U.F.U.U.U.Q.Q.H.H.U.T.T.T.R.D.T.E.^.^.).).(./.).`.`.`.`./.'.[.]._.^._.`._._.(._._._._.[.`.{.[._.[.[.[.[.`.",
"D D S T.{ f z x Y z z f s 8 6 6 =.c.s r 4 7 j D z N N Z W H D.d./ [ ` ` _ / H ] ] / &.:.E.) F H H D H H H / T / P u.Y.` ' ' O.=.",
"| } h U.g.{ g.v.v.v.g.y.=.{ / Z :.U.y.*./ ) =.g.f.=.{ *.y./ x.V.=.>.>.=.[ ` ) ] W / O.X.T.~ e g i v u i i d F T n P Y.m i w i g ",
"n.v.R R.R.n.F.n.g.n.n.n.v.l.b.#.2.F.=.g.;.y.u.n.v.;.=.=.y.{ l.J.=.u.y.y.y.y.y.>.=.#.=.#.I.H.{ *.#.#.:.*.=.y.y.y.u.:.Y.u.e.3.u.u.",
"g.1.R T.U.y.g.g.g.v.f.y.u.y.g.#.,.T.{ y.*.=.3.v.g.3.=.=.y.D c.U.#.u.u.3.>.>.=.=.#.{ ' W T.V.( O.#.*.:.=.*.:.=.>.=.*.^.>.y.y.y.>.",
"T.Q.x.j.!.R.R.R.R.R.R.R.Y.!.!.J.c.T.v.D.J.F.V.V.U.D.V.V.n.y.J.R.V.F.J.H.H.D.N.H.V.Z.G.l.I.Y.H.P.I.E.I.B.G.G.L.H.P.N.J.I.H.H.H.H.",
"F.U.Y.c.U.R.R.R.R.!.!.!.Y.U.U.R.F.F.D.P.R.).Q.U.R.R.W./.`.).J././.Q./.W.W.Q.R.Q.W.W.Q.^.F.^./.Q.Y.Y./.^.^.Q.^.)._._.Y._.(./.~.~.",
"D D ^ ( _ ( ^ ^ x =.T.H Y l j A D S A A A A z n.f.;.*.=.{ / H ( / ' #.D H U._ A D D A A j l Z j N j L T.f.l D ^ R / O.[ ' / / H "
};
