/* XPM */
static char *_655e057bb5c420f9830f1cfbd8f24ea8CfJF9FhpZGQqOBr[] = {
/* columns rows colors chars-per-pixel */
"64 64 247 2 ",
"   c #0A0B12",
".  c #281A14",
"X  c #2D1B11",
"o  c #39261C",
"O  c #37251A",
"+  c #2D211B",
"@  c #171A29",
"#  c #392A24",
"$  c #282B39",
"%  c #39373C",
"&  c #322E34",
"*  c #202028",
"=  c #45342B",
"-  c #4C392E",
";  c #463328",
":  c #4A3B35",
">  c #513F34",
",  c #473327",
"<  c #402C1F",
"1  c #55443C",
"2  c #5B473A",
"3  c #4B413D",
"4  c #383A46",
"5  c #283245",
"6  c #413D42",
"7  c #3E414D",
"8  c #3E4147",
"9  c #374252",
"0  c #3A4A6A",
"q  c #43454D",
"w  c #4B4B4C",
"e  c #484448",
"r  c #5D4C44",
"t  c #584B47",
"y  c #434552",
"u  c #4B4C53",
"i  c #4A4E5C",
"p  c #464A53",
"a  c #4E535C",
"s  c #4D5155",
"d  c #53555A",
"f  c #555759",
"g  c #564F52",
"h  c #665348",
"j  c #695B54",
"k  c #745F4E",
"l  c #6E615B",
"z  c #77665A",
"x  c #4D5569",
"c  c #4B5466",
"v  c #5B5D64",
"b  c #555C6C",
"n  c #555967",
"m  c #4D5974",
"M  c #545D73",
"N  c #555E77",
"B  c #494F64",
"V  c #5B616D",
"C  c #5A6068",
"Z  c #5B6374",
"A  c #55627C",
"S  c #5A647B",
"D  c #5A667B",
"F  c #4F607B",
"G  c #646569",
"H  c #796C65",
"J  c #79706A",
"K  c #636974",
"L  c #636B7C",
"P  c #646977",
"I  c #6A717B",
"U  c #727379",
"Y  c #615F64",
"T  c #BA3D13",
"R  c #BC431D",
"E  c #BA4A28",
"W  c #BE532C",
"Q  c #BD5934",
"!  c #BC5C3C",
"~  c #B75737",
"^  c #B05138",
"/  c #BA603D",
"(  c #C54A1C",
")  c #C5410D",
"_  c #C24C27",
"`  c #C85529",
"'  c #C45B35",
"]  c #CB5D34",
"[  c #C35C3A",
"{  c #C55936",
"}  c #CB623D",
"|  c #C5623D",
" . c #D3643A",
".. c #B65E43",
"X. c #AC5B45",
"o. c #816D5C",
"O. c #87705E",
"+. c #AE6248",
"@. c #BB6244",
"#. c #B7654B",
"$. c #AD6955",
"%. c #B56B55",
"&. c #BB725C",
"*. c #86766A",
"=. c #927D6C",
"-. c #BB7966",
";. c #AD796B",
":. c #C25D41",
">. c #C56343",
",. c #CB6543",
"<. c #C7694B",
"1. c #D26A45",
"2. c #CB724C",
"3. c #C36D52",
"4. c #CC7454",
"5. c #CC7B5C",
"6. c #C87659",
"7. c #D37C5A",
"8. c #D7724A",
"9. c #C87C64",
"0. c #D17F62",
"q. c #98877A",
"w. c #938373",
"e. c #BC8A7A",
"r. c #BB8775",
"t. c #AD8C75",
"y. c #D1825E",
"u. c #C5836D",
"i. c #CB846C",
"p. c #CC8568",
"a. c #D2886A",
"s. c #C48974",
"d. c #C38E7B",
"f. c #CA8A73",
"g. c #D38D72",
"h. c #C7927D",
"j. c #D4947A",
"k. c #D49377",
"l. c #5C6B83",
"z. c #596783",
"x. c #5F718B",
"c. c #626D83",
"v. c #646E8A",
"b. c #667488",
"n. c #747985",
"m. c #667892",
"M. c #727D93",
"N. c #788597",
"B. c #968C84",
"V. c #9D948D",
"C. c #97908B",
"Z. c #9D9794",
"A. c #888B93",
"S. c #A2958C",
"D. c #A8988A",
"F. c #BD9A8C",
"G. c #BC9686",
"H. c #A59B94",
"J. c #AA9E94",
"K. c #A59D99",
"L. c #A49A94",
"P. c #BC9E92",
"I. c #ACA196",
"U. c #ACA39B",
"Y. c #A7A29D",
"T. c #B3A394",
"R. c #BCA393",
"E. c #B2A69C",
"W. c #B4A99E",
"Q. c #BAAC9D",
"!. c #BFA69D",
"~. c #BCA68C",
"^. c #8B93A1",
"/. c #ABA6A3",
"(. c #AEA9A4",
"). c #ABA8A6",
"_. c #B4ABA3",
"`. c #B9AEA4",
"'. c #B3ADA9",
"]. c #B4AAA4",
"[. c #BCB1A5",
"{. c #B6B2AC",
"}. c #BCB4AB",
"|. c #BCB6AC",
" X c #BBB6B1",
".X c #BDBAB4",
"XX c #BDBBB9",
"oX c #B6B5B1",
"OX c #C39583",
"+X c #C39C8B",
"@X c #C99886",
"#X c #D29B85",
"$X c #C49E91",
"%X c #C7A28E",
"&X c #D4A28C",
"*X c #DBA18A",
"=X c #C3A393",
"-X c #C3AB9C",
";X c #C8A896",
":X c #D3A592",
">X c #D4AC9B",
",X c #D8AB97",
"<X c #C7B39B",
"1X c #DBB19D",
"2X c #C6AEA1",
"3X c #C4B2A5",
"4X c #CAB3A5",
"5X c #C2B6AB",
"6X c #CBB6AA",
"7X c #C3B9AD",
"8X c #CBBBAC",
"9X c #CBB9A5",
"0X c #D4B4A4",
"qX c #D7B7A7",
"wX c #C4BCB3",
"eX c #CABDB3",
"rX c #C3BEBA",
"tX c #C5BBB5",
"yX c #D2BAAE",
"uX c #BFC0B9",
"iX c #CFC1AD",
"pX c #D2C2AD",
"aX c #CBC1B6",
"sX c #C4C2BC",
"dX c #CCC4BB",
"fX c #CEC8BE",
"gX c #C6C1B5",
"hX c #D1C4B4",
"jX c #D1C6BA",
"kX c #D3CABD",
"lX c #D5CAB9",
"zX c #C5C5C1",
"xX c #CAC7C1",
"cX c #CDCAC4",
"vX c #CDCCC9",
"bX c #C7C9C3",
"nX c #D3CDC3",
"mX c #D2CECA",
"MX c #D9CFC1",
"NX c #D6D0C6",
"BX c #DAD2C5",
"VX c #D5D2CB",
"CX c #DAD5CB",
"ZX c #DED8CD",
"AX c #D6D7D2",
"SX c #CED2CC",
"DX c #E2DBCF",
/* pixels */
"A.A.N.^.^.^.A.^.A.A.I I I I K K I n.G I b.I U n.I K C a b C D L D V V C L I c.Z V x c V Z P L L Z Z S S I n.n.I L S c.M.v.N M b ",
"n.U f f C s Y Y Y G 8 w f C K K K I K K I N.I C I I K 7 f v C C C C a 7 C C Z L P L l.D 7 p n b M b x i i n b N M b x m n 6 B n ",
"s C G J C w f d s f J J J v 8 w 7 s s s w w w f f f w s s w 8 % 7 s s a a 7 7 q p p u y p q 8 % % 8 q u B y y q 6 6 i m 6 B 6 6 ",
"d d i M c i G G v v v a s G G v f s 9 b f f f s s 7 f C p i s s p a i 8 8 8 8 p 7 y i y u s d f f b b q y 4 6 4 6 m 6 6 B 6 B 6 ",
"N.N.x.m.m.0 V B.N.N.z.N.x.m N.D N.D z.x.D D x.N.N.F F x.D l.z.l.D F A c.L Z D D P m z.z.n.n.n.U P m N z.S S M b N m z.z.N Z V v.",
"9 D m.x.x.5 @ 4 s F x.l.l.5 5 C C l.x.l.A 9 C D C D z.l.a 0 C x M D D l.m c b b n.z.N z.L K Z b.v.N m z.M x P M.v.z.z.z.B B P v.",
"* C N.b.9       + V N.D $       % Z x.b.9     % 7 L l.D *   * $ u l.A A @ @ $ 8 f l.z.N $ & e g u N N B & % q a x z.z.m & 6 B g ",
"v D G $ $ B 9 u n Z G $ @ 5 4 w s K K $ * 5 8 w C V C @ @ 9 8 f n K V $ * $ % w y n M $ 5 7 w q i n B @ $ y u 6 6 n m $ $ 6 6 u ",
"D F . X F N.L D F D # + A L x.F D D # 8 D D D F l.a X % F l.D Z z.c X 4 z.A Z x m x + 4 l.S A m N B . 4 N S S x z.6 . 4 z.M B B ",
"F & O O C D F I x.7 O < K D L b.L 8 + 3 L D D N.m # O 3 L A L b.D # . : Z F A l.z.4 X e S Z S l.z.& X u S N N S z.6 X B m B m z.",
"# ; ; O # U f s % O O X = l C a : O o + 3 C s 3 # o O O 3 G v f # O O O : v C C 6 o < o 3 v b n : + O O w P S M 6 # o o 6 c.v.P ",
"2 3 , 3 1 2 k z ; 3 < 3 3 3 h 1 o ; 3 - 3 2 k O ; ; , 3 ; h 2 o o # ; # - k - O , ; = = h O.o o < = : = z h # = = : = : O.2 6 1 ",
"w.h 2 r j j z <Xo.1 2 h h r w.t.2 1 2 r h k ~.z 3 1 1 h h o.D.2 - 1 1 r r t.t.3 - 1 h g z =Xo.: 6 r h t =.t.: - t 6 g j $XO.# - ",
"h.t.j l J J w.~.~.z 2 l H z t.<Xq.2 2 z z H %X~.o.h l l l w.<Xt.j h j z l D.<Xq.t h j l *.Q.-X*.h l l l q.<XD.h r j l J !.!.*.1 ",
"<X<X~.w.w.q.<X<X<X<Xw.z J w.<X<X<Xt.w.J *.I.9X<X<Xq.H H *.<X<X<X~.=.z z q.<X<X<XD.*.H H S.8X<X9XV.*.*.q.4X4X2XP.=.*.*.V.6X2X!.;.",
"iXiXlXlXlXNXMXpXpXpXpX7X9XlXlXlX9XpXiXiXgXlXpXpXpXpXiXiXaXlXpXiXiXpX9X7XhXpXiX<XpX9XT.].aXpX9XpXyXyX6XxXkXeXyXyXyX6XtXjXdXeXeXeX",
"~.[.iX9XiX5X-XQ.3X-X4X<XyX8X5X3X4X4X9X8XeX5X3X9X9X4X8X8XaXaXiX<X3X[.7X7XgX7X5X6X7XgXVXVXcXdX6X5X5X5XtXtX5X}.5XwX5XrXdXzXzXtXwXtX",
"] ] #. .| | } ' Q  .]  .] ] | ' ] ] ` ] >.! } ] ] ] } [ ! } ` ` ` ` Q ' >.| Q | @.@.>.>.@...! ~ ..[ { { ' Q ~ @.@.@.#.! @.$...@.",
"j.h.%Xj.j.j.k.f.k.k.g.k.a.a.a.f.k.g.y.y.a.u.j.k.a.y.p.g.f.g.a.g.y.y.i.g.g.g.a.5.4.p.a.y.5.4.<.4.p.7.2.4.5.2.5.5.4.2.2.2.<.9.4.4.",
"h.h.h.h.h.4X-X%X;X%X%XOX6XR.+X%X+XG.%XgX~.=X=X+XF.~.gX%X%X%X%XG.~.|.OX;X<X;XOX-X<X%X%X%X%X+X6X2X+X%X;X;X=X8X`.G.G.=X;XP.8X[.R.F.",
"7.7.8.7.1.#Xe.8.8.8.1. .$X3.1.1. .}  .F.>. .] ] ` } G.}  .] ] ] 5.e.`  .] ] ` y.r.( ` ` _ ) 0.9.) ( ( _ T s.#.( _ R E ) s.#.( W ",
"5X5XcXtX7X7X8X8XeXkX6X8X8XyX6XyXjX6X8XgX8XeXeXdX8XaXaXeX7XaXhX7XaX7X8XiXhXaX4X9XgX6X8XpXtX6XeXtX8XyXhXyX<X8X2X2X2X4X4X3XwX3X2X4X",
"..[ F.$.] | } ] ,.F.:.:.[ ] { :.F./ 2.<.| ] 4.F.1.2.6.2./ d.e._ W ' [ E u.r.E Q ' Q W OXr.3.3.3.3.@.;X%.! ! @.@.~ R.%.~ ^ ..X.+.",
"yXyXcX6XqXqX0X0XyXdX0XqX0X1X>XyXwX0X>X1X>X,XyXdX0X0X0X>X,XyXeX#X&X&X;Xj.0X9Xj.&X&X#X#XhX>X:X@X#X#Xk.eX%Xj.f.f.j.g.eXOXa.f.0.9.i.",
"-.&.3.-.-.5Xe.9.d.0.9.9.6XG.-.9.r.r.OX7XG.OX-.e.-.OX5X9.i.u.f.u.%X[.r.e.e.e.r.2X'.r.e.e.e.r.!.6XOXOXOX$XOXtX!.e.!.$X$XF.zX X2X`.",
"@X#Xf.@X#XyX@X#X#X#X0.#X>XOX#X0.a.a.#X3X9.9.9.9.9.@X2X0.a.0.p.0.j.=X0.9.6.9.6.@XG.:.:...:.^ s.d.<.6.6.3.:.$X6.:.<.:.[ W @X-.&.3.",
"2X2XcX5X2X2X5X`.5XzXtXyXyXtX6XtXvX6XyX6X6X6XeXxX6XtX5XtXtXzXxXtXeX6XeX5XxXmXtX6XrXtX6XzXrX2XtXtXtXtXxXeXrXrX5XtXwXxXrX7XzXzXeXrX",
"<.<.$X#.1.:.:.{ 3.F.<.1.1.:.:.4.F.] [ >.<.{ 9.e._ :.:.:.^ 9.-.{ [ :.{ E s.-.{ ..:.:.E $X&.:.......:.$X$...X.X.^ X.!.$.......X...",
"6XyXSXyX0X>X>X>XqXxXqX0X0X1X:X1XcX,X:X:X0X:XyXyX:X>X>X>X$XyXeX:X:X&X:X>XeXyX:X$X:X:X@XyX2X>X:X:X:X:XrX2X$X:X$X:X:XxX!.@XOX@XOX@X",
"OX9.-.9.-.rXOXOXd.OXOX@XtXOX@X@Xd.OX$XtXOX$X@X$XG.$XtX@X@XOXd.OX!.5XOX@X@X$X@X6X}.e.$X$X$XF.tX6XOX$X@X@XG.tX!.OX$X$X$XP.eX2XP.P.",
"f.0.0.4.9.yX9.4.<.3.,.4.!.6.0.6.6.4.4.$X3.9.4.4.3.9.$X:.,.:.<.,.9.+X,.1.<.<.{ #Xr.:.:.:.:.E d.&.E E E E T e.:.R E E E R OX..R E ",
"rX6XtXtXxXdXxXrXyXtXyXxXjXyXrXdXjXxXeXxXxXcXxXeXdXdXxXxXxXdXmXcXxXzXeXdXjXdXeXeXzXzXtXtXyXtXxXtX6X6X6XtXyXrX6X!.>X2X4X!.yX2X$X6X",
"{ { >.>.] ,.[ >.>.] ` } ' ` W | } ` ' | ! Q { ' W W Q ~ ! [ Q ! ! ! ..[ | >.Q ! @.+.! ~ Q ~ ^ ^ #./ / +.+.%.$.$.+.$.$.$.$.;.;.;.",
"qXqXqX>X1X1XqXqX1X,X1X,X1X,X>XqX1X1X1X,X,X1X&X:X:X#X&X&X&X*X#X,X,X:X:X:X#X*X*Xj.j.:Xh.a.i.p.p.u.f.p.9.5.u.f.9.9.6.6.&.9.9.s.9.-.",
"wX|. XSXsXXXrXXXdXSXuX|.'.`.AXoX|..X XSXcX{.zXXXsXAX{.sXzXcXAXXX}.sXzXvXAXsXsXbXzXAXzXXXgXsXvXvX.XuXuXsXmXvXrXxXcXvXAXcXbXvXSXSX",
"E.].W.xXZ.`.`.].7X.XH.W.[.T.xXC.`.}.W.fX(.I.}.J.[.sXL.5X`.7XnXB.P.].J.`.sXV.W.[.`.vXL.P.T.T.kXU.q.D.`.I.nX/.J.].J.W.rXL.S.E./.5X",
"'.{.5XmXZ..XzX XgXzX(.dXnX XcXZ.aXxXtXvXoX/.{.rX7XzX{.tXdXtXvX'.7X{.'.dXbX/.wXdXrXvX].dXtXtXmX'.|.jXnX'.mX/.5XxX5XxXzX].tX X'.xX",
"].}.7XmXZ.wXzX].cXuX}.xXrX}.cXU.aXtX|.CX/.J.dX7X`.zX'.gX`.wXvXK. X.X7XeXsXU.`.rXtXvX/.5XE.'.nX X}.eXeXJ.mX/.5XtX'.tXzXU.}.5X5XxX",
"].5X}.mXZ.rXrX7XmXzX5XcXwX7XxXZ.7XdXwXVX).).7X|.wXsX{.{.}.rXcX/.eXtX|.jXrXJ.].}.5XVX}.}.`.tXcXtX].}. XE.mX/.5XtXtXtXrXU.eXrX].dX",
"K.5X`.mX/.}.`.].nXoXJ.5X'.S.bXC.wXwXW.VX/.E.].|.dXsXH.wX}.}.VXU.tX'.tXdXXXL.E.|.5XAXY.J.eX`.xX XE.}.7X].mXY.`.tXJ.5XzXZ.tXE.J.xX",
"eXnXeXAX'.eXeXdXBXXX[.hXW.[.AX[.kXdXaXDX.X[.aXjXlXcXQ.MXhXkXCX|.hXwXjXCXxXE.hXaXaXAX}.jXhXeXCXrX6X6XjXyXCX}.eXeX2XjXvX5XtXeXeXCX",
"NXxXjXxXCXCXmXCXnXmXZXCXVXZXxXkXNXkXkXfXfXCXkXkXdXdXNXCXnXkXdXnXnXDXnXkXkXnXCXnXkXfXnXVXZXnXnXkXnXNXnXxXeXjXnXBXxXdXeXeXNXVXxXeX",
"6XU.J.tXmXrX[. X7XwXVX`.7XwX|.aX XD.[.7X[.fXq.5XQ.T.2XcXW.J.[.`.5X.XJ.!.E.T.kXJ.W.[.[.[.nXU.].}.E.xXL.E.5X].].dXJ.E.!.L.nXtX].`.",
"5XL./.eXCX'.].}..XrXvX'.|.dXrXnXoXW.dXdX7XvXH.aXwXwXaXcX'.}.nXwXwX.XW.[.E.[.mX'.7XtXwXwXnX/.eX|.`.mXK.tX}.}.tXvX].5X].'.nXrX].].",
"E.E.eXdXVXZ./.dXrXaXxX].rXgX}.mXoXW.fX|.[.cXW.wX5X|.aXcXK.7XrXI.aX{.U.[.`.5XVX'.}.7XwXwXcX`.aX].}.mXL.'.].].].AX]./.'.].xXzXS.'.",
"].5XdX8XmXB.`.nX.X|.zX].`.tX[.bX.X}.aX_.5XbXH.wXwX5XdXsXL.wX|.[.mX'.U.wX|.[.mX'.{.`.wXjXmX'.5X].}.nXZ.].5XL.`.AX].E.E.E.xX}.K.dX",
"5XtXwX].vXC.tXwX_.wXsXH.].rX`.dX X`.[.wXdXvXH.8X5X|.kXXXL.gXgX|.nX'.H.7X`.D.VX).].}.|.rXcXK.5X`.7XvXL.].].].eXAX].].'.`.xXXX5XeX",
"W.wXQ.`.xXY.6X].[.nXzXI.6X5X[.NX'.5X7X5XhXbXI.8XQ.8XjXXXU.aX7XQ.BX/.E.5XW.[.ZX(.5XgX7XaXzXK.wX].5XvXL.5X5XtXeXVXU.E.}.2XcXrX].`.",
"MXMXBXnXBXVXkXBXBXBXNXkXBXBXCXZXkXkXBXZXCXCXBXkXCXkXBXBXkXkXCXBXDXfXjXlXBXZXCXjXkXBXBXNXVXnXjXBXCXmXdXMXlXMXBXZXjXkXlXkXBXmXdXkX",
"`.dXwXeX|.wXjXdXI.7XaX5XeXdX7XaXaX5XkX|.5X[.Q.fXgXQ.Q.[.3XfX[.iX[.aXjXgX4XxX[.Q.iXnX5X6X[.3XkX5X5X7X7XaXnXrXjXeX7XkXdX`.5XwXeXnX",
"D.xXU.}.}.tXwXrXH.gX|.}.fX'.`.}.sX'.gXI.[.`.|.fX{.[.|.Q.wXvXU.`.[.[.gX{.`.dX].E.dXbX7X`.I.Q.VX'.}.`.`.}.vX`.5X].W.dX XI.].J.7XvX",
"wXcX'.sX.X].}.XXI.wX7X{.dXY.}.gXiXV..XY.[.Q.|.NX.X[.gX|.aXbXI.wXW.E.dX{.5XrXJ.E.gXdXrXU.[.7XVX(.'.}.U.}.vXU.`.J.U.mX XE.'.].tXSX",
"`.sXU.|./.].gXXXK.|.W.I.sXY.}.aX`.q.SXI.|.|.gXNX{.}.aXI.[.cXE.[.H.|.aX.X}.}.].U.eXdX}.U.gX[.VXK.].`.U.eXvXU.`./.U.nXoX].].].5XVX",
"`.zXK.`.|.`.dXXXH.`.I.I.xXY.[.rXI.W.SXZ.[.gXgXfX{.[.'.W.|.cXI.[.7XW.gX{.J.}.rXS.dXxXU.(.wXE.nXK.|.V.U.wXcXK.`.`.].nXoXJ./.`.tXVX",
"S.zXB.[.{.L.eXoXB.[.H.I.VXK.}.E.S.[.SXw.iXE.|.kX).S.`.|.fXzXH.aXU.H.dX'.J.7X`.J.cXrXE.|.I.I.vXK.].U.}.dXcXL.D.U.].xX'.V.5X/. XmX",
"3XfXU.fX7X7XBXsX[.jXaXjXVX{.aX5X|.gXbXI.gX[.iXCX)._.aXaXBXsXE.aXT.W.VX{.`.[.}.U.kX.X].W.I.[.nXZ.E.`.`.aXzXL.T.5XP.nX/.U.7XJ.eXVX",
"kXgXNXVXfXNXkXhXkXNXBXNXgXaXBXaXfXgXfXkXkXkXfXfXfXkXkXhXfXkXkXkXkXkXkXkXfXfXNXaXkXsXaXfXhXkXNXdXkXkXdXdXkXwXnXnXcXcXxXjXnXnXBXVX",
"[.E.5XsXI.[..X[.gX(.I..XI.T.sXq.iX|.[.[.gXY.Q.W.`.gX(.I.[.|.Q.gXE.W.[.Q.iXgXW.W.Q.[.nXU.Q.E.W.gXfXU.I.E.W.dX}.D.E.E.W.jXeXwX`.5X",
"|..XdXcXY..XuX{.gX).}.fXuXgXdX(.NX|.I.gXbXZ.|.uX{.fX(.|.gXgX|.fXU.[.{.W.gXuXI..X.XgXfXY.|.Y.}.7XdXY.U.'.U.cX(.U.].S.].NXE.E.J.`.",
"7X|.|..XI.gXuX`.gX'._.gXgXQ..XY.gXH.Y.|.uXH.uXfX'.fX.X`..XsXY.nXV.{.`.I.fX{.I.7X7X'.fXU.E.|._.`.cXV.`.'.U.nX].E.K.`.5XnXK.U.J.}.",
"`.'.7XoXI.gX|.E.|.).E.gX|.W..XV.|.W.Y.[.uXH.|.uXY.fX(.B.gXW.I.cXV..XW.T.BX'.U.gXgX`.cXK.{.W.S.gXzXV..XL.'.mXU.U.J.{.5XnX/.J./.`.",
"B.W.Q.{.V.gX(.I.sXK.I.(.I.[..XB.|.W.H.gXuXZ.|.|.U.CXZ.Z..XE.(.fXC.|.E.{.BX(.U.aX}.Y.cXY.5XI.].gXsXK.`.U.W.xX{.V.].5XE.tXJ.K.`.`.",
"Y.[.gX(.q.U.J.T.fXZ.I.W.|.|..XB.|._.W.gXoXZ.|.|.|.ZXC.Y.aXgX'.sXw.uXQ.`.fXY.S.|.I.W.NXZ.W.U.[.7XsXC.'.(.].VXK.L.`.`.S.cXL.J.].].",
"gX|.gX.XW.gX|..XdX{.gXgXfXcXuX{.fXgXuXfXuX|.|.uX|.fX{.gXfXgXgXsX(.gX|.|.fXoX[.|.{.gXfXY.`.}.}.|. X(.}.}.|.dX/.'.7X].E.dXK.`.'.E."
};
