/* XPM */
static char *_d8619fa91b146139e74b5d4da831d2fsnYfYYNQFoVhXBIa[] = {
/* columns rows colors chars-per-pixel */
"32 32 147 2 ",
"   c None",
".  c black",
"X  c #020103",
"o  c #040204",
"O  c #070306",
"+  c #060207",
"@  c #080202",
"#  c #090509",
"$  c #090609",
"%  c #0C070B",
"&  c #0A070C",
"*  c #0D070C",
"=  c #0D080B",
"-  c #0E080C",
";  c #0F090D",
":  c #0E090E",
">  c #10090E",
",  c #100A0E",
"<  c #110A0E",
"1  c #110A0F",
"2  c #120A0F",
"3  c #1A0F16",
"4  c #1B0F17",
"5  c #1C0F18",
"6  c #061018",
"7  c #0A141B",
"8  c #0A171F",
"9  c #0B171F",
"0  c #16161D",
"q  c #1F121B",
"w  c #220B0D",
"e  c #250D0F",
"r  c #2A0B0E",
"t  c #2B0F11",
"y  c #2D1012",
"u  c #2F1012",
"i  c #2A1418",
"p  c #301013",
"a  c #301113",
"s  c #31141A",
"d  c #34151B",
"f  c #331B1D",
"g  c #341B1D",
"h  c #351B1D",
"j  c #341B1E",
"k  c #241420",
"l  c #271722",
"z  c #271723",
"x  c #291823",
"c  c #2A1825",
"v  c #2B1925",
"b  c #2B1926",
"n  c #2C1926",
"m  c #2C1A26",
"M  c #2D1A27",
"N  c #2D1A28",
"B  c #331B27",
"V  c #341E2D",
"C  c #351E2E",
"Z  c #341F2E",
"A  c #351F2E",
"S  c #351F2F",
"D  c #361F2F",
"F  c #2F2F2E",
"G  c #32232F",
"H  c #36202F",
"J  c #37202F",
"K  c #332B2B",
"L  c #332B2C",
"P  c #332C2D",
"I  c #352D2D",
"U  c #2F2E31",
"Y  c #392032",
"T  c #3A2232",
"R  c #3B2233",
"E  c #3C2334",
"W  c #322E32",
"Q  c #313130",
"!  c #5E2A2E",
"~  c #5E2B2F",
"^  c #44273B",
"/  c #792C33",
"(  c #1B384C",
")  c #323F47",
"_  c #214963",
"`  c #234963",
"'  c #305570",
"]  c #5B4345",
"[  c #45465C",
"{  c #7C7E7E",
"}  c #812E36",
"|  c #822F37",
" . c #802F38",
".. c #833138",
"X. c #87424F",
"o. c #A5585F",
"O. c #A65960",
"+. c #A95A61",
"@. c #AA5B62",
"#. c #B55E65",
"$. c #B65E66",
"%. c #B75E66",
"&. c #B65F66",
"*. c #B3656C",
"=. c #275C80",
"-. c #285C80",
";. c #2B6185",
":. c #2C6186",
">. c #5B6885",
",. c #4B718C",
"<. c #577692",
"1. c #537A94",
"2. c #537B96",
"3. c #B77584",
"4. c #7C91A5",
"5. c #7695A8",
"6. c #828483",
"7. c #87969E",
"8. c #A28B8D",
"9. c #A38C8E",
"0. c #A88E90",
"q. c #A98F90",
"w. c #B1ABAC",
"e. c #B1A6B1",
"r. c #BDAFB7",
"t. c #DA8E97",
"y. c #E1939A",
"u. c #E3959C",
"i. c #E5969D",
"p. c #D29DA1",
"a. c #D29DA2",
"s. c #CEB5B7",
"d. c #C4B3BC",
"f. c #ACBAC3",
"g. c #ACBDC5",
"h. c #B7C2C8",
"j. c #B7C6CC",
"k. c #DCC2C4",
"l. c #DFC7C8",
"z. c #DFC8C9",
"x. c #CCD3D5",
"c. c #DDD5D5",
"v. c #DED7D6",
"b. c #DCD7D8",
"n. c #E0C8CA",
"m. c #E1C9CA",
"M. c #E3CACC",
/* pixels */
"                                                                ",
"                                                                ",
"                                                                ",
"                                                                ",
"                                                                ",
"                                                                ",
"                    . . . .         . . . .                     ",
"                    < - o .         . o - -                     ",
"                . - m x * .         . - x m - .                 ",
"                - 3 N m < .         . < m N 3 <                 ",
"            . < c m 5 -                 - 5 m x < .             ",
"            . 1 S S < .                 . < S S 1 .             ",
"            . 1 S D - .     . . . . . . . 1 H S 1 .             ",
"            . < D R q *     t f L P j e @ - H S 1 .             ",
"            . < V ^ R l + r } O.8.9.O./ w & D J 1 .             ",
"            . < D ^ R G U ] *.y.m.m.u.%.! s B l * .             ",
"            . < D Y 5 W { w.s.k.c.c.z.a.*.} d & . .             ",
"            . < x l o K q.M.v.x.h.f.g.r.t.@.h . . .             ",
"                < & . j +.i.n.h.5.2.2.4.d.q.I .                 ",
"                . . . a } %.p.e.<.=.-.,.7.6.Q .                 ",
"                        t ! *.3.>.;.:.' ) P                     ",
"                        . u | X.[ _ ` ( 6 .                     ",
"                            a i 0 8 8 7                         ",
"                            . . . . . .                         ",
"                                                                ",
"                                                                ",
"                                                                ",
"                                                                ",
"                                                                ",
"                                                                ",
"                                                                ",
"                                                                "
};
