/* XPM */
static char *_3377a425d904d24b5b0924b78ce6a5eUKftRuqQT1EAgQE0[] = {
/* columns rows colors chars-per-pixel */
"32 32 135 2 ",
"   c None",
".  c #2E1F17",
"X  c #27181B",
"o  c #2A1B1C",
"O  c #2F2017",
"+  c #322415",
"@  c #372914",
"#  c #392B15",
"$  c #32231C",
"%  c #3A2D18",
"&  c #3E3117",
"*  c #160525",
"=  c #180724",
"-  c #1C0C22",
";  c #1F1021",
":  c #200E25",
">  c #211121",
",  c #2D1C24",
"<  c #332224",
"1  c #3D2C21",
"2  c #6B0C0A",
"3  c #70110C",
"4  c #7E1C11",
"5  c #433711",
"6  c #4B3D14",
"7  c #43341A",
"8  c #473819",
"9  c #4B3C1A",
"0  c #4E4114",
"q  c #4F4118",
"w  c #514217",
"e  c #5C4E15",
"r  c #534419",
"t  c #5E5016",
"y  c #5E511B",
"u  c #695817",
"i  c #62541B",
"p  c #6C5C1D",
"a  c #715A1F",
"s  c #6E601A",
"d  c #72651E",
"f  c #78621D",
"g  c #76681D",
"h  c #7D681D",
"j  c #5A4422",
"k  c #665621",
"l  c #6B5C21",
"z  c #746620",
"x  c #7C6C22",
"c  c #7F7020",
"v  c #8F2917",
"b  c #912D19",
"n  c #9F381E",
"m  c #A0381E",
"M  c #883F23",
"N  c #A03920",
"B  c #816C1D",
"V  c #80701F",
"C  c #8E751F",
"Z  c #8B4426",
"A  c #904526",
"S  c #944D29",
"D  c #9F522C",
"F  c #A64224",
"G  c #B14A2A",
"H  c #A6512A",
"J  c #AA592E",
"K  c #B4502C",
"L  c #837321",
"P  c #8E7620",
"I  c #8A7B25",
"U  c #907B23",
"Y  c #9E6434",
"T  c #B66232",
"R  c #AE7034",
"E  c #B27437",
"W  c #B4753C",
"Q  c #C2663B",
"!  c #C3693D",
"~  c #978627",
"^  c #998727",
"/  c #93832A",
"(  c #9E8E2A",
")  c #9F9030",
"_  c #A2922D",
"`  c #A49333",
"'  c #AC9C33",
"]  c #BE9F3F",
"[  c #B1A136",
"{  c #B5A53A",
"}  c #BCAC3E",
"|  c #BBAB44",
" . c #C28F4A",
".. c #C29E42",
"X. c #C3AE49",
"o. c #CCAC4B",
"O. c #C2B241",
"+. c #C9BA46",
"@. c #C5B64B",
"#. c #CABB4B",
"$. c #C6A555",
"%. c #C7AA53",
"&. c #CCAB54",
"*. c #C9AB58",
"=. c #D2AE55",
"-. c #D1AD59",
";. c #C7B250",
":. c #CEB156",
">. c #CEBA51",
",. c #D0B457",
"<. c #D0BC52",
"1. c #D2B15A",
"2. c #D3BB5F",
"3. c #CFC14E",
"4. c #D2C44D",
"5. c #CFC058",
"6. c #D1C350",
"7. c #D5CA53",
"8. c #DACE57",
"9. c #D1C458",
"0. c #D1C45A",
"q. c #D6C95B",
"w. c #D7C95B",
"e. c #D6C85B",
"r. c #D8CB5C",
"t. c #D8CC5C",
"y. c #DBCF5F",
"u. c #D9CD62",
"i. c #DBCE63",
"p. c #DCD064",
"a. c #DDD064",
"s. c #DED164",
"d. c #E2D967",
"f. c #EAE76E",
"g. c #EAE86E",
/* pixels */
"                                                                ",
"                                                                ",
"                                    0 0 0 0 0 & > *             ",
"                                    e t t t e q $ - =           ",
"                            0 0 6 e g L L c h u w $ = *         ",
"                            e y t d / _ ( ^ I c u 9 % , :       ",
"                    @ # 5 e g L / ) [ { [ _ ^ C B f a j , *     ",
"                    6 r y z / ' { @.3.#.} [ _ ^ U P C a 1 >     ",
"                @ 9 p L / ` { @.9.u.i.w.#.} [ _ ~ U C f w %     ",
"                9 y I ' | @.] ..=.1.-.:.<.+.| ' _ ~ U h t 6     ",
"            + 9 p I ` | 0.&.R J J T J W :.w.#.} ' _ ^ x t 6     ",
"            9 i I ` | ;.:. .H N G G n J -.s.#.O.{ ' ( L r %     ",
"        @ 9 s I ` | 0.&.W H F G ! ! G T =.d.<.O.{ ' ( x 1 :     ",
"        9 i I _ { @.i.&.D b n G ! ! G T ,.y.4.O.[ _ I l < *     ",
"    @ 6 p I ) [ | >.s.$.Z 4 b N K G m J o.8.4.} ' I s r $       ",
"    @ w h ( ' { O.6.s.$.M 3 v v m F H E o.4.+.{ _ x w %         ",
"    # q h ( ' { O.6.s.$.M 2 3 4 v H  .:.#.+.| ' _ z 1 >         ",
"    O 8 x ( ' { O.#.r.*.Y Z Z S H W ,.t.#.} [ _ / l < *         ",
"    = 1 z ( ' { O.#.#.>.%.*.2.2.1.:.<.#.} ' _ I p r $           ",
"    * , i / _ [ } O.O.+.q.d.g.g.d.q.+.} [ ' ( x w #             ",
"    * > 7 i I _ [ { { } #.6.7.7.6.#.} [ [ ' _ x 1 -             ",
"    * - X 7 p I _ ' ' ' } O.O.O.O.} ' ' ' _ I k < *             ",
"    * = = o 7 i I ( ( _ ' { { [ { ' ` ( ( L i 8 o               ",
"    * * * - o 7 p L h I ( ' ' ' ' ( I c c p 7 .                 ",
"    * = * = - , 7 q q i I ( ( ( ( I i q q 7 , -                 ",
"    = * * * * - o O O 7 p c c c c p 7 . O o - *                 ",
"      = * * * = - - - , 7 w w w q 7 o - - - =                   ",
"        = * * * * * * - o O + O O o - * * =                     ",
"          * = * * * * = - - ; - ; - = * *                       ",
"            * = = * * = * * * * * * * *                         ",
"              = * = = * * * * * * = *                           ",
"                = * * = * = * = * *                             "
};
