/* XPM */
static char *_0a3cc0365f74aa3ae5bb59cfcc40176J8Fd9rqwMp0Htjuw[] = {
/* columns rows colors chars-per-pixel */
"32 32 119 2 ",
"   c None",
".  c black",
"X  c #020001",
"o  c #000204",
"O  c #040204",
"+  c #080202",
"@  c #090407",
"#  c #080508",
"$  c #090508",
"%  c #0D0509",
"&  c #0C070B",
"*  c #0D070B",
"=  c #0F070C",
"-  c #0A0B0B",
";  c #0E090E",
":  c #10090E",
">  c #110A0F",
",  c #120A0F",
"<  c #030D12",
"1  c #071016",
"2  c #0B171F",
"3  c #16161D",
"4  c #220B0D",
"5  c #250C0E",
"6  c #2C0C0F",
"7  c #2B0E11",
"8  c #2F0F12",
"9  c #2E1013",
"0  c #2E1113",
"q  c #2A1418",
"w  c #301114",
"e  c #331B1D",
"r  c #341B1D",
"t  c #351C1E",
"y  c #0B1720",
"u  c #251621",
"i  c #271622",
"p  c #281722",
"a  c #2A1925",
"s  c #351E2D",
"d  c #351F2E",
"f  c #351F2F",
"g  c #361F2E",
"h  c #361F2F",
"j  c #222625",
"k  c #262727",
"l  c #36202F",
"z  c #37202F",
"x  c #35242F",
"c  c #332B2C",
"v  c #362D2D",
"b  c #362D2E",
"n  c #352F32",
"m  c #363134",
"M  c #5C292E",
"N  c #5F2B30",
"B  c #792C33",
"V  c #193548",
"C  c #324048",
"Z  c #224963",
"A  c #234A64",
"S  c #305671",
"D  c #5C4446",
"F  c #45465C",
"G  c #787B7A",
"H  c #802F36",
"J  c #822E36",
"K  c #853239",
"L  c #87424F",
"P  c #A5585F",
"I  c #A85A61",
"U  c #AA5B62",
"Y  c #B35C64",
"T  c #B45D65",
"R  c #B65E66",
"E  c #B86067",
"W  c #B4666D",
"Q  c #275B80",
"!  c #285C80",
"~  c #2B6185",
"^  c #2C6186",
"/  c #5B6885",
"(  c #4B728D",
")  c #577692",
"_  c #537A94",
"`  c #537B96",
"'  c #B77584",
"]  c #7C91A5",
"[  c #7695A8",
"{  c gray51",
"}  c #A28B8D",
"|  c #A98F91",
" . c #AB9092",
".. c #8998A0",
"X. c #B1ABAC",
"o. c #B1A6B1",
"O. c #BDAFB7",
"+. c #DA8E97",
"@. c #E1939A",
"#. c #E3959C",
"$. c #E5969D",
"%. c #D19CA1",
"&. c #D39EA2",
"*. c #CEB5B7",
"=. c #C4B3BC",
"-. c #ACBAC3",
";. c #ACBDC5",
":. c #B7C2C8",
">. c #B7C6CC",
",. c #DCC2C4",
"<. c #DFC7C8",
"1. c #DFC8C9",
"2. c #CCD3D5",
"3. c #DDD5D5",
"4. c #DED7D7",
"5. c #DCD7D8",
"6. c #E0C8CA",
"7. c #E1C9CA",
"8. c #E3CACC",
/* pixels */
"                                                                ",
"                                                                ",
"                                                                ",
"                                                                ",
"                                                                ",
"                                                                ",
"                                                                ",
"                                                                ",
"                            . . . . . .                         ",
"                            8 e c c t w                         ",
"                    . . . 6 J I } } P B 7 .                     ",
"                    . - j D W @.7.7.#.R M 7                     ",
"                . . . k G X.*.,.3.3.7.%.Y J 9 .                 ",
"                > $ . b | 8.5.2.:.-.;.O.+.U e .                 ",
"            . > a u $ t U $.1.>.[ ` ` ] =. .b . . .             ",
"            . > d d ; 5 B R &.o.) Q Q ( ..{ m $ . .             ",
"            . , h h , + 4 N E ' / ~ ~ S C n x p * .             ",
"            . , d l , . . 0 K L F Z A V < * d g > .             ",
"            . , d d , .     w q 3 2 2 1 o = d h > .             ",
"            . , d d , .     . . . . . . . , z d > .             ",
"            . , d d , .                 . > d d > .             ",
"            . , h h , .                 . > h z > .             ",
"            . , h l , .                 . > z d > .             ",
"            . > a p * .                 . * p a > .             ",
"                > $ O .                 . O * >                 ",
"                . . . .                 . . . .                 ",
"                                                                ",
"                                                                ",
"                                                                ",
"                                                                ",
"                                                                ",
"                                                                "
};
