/* XPM */
static char *_3161c91ea2d43c6ac27ff2021b40bbfMf2gbhHZfX7zPhdG[] = {
/* columns rows colors chars-per-pixel */
"32 32 136 2 ",
"   c None",
".  c black",
"X  c #040204",
"o  c #070306",
"O  c #060307",
"+  c #060509",
"@  c #090509",
"#  c #0C070B",
"$  c #0D070B",
"%  c #0D080C",
"&  c #0E080C",
"*  c #0E080D",
"=  c #0F080D",
"-  c #0F090D",
";  c #0E090E",
":  c #0F090E",
">  c #10090E",
",  c #110A0E",
"<  c #110A0F",
"1  c #1C0F18",
"2  c #061018",
"3  c #0A141B",
"4  c #0A171F",
"5  c #0B171F",
"6  c #16161D",
"7  c #1E111A",
"8  c #1F121B",
"9  c #2A0B0E",
"0  c #2A0E10",
"q  c #2B0F11",
"w  c #2D1012",
"e  c #2F1012",
"r  c #2F1013",
"t  c #2A1418",
"y  c #301013",
"u  c #301113",
"i  c #301319",
"p  c #34151B",
"a  c #331B1D",
"s  c #341B1D",
"d  c #351B1D",
"f  c #251420",
"g  c #271723",
"h  c #281722",
"j  c #271824",
"k  c #291823",
"l  c #291824",
"z  c #2A1825",
"x  c #2A1925",
"c  c #331B27",
"v  c #351F2E",
"b  c #351F2F",
"n  c #361F2F",
"m  c #2F2F2E",
"M  c #32232F",
"N  c #36202F",
"B  c #332B2B",
"V  c #332B2C",
"C  c #352D2D",
"Z  c #2F2E31",
"A  c #362030",
"S  c #3A2032",
"D  c #3A2132",
"F  c #3B2133",
"G  c #3A2232",
"H  c #3B2233",
"J  c #3C2334",
"K  c #322E32",
"L  c #313130",
"P  c #5C292E",
"I  c #5E2B2F",
"U  c #44273B",
"Y  c #45283C",
"T  c #7E2F37",
"R  c #1B384C",
"E  c #323F47",
"W  c #214963",
"Q  c #234963",
"!  c #305570",
"~  c #5B4345",
"^  c #45465C",
"/  c #7C7E7E",
"(  c #812F36",
")  c #822E36",
"_  c #822F37",
"`  c #833138",
"'  c #87424F",
"]  c #A5585F",
"[  c #A95A61",
"{  c #AA5B62",
"}  c #B45D64",
"|  c #B55E65",
" . c #B65F66",
".. c #B3656C",
"X. c #275C80",
"o. c #285C80",
"O. c #2B6185",
"+. c #2C6186",
"@. c #5B6885",
"#. c #4B718C",
"$. c #577692",
"%. c #537A94",
"&. c #537B96",
"*. c #B77584",
"=. c #7C91A5",
"-. c #7695A8",
";. c #828483",
":. c #87969E",
">. c #A28B8D",
",. c #A88E90",
"<. c #A98F90",
"1. c #B1ABAC",
"2. c #B1A6B1",
"3. c #BDAFB7",
"4. c #DA8E97",
"5. c #E1939A",
"6. c #E3959C",
"7. c #E5969D",
"8. c #D19DA1",
"9. c #D29DA1",
"0. c #CEB5B7",
"q. c #C4B3BC",
"w. c #ACBAC3",
"e. c #ACBDC5",
"r. c #B7C2C8",
"t. c #B7C6CC",
"y. c #DCC2C4",
"u. c #DFC7C8",
"i. c #DFC8C9",
"p. c #CCD3D5",
"a. c #DDD5D5",
"s. c #DED7D7",
"d. c #DCD7D8",
"f. c #E0C8CA",
"g. c #E1C9CA",
"h. c #E3CACC",
/* pixels */
"                                                                ",
"                                                                ",
"                                                                ",
"                                                                ",
"                                                                ",
"                                                                ",
"                                                                ",
"                                                                ",
"            . . . .                         . . . .             ",
"            < $ X .                         . X # <             ",
"        . < x h $ .                         . $ g x < .         ",
"        . < v A < .                         . < v v < .         ",
"        . < v v < . . .     . . . . . .     . < v v < .         ",
"        . < N D 7 < < -     q a V V a r     - 7 J v < .         ",
"        . < v U D N v h X 9 _ [ >.>.] _ 0 + j J Y v < .         ",
"        . - k D U U D M K ~ ..5.i.g.6.| P i c A v l < .         ",
"            & 7 F S 1 K / 1.0.y.a.a.g.8.| T p - - -             ",
"            . - l g X B <.h.a.p.r.w.e.3.4.{ s . . .             ",
"                < # . s [ 7.f.t.-.&.&.=.q.<.C .                 ",
"                . . . y _ | 8.2.$.X.X.#.:.;.L .                 ",
"                        w I ..*.@.O.+.! E V                     ",
"                        . w ) ' ^ W Q R 2 .                     ",
"                            u t 6 4 4 3                         ",
"                            . . . . . .                         ",
"                                                                ",
"                                                                ",
"                                                                ",
"                                                                ",
"                                                                ",
"                                                                ",
"                                                                ",
"                                                                "
};
