/* XPM */
static char *_8cebac5c5814458baebb7bce299e16cuXtBkUs7v0tws8uC[] = {
/* columns rows colors chars-per-pixel */
"32 32 141 2 ",
"   c None",
".  c black",
"X  c #030102",
"o  c #030203",
"O  c #070306",
"+  c #080202",
"@  c #0A0304",
"#  c #0A0206",
"$  c #090408",
"%  c #090509",
"&  c #0C070A",
"*  c #0D060B",
"=  c #0C070C",
"-  c #0E070C",
";  c #090B0B",
":  c #0D080D",
">  c #0E080C",
",  c #0E080D",
"<  c #0F090D",
"1  c #10090E",
"2  c #110A0E",
"3  c #110A0F",
"4  c #1C0F18",
"5  c #041017",
"6  c #09141C",
"7  c #0A171F",
"8  c #0B171F",
"9  c #16161D",
"0  c #1E111A",
"q  c #1F121B",
"w  c #220B0D",
"e  c #230C0E",
"r  c #250C0E",
"t  c #260D0F",
"y  c #2C0C0F",
"u  c #2C0F11",
"i  c #2F0F12",
"p  c #2E1013",
"a  c #2F1013",
"s  c #2A1418",
"d  c #301113",
"f  c #331B1D",
"g  c #351B1D",
"h  c #361C1E",
"j  c #251420",
"k  c #261521",
"l  c #271722",
"z  c #291723",
"x  c #291823",
"c  c #2A1824",
"v  c #2A1825",
"b  c #2A1925",
"n  c #2B1925",
"m  c #321D2D",
"M  c #321E2D",
"N  c #341D2D",
"B  c #341E2D",
"V  c #351E2E",
"C  c #351F2E",
"Z  c #361F2F",
"A  c #222626",
"S  c #252626",
"D  c #35242F",
"F  c #332B2C",
"G  c #342C2D",
"H  c #352D2D",
"J  c #392032",
"K  c #3A2232",
"L  c #3A2233",
"P  c #3B2233",
"I  c #3C2334",
"U  c #332E31",
"Y  c #353033",
"T  c #5D2A2F",
"R  c #44273B",
"E  c #44283C",
"W  c #492A3F",
"Q  c #5F2B30",
"!  c #792C33",
"~  c #1B384D",
"^  c #313F47",
"/  c #492A40",
"(  c #214963",
")  c #234963",
"_  c #305670",
"`  c #5C4446",
"'  c #45465C",
"]  c #777B7A",
"[  c #822E36",
"{  c #822F37",
"}  c #853138",
"|  c #87424F",
" . c #A5585F",
".. c #AA5A61",
"X. c #AB5B62",
"o. c #B45D65",
"O. c #B65E66",
"+. c #B86067",
"@. c #B4666D",
"#. c #275C80",
"$. c #285C80",
"%. c #2B6185",
"&. c #2C6186",
"*. c #5B6885",
"=. c #4B728C",
"-. c #577692",
";. c #537A94",
":. c #537B96",
">. c #B77584",
",. c #7C90A5",
"<. c #7695A8",
"1. c #808080",
"2. c #88969E",
"3. c #A28B8D",
"4. c #A88F91",
"5. c #AB9192",
"6. c #B1ABAC",
"7. c #B1A6B1",
"8. c #BDAFB7",
"9. c #DA8E97",
"0. c #E1939A",
"q. c #E3959C",
"w. c #E5969D",
"e. c #D29DA1",
"r. c #D39EA2",
"t. c #CEB5B7",
"y. c #C4B3BB",
"u. c #ACBAC3",
"i. c #ACBDC5",
"p. c #B7C2C8",
"a. c #B7C6CC",
"s. c #DCC2C4",
"d. c #DFC7C8",
"f. c #DFC8C9",
"g. c #CCD3D5",
"h. c #DDD5D5",
"j. c #DED7D7",
"k. c #DCD7D8",
"l. c #E0C8CA",
"z. c #E1C9CA",
"x. c #E3CACC",
/* pixels */
"                                                                ",
"                                                                ",
"                                                                ",
"                                                                ",
"                                                                ",
"                                                                ",
"                                                                ",
"                                                                ",
"                                                                ",
"                                                                ",
"                            . . . . . .                         ",
"                            u f F F f a                         ",
"                . . . . . u [ ..3.3. .{ u . . .                 ",
"                > & . ; S ` @.0.l.l.w.o.T t @ .                 ",
"            . > n k % S ] 6.t.s.j.j.l.e.o.! t . . .             ",
"            > 0 L N * G 4.x.k.g.p.u.i.8.9.X.h . % 1             ",
"        . 1 x K E m = h X.w.f.a.<.:.:.<.8.3.U o s A 1 .         ",
"        . 1 D / W m > t ! o.e.7.-._ #.=.<.>.Y 9 J D 3 .         ",
"        . 1 N W / N 1 + e Q +.>.*.&.&._ ^ U D L R N 3 .         ",
"        . 1 N E K n > . . a } | ' ( ( ~ 5 @ z I R m 1 .         ",
"        . 3 J K q >         d s 9 7 7 7     > q K J 3 .         ",
"        . 1 n k : .         . . . . . .     . * k n 1 .         ",
"            1 > . .                         . o & 1             ",
"            . . . .                         . . . .             ",
"                                                                ",
"                                                                ",
"                                                                ",
"                                                                ",
"                                                                ",
"                                                                ",
"                                                                ",
"                                                                "
};
