/* XPM */
static char *c735720aae5d4ddc9329e655809bb073fuK8bVSq51Hpqwzt[] = {
/* columns rows colors chars-per-pixel */
"32 32 71 1 ",
"  c #4F3F47",
". c #594448",
"X c #6D4D4B",
"o c #78514C",
"O c #77514C",
"+ c #594348",
"@ c #504047",
"# c #514047",
"$ c #614749",
"% c #704E4B",
"& c #714F4C",
"* c #65494B",
"= c #5B454A",
"- c #544148",
"; c #75504C",
": c #79524E",
"> c #7D5552",
", c #735050",
"< c #5C454A",
"1 c #503F47",
"2 c #76514C",
"3 c #7E544F",
"4 c #8A5B55",
"5 c #7F5654",
"6 c #60474B",
"7 c #4F3F46",
"8 c #7D544F",
"9 c #7F5653",
"0 c #895B55",
"q c #7E5653",
"w c #5F474B",
"e c #76504C",
"r c #7B534E",
"t c #825751",
"y c #8B5C56",
"u c #835852",
"i c #8E5E57",
"p c #6F4D48",
"a c #734F4A",
"s c #7A534D",
"d c #815751",
"f c #8A5C56",
"g c #8C5C56",
"h c #855953",
"j c #74504E",
"k c #5C4549",
"l c #5F4441",
"z c #6A4A46",
"x c #7F5550",
"c c #8E5E58",
"v c #704D49",
"b c #604544",
"n c #554246",
"m c #55403F",
"M c #604644",
"N c #76514D",
"B c #805651",
"V c #815651",
"C c #544041",
"Z c #524045",
"A c #574245",
"S c #614644",
"D c #664844",
"F c #574244",
"G c #514045",
"H c #514046",
"J c #514048",
"K c #564040",
"L c #58403D",
"P c #57403D",
"I c white",
/* pixels */
" .XooOOOOOOOOOOOOOOOOOOOOooX+ @#",
".$%oOOOOOOOOOOOOOOOOOOOOOOo&*=-#",
"X%;OOOOOOOOOOOOOOOOOOOOOOOO:>,<1",
"ooOOOOOOOOOOOOOOOOOOOOOOOO234567",
"oOOOOOOOOOOOOOOOOOOOOOOOOO284967",
"OOOOOOOOOOOOOOOOOOOOOOOOOO280qw ",
"OOOOOOOOOOOOOOOOOOOOOOOOOO280qw ",
"OOOOOOOOOOOOOOOOOOOOOOOOOO280qw ",
"OOOOOOOOOOOOOOOOOOOOOOOOOO280qw ",
"OOOOOOOOOOOOOOOOOOOOOOOOOO280qw ",
"OOOOOOOOOOOOOOOOOOOOOOOOOO280qw ",
"OOOOOOOOOOOOOOOOOOOOOOOOOO280qw ",
"OOOOOOOOOOOOOOOOOOOOOOOOOO280qw ",
"OOOOOOOOOOOOOOOOOOOOOOOOOO280qw ",
"OOOOOOOOOOOOOOOOOOOOOOOOOO280qw ",
"OOOOOOOOOOOOOOOOOOOOOOOOOO280qw ",
"OOOOOOOOOOOOOOOOOOOOOOOOOO280qw ",
"OOOOOOOOOOOOOOOOOOOOOOOOOO280qw ",
"OOOOOOOOOOOOOOOOOOOOOOOOOO280qw ",
"OOOOOOOOOOOOOOOOOOOOOOOOOO280qw ",
"OOOOOOOOOOOOOOOOOOOOOOOOOO280qw ",
"OOOOOOOOOOOOOOOOOOOOOOOOOO280qw ",
"OOOOOOOOOOOOOOOOOOOOOOOOOO280qw ",
"OOOOOOOOOOOOOOOOOOOOOOOOOO280qw ",
"OOOOOOOOOOOOOOOOOOOOOOOOOOe80qw ",
"OOOOOOOOOOOOOOOOOOOOOOOOOorty967",
"oOO222222222222222222222eruyi967",
"pas8888888888888888888888dfghjk1",
"lzx4400000000000000000000ychvbn@",
"mMNddBBBBBBBBBBBBBBBBBBBBVd2bCZ#",
"ZASDDDDDDDDDDDDDDDDDDDDDDDDSFGH#",
"JZKLPPPPPPPPPPPPPPPPPPPPPPLKZ###"
};
