/* XPM */
static char *baf284c31a9b4383a39824a3cdd34e89wgSuVPQbzcK538vq[] = {
/* columns rows colors chars-per-pixel */
"32 32 12 1 ",
"  c None",
". c #20444F",
"X c #2F6878",
"o c #9B1A0A",
"O c #BD1332",
"+ c #AB561D",
"@ c #F2AC29",
"# c #E3936B",
"$ c #3C9F9C",
"% c #66D1A6",
"& c #F5C187",
"* c #F5DDA6",
/* pixels */
"             @ @ @              ",
"             @@@@@              ",
"             @###@              ",
"         ****+.&.+***           ",
"        *****+&&&+****          ",
"      %%%%**++&+&++*%%%         ",
"     %$$$$X*..+++.*X$$$%        ",
"    %$$$$XXX.%%%%%.XX$$$%       ",
"    %$$$XXX.%%%%%%%.XX$$$       ",
"    XXXXXX.$$$$$$$$$.XXXX       ",
"     OO....$$$$$$$$$....o       ",
"     OO....XXXXX&&XX....o       ",
"     OOO...XXXXX@&$X....o       ",
"     OOO....XXXX@X$%%..oo       ",
"     OOOO..%%%%&&XX$$%%oo       ",
"     OOOO.$$$$$&&XXX$$$oo       ",
"     OOOOO.$$$@@@@@..$$oo       ",
"     OOOOOO....%$%...oooo       ",
"     OOOOOO....%$%...oooo       ",
"     OOOOOO....%$%...oooo       ",
"     OOOOOO....%$%...oooo       ",
"     OOOOO.....%$*...oooo       ",
"     OOOOO.....%**...oooo       ",
"     OOOOO.....***...oooo       ",
"     OOOOOXX...***.XXoooo       ",
"     OOOOOXXXXo***XXXoooo       ",
"     OOOOOOXXXo***XXXoooo       ",
"     OOOOOOXXoo***oXXoooo       ",
"     OOOOOOXXoo**%oXXoooo       ",
"    OOOOOOOXXoo*$%oXXooooo      ",
"   OOOOOOO$$Xoo%$%oX$$ooooo     ",
"    ......................      "
};
