/* XPM */
static char *b0014e4816fe478bc40360b4f0633a16lLVXWkuXOK6tINhW[] = {
/* columns rows colors chars-per-pixel */
"32 32 173 2 ",
"   c #434F65",
".  c #434F66",
"X  c #3F4A5F",
"o  c #374153",
"O  c #333C4D",
"+  c #333C4E",
"@  c #434F64",
"#  c #434E63",
"$  c #434D63",
"%  c #424E64",
"&  c #4A576E",
"*  c #596782",
"=  c #616F8C",
"-  c #61708C",
";  c #616F8B",
":  c #606F8B",
">  c #4E5B74",
",  c #667594",
"<  c #7181A2",
"1  c #6E7E9E",
"2  c #6C7C9C",
"3  c #6A7A9A",
"4  c #677795",
"5  c #6D7D9E",
"6  c #7080A1",
"7  c #7182A2",
"8  c #4F5C74",
"9  c #677694",
"0  c #6E7F9F",
"q  c #657595",
"w  c #607090",
"e  c #617090",
"r  c #5C6B89",
"t  c #53607A",
"y  c #52607A",
"u  c #7282A3",
"i  c #404B60",
"p  c #3E495E",
"a  c #47536A",
"s  c #586681",
"d  c #5D6B87",
"f  c #54627E",
"g  c #4F5D78",
"h  c #515F7B",
"j  c #53627E",
"k  c #4E5C77",
"l  c #414D63",
"z  c #4B5771",
"x  c #374053",
"c  c #3A4458",
"v  c #404C61",
"b  c #3A4357",
"n  c #3F495E",
"m  c #414B60",
"M  c #3E485D",
"N  c #3C465B",
"B  c #3F4A60",
"V  c #465269",
"C  c #445067",
"Z  c #3B4559",
"A  c #374154",
"S  c #3A4459",
"D  c #424C61",
"F  c #424D62",
"G  c #434E64",
"H  c #434D62",
"J  c #424C62",
"K  c #62708D",
"L  c #49566D",
"P  c #596681",
"I  c #6B7B9B",
"U  c #7081A1",
"Y  c #657492",
"T  c #4D5A72",
"R  c #657592",
"E  c #606F8F",
"W  c #606F8E",
"Q  c #657494",
"!  c #667592",
"~  c #5A6988",
"^  c #5F6E8D",
"/  c #677797",
"(  c #61708D",
")  c #4C5971",
"_  c #4A576F",
"`  c #5C6A86",
"'  c #637290",
"]  c #5D6C8B",
"[  c #5E6E8D",
"{  c #596888",
"}  c #5A6989",
"|  c #5A6A89",
" . c #5C6C8B",
".. c #5F6F8E",
"X. c #596885",
"o. c #455168",
"O. c #4B576F",
"+. c #515F79",
"@. c #586684",
"#. c #5B6A89",
"$. c #576684",
"%. c #515E79",
"&. c #455167",
"*. c #596784",
"=. c #5F6E8E",
"-. c #5C6B8B",
";. c #556380",
":. c #505E79",
">. c #505E7A",
",. c #4C5973",
"<. c #3E495D",
"1. c #3D485D",
"2. c #515E7A",
"3. c #46536A",
"4. c #424D63",
"5. c #47546B",
"6. c #546380",
"7. c #49566E",
"8. c #404A60",
"9. c #3C475B",
"0. c #3D475C",
"q. c #3C475C",
"w. c #384255",
"e. c #364052",
"r. c #49556E",
"t. c #445066",
"y. c #48556D",
"u. c #49556D",
"i. c #424E63",
"p. c #4A566E",
"a. c #596781",
"s. c #4E5B73",
"d. c #6B7B9C",
"f. c #667593",
"g. c #60708F",
"h. c #687797",
"j. c #586786",
"k. c #556481",
"l. c #61708E",
"z. c #596785",
"x. c #5D6C8C",
"c. c #566482",
"v. c #4C5A73",
"b. c #4A5770",
"n. c #434E65",
"m. c #4B5872",
"M. c #4C5872",
"N. c #4F5C77",
"B. c #556381",
"V. c #4C5972",
"C. c #3F4A5E",
"Z. c #384154",
"A. c #49566F",
"S. c #46526A",
"D. c #414C61",
"F. c #5A6782",
"G. c #3E4A5E",
"H. c #57647E",
"J. c #62708C",
"K. c #414D62",
"L. c #4D5970",
"P. c #62708E",
"I. c #6C7C9D",
"U. c #4D5A73",
"Y. c #61708F",
"T. c #616F8D",
"R. c #62718E",
"E. c #687898",
"W. c #586784",
"Q. c #54627F",
"!. c #54637F",
"~. c #47536B",
"^. c white",
/* pixels */
"                                . X o O O + + + + + + + + + + + ",
"                                  @ # $ # # # # # # # # # # $ $ ",
"                              @ % & * = = = = = = = - - = ; : : ",
"                              @ % > , < 1 2 2 2 2 3 4 4 3 5 6 7 ",
"            .         .         % 8 9 0 q w e e e r t y r q 1 u ",
"X X X X X X X i % % i X X X X p p a s d f g g h j k   l z f d ; ",
"o o o o o x x c v v c x x o o x x b n m M N N B V C Z A S M i D ",
"# # # # # # $ # @ @ # $ # # # # # $ F F F F F F % G # H H F F J ",
"- - - - - K K * L L * K K - - - - = = ; = - - P L L * K - = ; ; ",
"I I I I I 5 U Y T T R < 5 I I I I I I I I 5 < R T T Y U 5 I I I ",
"E E E W W Q 5 Y T T ! 1 Q W W E E E E W W Q 1 ! T T Y 5 Q W W E ",
"~ ~ ~ ~ ~ ^ / ( ) _ ` ' ] ~ ~ ~ ~ ~ ~ ~ ~ ] ' ` _ ) ( / [ { ~ ~ ",
"~ } | | |  ...X._ o.O.+.@.#.#.| } ~ ~ | #.$.%._ &._ *.=.-.~ ~ ~ ",
";.j h :.:.>.>.,.  <.1.% ,.2.>.h j ;.;.;.;.:.3.4.% 5.:.6.;.6.6.6.",
"7.V 8.9.9.0.q.Z w.x e.w.Z 0.9.B V 7.r.r.r.5.t.% @ C 5.y.u.u.u.u.",
"% % F F F F F H $ # # $ H F F F % % % % % @         @ % % % % % ",
"i.p.a.- - = = = = - - = = - - * p.% % @ @             @ @ @ @ @ ",
"4.s.Y U 5 I d.2 I I I I I 5 U f.> % %                           ",
"4.s.Y 5 Q E E g.E E E W W Q 5 f.> % %                           ",
"% T ( h.=.j.k.k.j.~ ~ ~ ~ ^ / l.T %                             ",
"% _ z.E x.c.v.v.c.#.| } }  ...X.b.          .         .         ",
"p n.m.2.2.M.%   N.B.;.f h :.:.V.  p C.X X X X i % % i X X X X X ",
"x w.Z 0.0.Z Z.Z C 7.A.S.8.9.9.Z w.x x o o x x c v v c x x o o o ",
"# $ H F F F H # G l X X D.H F H $ # # # # # $ # @ @ # $ # # # # ",
"- = = = = - K F.& G.w.m H.K J.= = - - - - K K * L L * K K - - - ",
"I I I I I 5 U f.> K.D.L.P.I.2 I I I I I I 5 U Y T T Y U 5 I I I ",
"E E E W W Q 5 Y U.L * P.Y.E E E E E E W W Q 5 Y T T Y 5 Q W W E ",
"~ ~ ~ ~ { [ / T.) ) R.E.=.{ ~ ~ ~ ~ ~ ~ { [ / T.) ) T./ [ { ~ ~ ",
"~ ~ ~ ~ ~ -.=.W.7.p.X.E -.~ ~ ~ ~ ~ ~ ~ ~ -.=.W.7.7.W.=.-.~ ~ ~ ",
"Q.Q.Q.Q.Q.!.Q.g ~.~.g Q.!.Q.Q.Q.Q.Q.Q.Q.Q.!.Q.g ~.~.g Q.!.Q.Q.Q.",
"y.y.y.y.y.y.y.~.C C ~.y.y.y.y.y.y.y.y.y.y.y.y.~.C C ~.y.y.y.y.y.",
"% % % % % % % %     % % % % % % % % % % % % % %     % % % % % % "
};
