/* XPM */
static char *_ca57c894ee54378c015d8f2501c0d57tC5vPFZi3jgrhudo[] = {
/* columns rows colors chars-per-pixel */
"64 64 229 2 ",
"   c #380202",
".  c #470D0C",
"X  c #4E1011",
"o  c #5E2120",
"O  c #783A3B",
"+  c #792929",
"@  c #670D16",
"#  c #80282E",
"$  c #972932",
"%  c #903838",
"&  c #AA353D",
"*  c #A73B43",
"=  c #804241",
"-  c #8B484A",
";  c #974847",
":  c #985658",
">  c #B5454B",
",  c #A95B5B",
"<  c #BB5C5E",
"1  c #B65A5B",
"2  c #AD4B4E",
"3  c #B35E61",
"4  c #9F6F6E",
"5  c #A56C6C",
"6  c #AB6D6D",
"7  c #A86365",
"8  c #BC6464",
"9  c #B26D6D",
"0  c #BC6C6B",
"q  c #B96666",
"w  c #B3716F",
"e  c #B56E70",
"r  c #AD7C7C",
"t  c #AA7576",
"y  c #B47473",
"u  c #BC7374",
"i  c #BC7D7C",
"p  c #B57978",
"a  c #C34D53",
"s  c #CA5C5E",
"d  c #C85F63",
"f  c #C26565",
"g  c #C96563",
"h  c #C66B6B",
"j  c #CC6C6C",
"k  c #C76868",
"l  c #D36D6C",
"z  c #DB6B6D",
"x  c #D56567",
"c  c #D26E71",
"v  c #DC6F72",
"b  c #C37474",
"n  c #CD7272",
"m  c #C37976",
"M  c #CC7578",
"N  c #C17A7B",
"B  c #CB7B7C",
"V  c #CB7877",
"C  c #D37273",
"Z  c #DC7474",
"A  c #D47779",
"S  c #DA7678",
"D  c #D47B7B",
"F  c #DB7C7C",
"G  c #DE7876",
"H  c #CD716F",
"J  c #E27575",
"K  c #E27976",
"L  c #E37579",
"P  c #E37B7B",
"I  c #EA7C7C",
"U  c #E97977",
"Y  c #F17E7E",
"T  c #CD817F",
"R  c #DC817F",
"E  c #D3827E",
"W  c #E4817F",
"Q  c #EB807F",
"!  c #F0807F",
"~  c #AA7F81",
"^  c #BA7D80",
"/  c #C67E81",
"(  c #CC7E81",
")  c #DA7F81",
"_  c #E67E81",
"`  c #EC7F82",
"'  c #AD8483",
"]  c #BC8C8D",
"[  c #B88787",
"{  c #BB9495",
"}  c #B98F93",
"|  c #C38484",
" . c #CE8383",
".. c #C58B8B",
"X. c #CC8B8B",
"o. c #CD8789",
"O. c #D38383",
"+. c #DD8483",
"@. c #D48886",
"#. c #DB8A86",
"$. c #D38B8B",
"%. c #DC8B8B",
"&. c #DB8789",
"*. c #D9908E",
"=. c #CA9394",
"-. c #CC9E9E",
";. c #C59798",
":. c #DB9393",
">. c #DD9A9A",
",. c #DA9495",
"<. c #CD8C90",
"1. c #E48483",
"2. c #EB8383",
"3. c #E58986",
"4. c #EB8A87",
"5. c #E5878A",
"6. c #EE8689",
"7. c #E48C8B",
"8. c #EB8C8B",
"9. c #F28585",
"0. c #F48789",
"q. c #F28C8C",
"w. c #F88C8C",
"e. c #E3918E",
"r. c #EB918E",
"t. c #F2928D",
"y. c #ED8F90",
"u. c #F48F90",
"i. c #E59494",
"p. c #EC9493",
"a. c #EB9996",
"s. c #E49C9C",
"d. c #EB9C9B",
"f. c #EB9896",
"g. c #F39494",
"h. c #FA9494",
"j. c #F39996",
"k. c #F29799",
"l. c #F39C9B",
"z. c #FB9B9B",
"x. c #FE979A",
"c. c #CCA09F",
"v. c #EBA09D",
"b. c #E2A19D",
"n. c #F3A19E",
"m. c #FAA09F",
"M. c #EE9EA0",
"N. c #C8A7A6",
"B. c #D3A3A4",
"V. c #DDA2A3",
"C. c #D4ADAD",
"Z. c #DDABAB",
"A. c #CFB1AF",
"S. c #DBB2B3",
"D. c #D7B9B7",
"F. c #DDB0AD",
"G. c #E4A4A4",
"H. c #EDA4A3",
"J. c #EFA9A7",
"K. c #E4ACAB",
"L. c #EDAAAA",
"P. c #E2A8A9",
"I. c #F3A4A3",
"U. c #FCA4A3",
"Y. c #F5A8A6",
"T. c #FAA9A6",
"R. c #F6A6A8",
"E. c #F3ABAA",
"W. c #FAAAAB",
"Q. c #F8A6A8",
"!. c #E3B4B5",
"~. c #EAB4B3",
"^. c #E3BBBB",
"/. c #EBBABA",
"(. c #F4B6B5",
"). c #FFB2B4",
"_. c #F5BABA",
"`. c #FEBBBC",
"'. c #EFB0AE",
"]. c #E8C1BF",
"[. c #F0C0BE",
"{. c #E6BFC0",
"}. c #E8BEC0",
"|. c #DEC4C3",
" X c #ECC4C4",
".X c #ECCBCB",
"XX c #E8C7C5",
"oX c #F2CDCC",
"OX c #F8C8C6",
"+X c #ECD2D3",
"@X c #ECDBDA",
"#X c #F4D4D3",
"$X c #FAD3D3",
"%X c #FBDBDB",
"&X c #F6DBDA",
"*X c #F4D1D0",
"=X c #FBE1DE",
"-X c #F6E1DF",
";X c #F4DEE0",
":X c #F8DFE2",
">X c #EAE6E7",
",X c #F4E3E4",
"<X c #FCE4E4",
"1X c #FEE9E7",
"2X c #F3EEED",
"3X c #FEECEB",
"4X c #FFE5E8",
"5X c #FFF1EE",
"6X c #F6F2EF",
"7X c #EFEFF1",
"8X c #FCEEF1",
"9X c #F5F4F4",
"0X c #FFF5F4",
"qX c #FDF9F7",
"wX c #FEF7F9",
"eX c #F6FBF9",
"rX c #FFFDFB",
"tX c #FDFEFA",
"yX c #FEFBFD",
"uX c #FAFEFD",
"iX c #FFFDFD",
"pX c #FFFFFD",
"aX c #FEFEFC",
"sX c #FFFDFF",
"dX c white",
"fX c #FEFEFF",
"gX c #FDFEFE",
"hX c #FFFEFE",
"jX c #F3F7F8",
/* pixels */
"dXdXdXdXdXdXdXdXdXdXdXdXdXdXdXdXtXdXtXtXrXyXdXuXjXtXtXtXeXeXdXyXdXuXuXuXeXdXdXeXeXdXyXyXdXdXtXtXdXdXdXdXdXdXdXdXdXdXdXdXdXdXdXdX",
"dXdXdXdXdXdXdXdXdXdXdXdXdXdXdXdXeXdXdXtXdXtXdXdXtXrXqXqXyXrX9XdXuXyXyXdXdX0X0XyXrXdXjXyXdXyXdXdXdXdXdXdXdXdXdXdXdXdXdXdXdXdXdXdX",
"dXdXdXdXdXdXdXdXdXdXdXdXdXdXdXdXdXtXdXdXdXdXrXrX3X&XoX.X0XrX9XdXeXdXrX0X<XXX.X1XtXdXeXdXdXyXuXdXdXdXdXdXdXdXdXdXdXdXdXdXdXdXdXdX",
"dXdXdXdXdXdXdXdXdXdXdXdXdXdXdXdXtXdXyXrXdXdX0X3XoX/.K.B.oX3XdXeXeXtX1X$X/.-.;.D.4XtXdXuXdXyXuXdXdXdXdXdXdXdXdXdXdXdXdXdXdXdXdXdX",
"dXdXdXdXdXdXdXdXdXdXdXdXdXdXdXdXyXdXyXrXtXdX3X*XK.E.H.i.B.^.tXtXtX5XoXK.G.,.| [ D.5XdXuXuXyXdXdXdXdXdXdXdXdXdXdXdXdXdXdXdXdXdXdX",
"dXdXdXdXdXdXdXdXdXdXdXdXdXdXdXdXyXdXdXeXdXtX%XK.J.a.p.i.$.=.3XyXqX<X/.>.i.7.E i ;.=XdXeXyXdXdXdXdXdXdXdXdXdXdXdXdXdXdXdXdXdXdXdX",
"dXdXdXdXdXdXdXdXdXdXdXdXdXdXdXdXyXyXdXtXtX0X*Xb.n.7.3.1.) / #X0X5X%X'.i.7.+.D  .' *XtXyXdXyXuXuXdXdXdXdXdXdXdXdXdXdXdXdXdXdXdXdX",
"dXdXdXdXdXdXdXdXdXdXdXdXdXdXdXdXyXdXuXdXtX0X$XG.d.4.t.P S b }.0X3X XG.f.7.+.F T t XX0XeXdXyXyXdXdXdXdXdXdXdXdXdXdXdXdXdXdXdXdXdX",
"dXdXdXdXdXdXdXdXdXdXdXdXdXdXdXdXdXtXdXeXdXqX/.H.v.t.3.W S V =.3X<X~.v.7.7.3.+.B 5 C.tXeXrXdXyXuXdXdXdXdXdXdXdXdXdXdXdXdXdXdXdXdX",
"dXdXdXdXdXdXdXdXdXdXdXdXdXdXdXdXuXdXdXtXtXqX[.J.a.t.3.1.S n $.<X%XH.d.7.7.1.D m 5 C.qXqXtXtXyXuXdXdXdXdXdXdXdXdXdXdXdXdXdXdXdXdX",
"dXdXdXdXdXdXdXdXdXdXdXdXdXdXdXdXtXtXdXrXdXrX XY.p.t.3.1.S h m $XOXv.j.7.3.1.D n 6 S.0XdXdXtXeXuXdXdXdXdXdXdXdXdXdXdXdXdXdXdXdXdX",
"dXdXdXdXdXdXdXdXdXdXdXdXdXdXdXdXtXeXdX0XtXqXOXG.j.t.3.3.K k 0 OX[.a.j.4.4.1.A b 5 ^.0XdXdXtXuXdXdXdXdXdXdXdXdXdXdXdXdXdXdXdXdXdX",
"dXdXdXdXdXdXdXdXdXdXdXdXdXdXdXdXtXtXtXrXdX0X*XG.n.g.5.2.W H 8 `.).p.g.4.2.1.A b 4 +XrXdXdXtXyXdXdXdXdXdXdXdXdXdXdXdXdXdXdXdXdXdX",
"dXdXdXdXdXdXdXdXdXdXdXdXdXdXdXdXtXtXdXrXdXqX%XK.l.q.6.P W l , ).W.e.g.1.` 1.A u r =XyXdXuXdXdXdXdXdXdXdXdXdXdXdXdXdXdXdXdXdXdXdX",
"dXdXdXdXdXdXdXdXdXdXdXdXdXdXdXdXdXtXdXeXuXqX1X~.a.u.6.K U l , ).W.i.t.1.1._ M y ;.5XdXuXdXtXdXdXdXdXdXdXdXdXdXdXdXdXdXdXdXdXdXdX",
"dXdXdXdXdXdXdXdXdXdXdXdXdXdXdXdXtXrXdXeXuXtX5X XH.j.g.P U C < `.).i.j.3.1.) V 6 N.qXeXuXdXtXdXuXdXdXdXdXdXdXdXdXdXdXdXdXdXdXdXdX",
"dXdXdXdXdXdXdXdXdXdXdXdXdXdXdXdXdXtXdXyXdXdX0X%X'.k.u.6.Z < q Y.T.#.r.7.R R B 5 XXtXdXdXeXyXdXdXdXdXdXdXdXdXdXdXdXdXdXdXdXdXdXdX",
"dXdXdXdXdXdXdXdXdXdXdXdXdXdXdXdXdXyXdXdXuXuXrX3XK.d.y._ F F D :.b.e.e.R H q 7 r 5X2XdXdXyXuXyXdXdXdXdXdXdXdXdXdXdXdXdXdXdXdXdXdX",
"dXdXdXdXdXdXdXdXdXdXdXdXdXdXdXdXdXyXdXdXeXtXdX3X~.I.U.l.l.Q.Y.H.G.E.v.a.#.u 6 c.eX6XdXuXdXdXeXdXdXdXdXdXdXdXdXdXdXdXdXdXdXdXdXdX",
"dXdXdXdXdXdXdXdXdXdXdXdXdXdXdXdXdXuXuXuXeXdXqX<X~.s.Y.T.n.R.W.E.J.E.J.v.v.*.i B.+XtX9XeXdXdXyXdXdXdXdXdXdXdXdXdXdXdXdXdXdXdXdXdX",
"dXdXdXdXdXdXdXdXdXdXdXdXdXdXdXdXdXdXuXuXdXtX1XXX/.H.E.E.d.s.s.H.J.b.G.d.G.>.<.=.N.1XtXeXdXeXdXdXdXdXdXdXdXdXdXdXdXdXdXdXdXdXdXdX",
"dXdXdXdXdXdXdXdXdXdXdXdXdXdXdXdXdXdXuXuXtXqX#X!.(.E.E.I.H.R.I.J.E.>.I.s.s.s.s...;.N.0XqXdXeXdXyXdXdXdXdXdXdXdXdXdXdXdXdXdXdXdXdX",
"dXdXdXdXdXdXdXdXdXdXdXdXdXdXdXdXyXdXuXtXtX<X].~.L.I.L.M.I.R.M.d.M.f.d.a.:.i.*.X...' XX0XyXtXdXyXdXdXdXdXdXdXdXdXdXdXdXdXdXdXdXdX",
"dXdXdXdXdXdXdXdXdXdXdXdXdXdXdXdXyXdXdXdX0X.XZ.(.E.W.E.R.Q.l.7.a.i.f.i.f.:.s. .o.i [ { 3XrXdXeXuXdXdXdXdXdXdXdXdXdXdXdXdXdXdXdXdX",
"dXdXdXdXdXdXdXdXdXdXdXdXdXdXdXdXuXeXuXyX4X^._.Y.W.d.I.Y.l.d.i.p.i.e.&.7.%.o.@.N y r ' |.tX9XdXyXdXdXdXdXdXdXdXdXdXdXdXdXdXdXdXdX",
"dXdXdXdXdXdXdXdXdXdXdXdXdXdXdXdXdXyXdXrX%X~.(.I.Y.U.n.d.k.k.p.p.e.p.5.e.i.N  .*.y y r A.tXtXdXdXdXdXdXdXdXdXdXdXdXdXdXdXdXdXdXdX",
"dXdXdXdXdXdXdXdXdXdXdXdXdXdXdXdXyXdXyXrX#X~.E.n.l.U.e.7.k.p.7.+.3.p.+.D %.( B T y y r } 5XdXdXdXdXdXdXdXdXdXdXdXdXdXdXdXdXdXdXdX",
"dXdXdXdXdXdXdXdXdXdXdXdXdXdXdXdXuXdXeXrXXX/.J.Y.n.l.l.g.p.3.3.8.1.3.1.+.7.#. . .w t t ' ,XtXdXdXdXdXdXdXdXdXdXdXdXdXdXdXdXdXdXdX",
"dXdXdXdXdXdXdXdXdXdXdXdXdXdXdXdXdXdXyXwX X(.J.T.T.p.j.r.3.8.u.y.8.R 1.8.+.B ( ( 0 9 p t @XdXuXdXdXdXdXdXdXdXdXdXdXdXdXdXdXdXdXdX",
"dXdXdXdXdXdXdXdXdXdXdXdXdXdXdXdXuXyXyX0X X_.E.T.n.j.n.e.3.t.6.F 8.1.3.E B O.( / y e t r @XdXyXdXdXdXdXdXdXdXdXdXdXdXdXdXdXdXdXdX",
"dXdXdXdXdXdXdXdXdXdXdXdXdXdXdXdXdXeXdX3X{._.L.Y.a.Y.7.a.l.1.2.6.2.1.1.D ( i 9 <.u 6 t [ &XdXyXdXdXdXdXdXdXdXdXdXdXdXdXdXdXdXdXdX",
"dXdXdXdXdXdXdXdXdXdXdXdXdXdXdXdXdXyXdX3X{.(.J.I.Y.%.% 7 U.1._ 6._ P 1.7.m o X | N 9 5 ] @XrXdXdXdXdXdXdXdXdXdXdXdXdXdXdXdXdXdXdX",
"dXdXdXdXdXdXdXdXdXdXdXdXdXdXdXdXdXdXdX0XoX!.E.Q.W.u X = d.5.6.U P P P +.N .   ^ o.y t ] 4XyXdXuXdXdXdXdXtXdXdXtXdXdXdXdXuXdXdXdX",
"dXyXdXdXdXdXdXyXyXdXdXdXdXdXdXdXeXeXyXqX:X}.L.W.d.:.O - I.8.1.5.3.F 1.D b = O [ B / t ;.wXuXyXdXdXdXdXdXdXdXdXdXdXdXdXdXuXdXdXdX",
"dXdXdXdXdXdXdXdXdXdXdXdXdXdXdXdXtXeXtXtX<X}.P.I.s.I.$.%.k.1.R 0 @.B 1.C D O.V b u e 4 D.yXeXyXyXdXdXdXdXdXyXdXdXdXdXdXdXdXuXdXdX",
"dXyXdXdXdXdXdXdXdXdXdXdXdXdXdXdXuXuXyXyX0X$X~.R.l.f.l.U.u.8.M ; + , z.3.H h f b B 5 } 1XdXeXdXrXdXuXdXuXdXdXdXdXdXdXdXdXtXtXdXtX",
"dXdXdXdXdXdXdXdXdXtXdXdXdXdXdXdXyXyXyXeXyX3X}.P.a.a.p.8.j.g.G 8 V B 5.c H C f u 6 ~ D.yXjXdXdXyXdXuXdXdXdXdXdXdXdXdXdXtXdXdXtXdX",
"dXtXdXdXdXdXdXdXtXdXdXdXdXdXdXyXyXyXyXyXdX0X*XL.M.k.l.j.8.q.y.5.i.&.) c S h < u 6 S.3XyXjXdXrXdXdXdXdXdXyXdXdXdXdXdXdXdXdXtXdXtX",
"dXdXdXdXdXdXdXdXyXdXdXdXdXdXdXtXrXwXwXwXtX0X4X*XI.7.p.j.e.p.k.1.5.F C H A h m N Z.<XwXqXrXyXeXdXdXdXdXdXdXdXdXdXtXdXdXtXdXdXdXdX",
"dXdXdXdXdXdXdXdXdXdXdXdXdXtXtXqX3X:X$X X!.Z.P.M.7.k.8.3.g.y.y.U.3._ _ ) D 0 0 - V.!.S.#X=X4XrXrXyXdXdXdXdXdXdXdXdXdXdXtXdXdXdXdX",
"dXdXdXdXdXdXdXdXdXdXtXdXrX0X=X].'.G.b.s.a.a.p.8.1.y.u.q.9.6.2.P Z S C j < 2 ; ; ; 7 e [ ..=.^.%X3XqXtX2XuXdXyXuXdXdXdXdXdXdXdXdX",
"dXdXuXdXdXdXdXdXuXuXuXtX1X.X~.b.v.p.j.j.4.4.q.q.8.g.h.w.9.9.9.I K Z S C j f f f f h A ) i.$.X.<.c.D.<XqXdXeXdXuXdXdXdXdXdXdXdXdX",
"dXdXdXdXdXdXdXdXuXuXdX0X*XK.v.r.r.4.R Q U ! Q 9.h.x.x.h.q.0.9.I I P 1.P S l n n H j S P 8.1.p.e. .>.F.XXqXdXrXyXdXdXdXdXdXdXdXdX",
"dXdXuXdXdXdXdXdXuXtXtX0XXXV.v.j.t.r.W Q Q 9.I P z.z.h.w.q.9.` U Q 2.2._ F C h f f j F q.0.2.4.1.e.i...] &XrXeXdXdXdXdXdXdXuXdXdX",
"dXdXdXuXdXdXdXdXdXjXrX0X.XZ.d.e.8.8.G L J L I t.n.j.t.q.0.9.Y U K P U K S C h f h j j _ 1.6.6.6.r.7.,.[ D.rXdXdXdXdXdXdXdXdXdXdX",
"dXdXdXdXdXdXdXtXdXeXyXrX<X XK.:.%.+.( D 3.5.r.U.j.g.g.w.0.9.Y I P P K Z Z C H h f f < f M B +.5.3.E o.p D.tXrXeXdXdXtXdXuXdXdXdX",
"uXdXdXdXdXdXtXdXdXdXuXdX0X<X#X].S.S.]..X:X`.Y.z.l.j.g.w.0.9.I Q 2.2.U J Z Z H j j k h u V.=...| <.o.^ } @XdXdXuXdXdXdXtXtXdXdXdX",
"dXdXdXdXdXdXdXtXuXdXuXyXyXrXtX0X0X0XtX0X0X(.d.l.z.j.h.h.q.2.` _ I 2.I J Z Z l g l f 8 N 3X3X3X$X].D.].1XyX9XuXjXdXdXdXtXdXdXdXyX",
"dXdXdXdXdXdXdXdXdXdXdXdXdXdXdXdXtXrXeXrX<XG.Q.k.x.t.q.g.t.w.6.6.2.2.P K W Z l g g k 0 7  XwXwXrXtXrXrXyXdXdXdXdXdXdXdXdXdXdXdXdX",
"dXdXdXdXdXdXdXdXdXdXdXdXdXdXdXdXdXuXtXrX%XG.Q.k.6.h.h.2.2.0.2.P G 2.Q P G K Z l g 8 0 7 S.wXwXeXdXdXdXdXdXdXdXdXdXdXdXdXdXdXdXdX",
"dXdXdXdXdXdXdXdXdXdXdXdXdXdXdXdXdXdXtXqX$XM.H.h.t.w.0.! 0.9.K ` _ 2.I U I Z z f f < 3 : { yXdXuXdXdXdXdXdXdXdXdXdXdXdXdXdXdXdXdX",
"dXdXdXdXdXdXdXdXdXdXdXdXdXdXdXdXtXtXtXqXoXG.I.k.z.Q I ! 2.Q U 9.2.` ` Y P x d j j 8 3 : t 8XyXuXdXdXdXdXdXdXdXdXdXdXdXdXdXdXdXdX",
"dXdXdXdXdXdXdXdXdXdXdXdXdXdXdXdXdXtXtX5XXXP.I.l.p.R 1.Z x J Y U Z 2.0.I v z S 8.e.T m y r 3XdXyXdXdXdXdXdXdXdXdXdXdXdXdXdXdXdXdX",
"dXdXdXdXdXdXdXdXdXdXdXdXdXdXdXdXtXtXtX5X].'.H.v.e.E 3.F s s z z Z 2.U z Z 0.g.k.n.a.%.$.] 4XyXuXdXdXdXdXdXdXdXdXdXdXdXdXdXdXdXdX",
"dXdXdXdXdXdXdXdXdXdXdXdXdXdXdXdXuXdXrX1X/.Y.l.a.p.#.#.+.H < a x J J z v 6.m.j.r.e.*.#.@.[ }.0XyXdXdXdXdXdXdXdXdXdXdXdXdXdXdXdXdX",
"dXdXdXdXdXdXdXdXdXdXdXdXdXdXdXdXdXtX0X<XK.J.l.p.#.a.e.V A s > > z z Z 8.z.l.p.v.R 3.R T p B.3XdXdXdXdXdXdXdXdXdXdXdXdXdXdXdXdXdX",
"dXdXdXdXdXdXdXdXdXdXdXdXdXdXdXdXyXuXrX$XK.M.z.1.5.&.5._ h v * * a s c m.k.I.g.7.) 1.S B y ~ 0XyXyXdXdXdXdXdXdXdXdXdXdXdXdXdXdXdX",
"dXdXdXdXdXdXdXdXdXdXdXdXdXdXdXdXuXdXyX&XK.a.g.2.y.y.5._ h v * $ * > l U.l.a.y.8.u.F C h 6 -.0XdXdXdXdXdXdXdXdXdXdXdXdXdXdXdXdXdX",
"dXdXdXdXdXdXdXdXdXdXdXdXuXdXdXtXdXdXyX<X~.b.j.t.8.5.) ( d j * $ & * 8 U.m.p.2.` Z c A m 6 XXwXyXdXdXdXdXdXdXdXdXdXdXdXdXdXdXdXdX",
"dXdXdXdXdXdXdXdXdXdXuXdXdXdXuXyXyXeXrX1X XH.f.8.1.5.) ) ( q # @ + # ; 7.d.k._ F F ) O.6 r <XwXyXyXeXdXdXdXdXdXdXdXdXdXdXdXdXdXdX",
"dXdXdXdXdXdXdXdXyXdXdXdXrXeXyXdXrX9X9X1X#XK.,.$.@.&.( u e 7 - O O = : o.>.f.&.A b u 5 4 N.,X7X>X9X9XeXrXdXdXdXdXdXdXdXdXdXdXdXdX",
"dXdXdXdXdXdXdXdXdXdXuXtXdXdXdXyXjX9X9X2X,X.X!.V.P.V.=.[ ..;.;.N.C.C.C.S.Z.B.<.^ p ~ ~ N.@X@X>X>X7X7X9XeXdXdXdXdXdXdXdXdXdXdXdXdX",
"dXdXdXdXdXdXdXdXdXdXdXdXdXdXdXdXrXrXjXeXyX8X<X:X:X:X:X4X,X;X>X@X@X,X;X;X<X;X:X%X&X+X@X,X9X>X7XdX9XeXdXyXdXdXdXdXdXdXdXdXdXdXdXdX",
"dXdXdXdXdXdXdXdXdXdXdXdXdXdXdXdXdXdXdXdXyXwXyXyXyXwXyXyX0XrXdXeXdXdXyXyXdXwXwXwXyXeXyXdXeXdXdXyXdXdXdXdXdXdXdXdXdXdXdXdXdXdXdXdX"
};