/* XPM */
static char *c94e7a916f14491ee91bcf95e2b6770cBuASX1TxqAU5AXju[] = {
/* columns rows colors chars-per-pixel */
"64 64 14 1 ",
"  c gray12",
". c gray15",
"X c #2A2A2A",
"o c gray17",
"O c gray20",
"+ c gray22",
"@ c #3C3C3C",
"# c #3E3E3E",
"$ c gray25",
"% c gray26",
"& c #434343",
"* c gray27",
"= c #494949",
"- c #535353",
/* pixels */
"@%-----------------------------@@*-----------------------------@",
"*@@%%*%*%%%*%*%%%*%*%%%*%*%%*%+O*@@***%%%*%*%%**%%%***%%%*%**%@O",
"-@@@@@@@@@++@@@%=%%%@+%*%@@@@@OX-@@@@@@@@@++@@@@=%%%@@%%%@@@@+OX",
"-*@@@@@@@++@@@@=%%%@@%*@+@@@@OO -%@@@@@@@++@@@%=%*%+@@%%+@@@@OO.",
"-*@@@@@@++@@@%=%*@@@%%%@@@@@@+O -*@@@@@@++@@+%=%*@@@%*%@@@@@@+O.",
"-*++@@@++@@@%=*%%@@%%%@@@@@@++O -%@@@@@++@@@%=%%%@+%*@@@@@@+++O ",
"-%@O.O++@@+%=*%%@@@*@@@@@O O@+O -%@O.O@+@@+%=*%%@+%*%@@@@O.O@+O ",
"-%@.O+*@@@%=%%%++%*%@@@@@.O+%+O.-%+ O+*@@@%=%%%@@%*@+@@@@ O+*OO ",
"-%@O+*-@@%=%%%@@@*%@@@@@@O@*-+O -%@O+*-@@@=**@@@%%%@@@@@@O@*-@O.",
"-*@@*-@@@=*%%++%%%+@@@@@@+*-++O -*@@*-@@%=%*%@@%%%@@@@@@@@%-O@O ",
"-%@+@@+%=*%%@+%*%@@@@@@@+++@@%O -*@+@@+%=%%%@@@*@@@@@@@@+++@@@O ",
"-*+@@@%=*%%+@%*@@@@@@@@+++@+%%O -%+@@@%=%*%++%*%@@@@@@@+++@@%%O ",
"-%@@@%=*%%++%%%+@@@@@@+O+@@%*=O -%@@@%=%*@@@%%@@@@@@+@+++@@%%=O.",
"-%++++O+@@%%=*%%@O+%*%@+@@@@+OO.-%OO+++O@@@%=%%@@++%%%@@@@@+++O ",
"-+OOOOOOOOOOOOOOOOOOOOOOOOOOOOX.-@OOOOOOOOOOOOOOOOOOOOOOOOOOOO..",
"+OX.           .           .  .X@Oo..   .   .      .          .X",
"*-----------------------------+ %-----------------------------@ ",
"@@%*%*%%%**%*%**%%%*%*%%**%%*@O @@%*%%***%%*%%*%%%%%**%%%***%@O ",
"-%@@@@@@@@@@+@@@@@@@@@@@+@@@+@o -*@@@@@@+@@@@@@@@@+@+@@+@+@@@+X.",
"-*@@@@@@@@@@@@@+++@@%%=*%%@++%O.-%@@@@@@@@@@@@@+++@@%*=*%%@++@O ",
"-%@@%%@@@@@@@@+++@+%%=%*%@++%%O -@@@@*%@@@@@@@+++@@%*=%%%@+O%%O ",
"-*@@%%@@@@@@@+++@@%%=%*@@++%%@O -*@%%@+@@@@@@+++@@@*=%*%@++@%%O ",
"-%@O.O@@@@@@+++@@%%=%*%+OO.O@@O -*%O.O@@@@@@+++@@%%=%*%@+O.O@@O ",
"-%% O@*@@@@+++@+%%=*%%@+O O@%@O -%% O@*@@@@+++@@%%=%*@++O.O@%@O ",
"-%%O@%-@@@+++@@%%=%*%@++%O@*-@O -%%O+%-@@@+++@+%*=*%%@+O@O@*-@O.",
"-*@O*-+@@+++@@%%=%*@@++%%+*-@@O.-%@+*-+@@+++@@%%=%%%@++%*@*-+@O ",
"-*@@@@@@+++@+%%=%*%+++@%%@+@@@O -%@@@@@@+++@@@*=%%%+++@*%@@@@@O ",
"-*@@@@@+++@@%%=*%%@+O%*%@@@@@+O -*@@@@@+++@@%*=*%%@++%*%+@@@@+O ",
"-%@@@@+++@+%*=%%%+++%%%@@@@@@+O -*@@@@+++@@@%=%%%@++@*%@@@@@@+O ",
"-%OO+++O@@@%=%%%@++@*@++@@++++O -%+O++++@@%%=*%%+++%%%+@@@@@++O ",
"-@OOOOOOOOOOOOOOOOOOOOOOOOOOOO..-+OOOOOOOOOOOOOOOOOOOOOOOOOOOOX.",
"@Oo..   .       .   .   .   . .X@OX    .                      .X",
"@*-----------------------------+@*-----------------------------@",
"*@@%%*%**%%*%%*%%%**%%*%%%*%%*@O*@@***%%%*%*%%**%%%***%%%*%**%@O",
"-@@@@@@@+@++@@+%=**@@@%%%+@@@@OX-@@@@@@@@@++@@@@=%%%@@%%%@@@@+OX",
"-*@@@@@@@++@@@%=%%%@+%%%@@@@@+O -%@@@@@@@++@@@%=%*%+@@%%+@@@@OO.",
"-*+@@@@@++@@+%=%*%@@%%%@@@@@@+O -*@@@@@@++@@+%=%*@@@%*%@@@@@@+O.",
"-%@@++@++@@@%=%*@@+%%%+@@@@@++O.-%@@@@@++@@@%=%%%@+%*@@@@@@+++O ",
"-*@O.O@+@@@%=%*%@+%*%+@@@O.O++O -%@O.O@+@@+%=*%%@+%*%@@@@O.O@+O ",
"-%+.O@*@@+%=**@@@%*@@@@@@ O+*OO -%+ O+*@@@%=%%%@@%*@+@@@@ O+*OO ",
"-%@O@*-++%=%*@@@%*%@@@@@@O@*-+O -%@O+*-@@@=**@@@%%%@@@@@@O@*-@O.",
"-%@@%-@@%=*%%@+%*@@@@@@@@@*-+@O -*@@*-@@%=%*%@@%%%@@@@@@@@%-O@O ",
"-%@+@@@%=%%%@+%*%@@@@@@@+++@@@O -*@+@@+%=%%%@@@*@@@@@@@@+++@@@O ",
"-*+@@+%=%%%@@%*@+@@@@@@+++@+%*O.-%+@@@%=%*%++%*%@@@@@@@+++@@%%O ",
"-*@@@%=**%+@%%%+@@@@@@+++@@%*=O -%@@@%=%*@@@%%@@@@@@+@+++@@%%=O.",
"-*+O+++O@+%%=*%%@++@*@@@@+@@OOO -%OO+++O@@@%=%%@@++%%%@@@@@+++O ",
"-+OOOOOOOOOOOOOOOOOOOOOOOOOOOOX.-@OOOOOOOOOOOOOOOOOOOOOOOOOOOO..",
"@OX    .               .     ..X@Oo..   .   .      .          .X",
"*-----------------------------+ %-----------------------------@ ",
"@@%***%%%**%%%%***%%%*%*%*%%*@O.@@%*%%***%%*%%*%%%%%**%%%***%@O ",
"-%@@@@@@@@@@@@@@@@@@@+@@@+@@@@X -*@@@@@@+@@@@@@@@@+@+@@+@+@@@+X.",
"-*@@@@@@@@@@@@@+++@@%%=**%@++@O -%@@@@@@@@@@@@@+++@@%*=*%%@++@O ",
"-%@@%%%+@@@@@@+++@@@*=*%%+++%*O -@@@@*%@@@@@@@+++@@%*=%%%@+O%%O ",
"-%+%%%@@@@@@@+++@@%%=%%%@+O%*@O -*@%%@+@@@@@@+++@@@*=%*%@++@%%O ",
"-%%O O@@@@@@+++@+%*=%%%@+O O@@O -*%O.O@@@@@@+++@@%%=%*%@+O.O@@O ",
"-%% O@%@@@@+++@@%%=%%%@++.O+*+O.-%% O@*@@@@+++@@%%=%*@++O.O@%@O ",
"-%%O@*-@@@+++@@%*=%%%+++%O@%-@O -%%O+%-@@@+++@+%*=*%%@+O@O@*-@O.",
"-*++*-+@@+++@@@%=%%%@+O%*+*-@@O -%@+*-+@@+++@@%%=%%%@++%*@*-+@O ",
"-*@@@@@@+++@+%*=*%%@++%*@@@@@@O -%@@@@@@+++@@@*=%%%+++@*%@@@@@O ",
"-%@@@@@+++@@%%=*%%+++%%@@@@@@@O -*@@@@@+++@@%*=*%%@++%*%+@@@@+O ",
"-*+@@@+++@+%%=%%%+++%%%@@@@@@+O -*@@@@+++@@@%=%%%@++@*%@@@@@@+O ",
"-%++OO++@@%%=*%%@++%%%++@@@@+OO -%+O++++@@%%=*%%+++%%%+@@@@@++O ",
"-+OOOOOOOOOOOOOOOOOOOOOOOOOOOOX.-+OOOOOOOOOOOOOOOOOOOOOOOOOOOOX.",
"@OX.     .                 . ..o@OX    .                      .X"
};