/* XPM */
static char *_20293ab49cc4ee7c3f2d03e42fff862jxQFbVjIddqSn43R[] = {
/* columns rows colors chars-per-pixel */
"64 64 76 1 ",
"  c #191919",
". c gray10",
"X c #1B1B1B",
"o c gray11",
"O c #1D1D1D",
"+ c #1E1E1E",
"@ c gray12",
"# c #202020",
"$ c gray13",
"% c #222222",
"& c #232323",
"* c gray14",
"= c #252525",
"- c gray15",
"; c #272727",
": c #282828",
"> c gray16",
", c #2A2A2A",
"< c gray17",
"1 c #2C2C2C",
"2 c #2D2D2D",
"3 c gray18",
"4 c #2F2F2F",
"5 c gray19",
"6 c #313131",
"7 c #323232",
"8 c gray20",
"9 c #343434",
"0 c #353535",
"q c gray21",
"w c #373737",
"e c gray22",
"r c #393939",
"t c #3A3A3A",
"y c gray23",
"u c #3C3C3C",
"i c gray24",
"p c #3E3E3E",
"a c #3F3F3F",
"s c gray25",
"d c #414141",
"f c gray26",
"g c #434343",
"h c #444444",
"j c gray27",
"k c #464646",
"l c gray28",
"z c #484848",
"x c #494949",
"c c gray29",
"v c #4B4B4B",
"b c #4C4C4C",
"n c gray30",
"m c #4E4E4E",
"M c gray31",
"N c #505050",
"B c #515151",
"V c gray32",
"C c #535353",
"Z c gray33",
"A c #555555",
"S c #565656",
"D c gray34",
"F c #585858",
"G c gray35",
"H c #5A5A5A",
"J c #5B5B5B",
"K c gray36",
"L c #5D5D5D",
"P c gray37",
"I c #5F5F5F",
"U c #606060",
"Y c gray38",
"T c gray39",
"R c #646464",
"E c gray40",
/* pixels */
"CMMd*5ww:454:dMJc4:::5waw******4...***.@#wallcccMMMMYICl#.@@::*c",
"CSdlaaa5::44::aada44rrda#*#4::**: ***@.@#5rldacMMMMCMIca@@.4#aMC",
"Sdlaaaaa#:4r:4*:ar4clcc*##4**@**#*****@@*5wadccMMcCMJlc*@@#:dMJC",
"dllalld@@:ra5:::accdlcc#****:#***#@***#.54waadMSSSCJcl:4@#:dMSIC",
"lldrr#:@@wwr5ad55alclcd****:**@##@.@**#@44aaadJSISScdw*#@:4wSJJc",
"ldwr**@#www4ldcr55rlcl*****:*:#@@.@#**..*daaadIISIll:##*4:dcJJSl",
"a5w**@@##wwlddlrr55rra*:54:4w*@.@@@#**@@#ld5ddMMJll4*#**#5lSCCMl",
"4*#*@@@@**rMMdlwwr5rr#*:r445*##@#*44:*@#aldwaaCldl***#w5545SMC55",
"###*@.@##*lcaMllww4w**#*4445*@.@5554:*##dlcclcddd:4*#wMSr4ldcrw#",
"###*..@#*dcMadldlrw#*#@*44w5@@@wc554#*@aaMMdMaa*::**wcCCM*#lw#:#",
"@#:#*##**dcwdddllw**#@#444w4@@#cll5r*@#rdCM4da::**55cSJJ5:###**.",
"@#dw:###dadrrwrr***##@:5rw:4##@dllar:@@4dMa*:***#waccJCCCd#@#*#*",
"#dMa*##4aa5rrww:::*#@*45dcw::#@dllar:@@:llr*#**4aMSSCaCCJl@@@*#*",
":CMr4****:44r45*::#@@:5wdclrr*#rldr4:.#*wd4###:5cSSScaCCJS4@@.@*",
"4MCw5#*#:4::::***###@44wdcllr#@@d4r4#.*54:*##*45CSSMcccCJS5*..@@",
"4MCd4*##:**:*:*::#*#4:55alMdd:@.*45:@@::*:###**5rScMccclIMd*@.@*",
"5lMl5####::*****##*444#walcldd@.@55@@#:**45##:*4:dccccccScd:*.@.",
"wdcM5*#@***:****#*#4445lMMccld@@@5**@****Ma##**::wclllclSMd:*@@@",
"llccw:#**:**:#*##*4:445cCMMcdd@@.###:***4Cc#***:::dcclccCda:#@**",
"dlCcM5#*4:4**4:4*::44@:dCMMccl4.@@#:4r*4wIJM*:***:wacrcccda:*#:w",
"MlCCJ5**44rdl5:*#4*44@#alCMlMdl*@##4:r*::dSCc**:::4dd5rrldl**#5w",
"MMSYM44*44wrw:4:::55*##4lSSMMdl***#:ww*:::lCJr*::*:5aww5ldd***5a",
"alMISa:*@#5d44:::www::#4acSMCdl5*4*44w#aaralCc#*:::4544dld***@wa",
"rSJISc4#44aaMddllllw54.#rMSCMcc:**4*4:rraalrCwrwraarr544l#**@:4w",
"IYRJc4:4:5wIJJSJSSJSaw::5lSCClc***4##:rra4Cdraadccrwrww4::::#44l",
"JJJr:44rd5MCSMldddcYIa:**cSSSMl@*:4:**:rarllllldMccccww55::444wl",
"l554wwwdaacMacaaaacMRRd**:lSSM*@*:w:#:@*arCCClllcccllld5::4455@#",
"*4:4*4arrldaccaaalCMRYM5*:5SS**@#wrw:#@#*raMClllcclcllw:4444a@.@",
":*:*:*rrrdadMcdacMMMCJJ5**5Sa#*.@4cda##@:4aMICddlMlcld:44dd*.@@@",
":#@***#r4aldlddcMMMCCJJa4*45**#@#dMMd5#@:::aCJCdlllll444ad**@.@.",
"*#@**##:alddlcMcMMMMMYYJ5**#:*#@4MMMd4:#:44:cIJMldll54:aaa**@@@.",
".@4#*#*:wdllcccMCMCMJYRY:#@####4wMMMwr:d4:4::aJMCl5:5:rad#*#..@@",
"@:4:*#*:waaclccMMMMMYICl#..@::#cCMMd*w5w4:54:aMJc4:::5waa***@@@.",
".#444#*:5rrddacMcMMCMIca@@@4#aCCCSdlaaa5:454::dada45rwdd**#@@@.@",
"##rww**:wraadcccMcSMScc*#@*:dCJCSdldadaa#::a:4*:aa5ldMM****@@@:@",
"::r5w4**:wraadMJSSCIcd4:@#:dMSJCdclrlld@#:raw:*:rclllcc***.@@::*",
"#*@5d4#**5wardJSISScdw##.:5rCJJClldrw*:#@wwr4ad45rcldMl#*#.@*::*",
"@@@wwa*##45aalYYSIll4##*4*dcJSSdldwr#*@#ww55ddcr55rlcd*** @:::::",
"@@@wrr4##4r5ddMCJll:*@*#*4lSCCcla5r##.@**wwldldrr55rrd***@:44::@",
".@@*rr@##*45drMldl**:#ww545SMMww4*#*@@@@**wMMdlwrr5rr***@:45*::*",
"@...**###raclcddd*:**wMCr:ldcww####*@.@@@*lMaMdlww5w*##@*45454**",
"@@@ @*###rraMad:::*#wcCSM:#lr#*##@#*.@.@*alMadallrr**@@**5454***",
"@.@ .####ar:aa::**wwcMMC5:#*#*#@@#*#*##**dc5llccMMdr:**:555::***",
"@@@ r.4*::*****:5rdcldacMl#.@#**@#dw4##*dddadcCMSSl554rww54**:*:",
"@@5McCa*::4:*5alMMSllwrMJd@.@*#*#dMr:#@:aa5alcMCSM5w45ardlw::*#4",
":wa5arw45a::adMCSJSSldwcJS4@@@##*CCr4***:*wacCCCd5w:arMadclwr*@r",
"d4a4*@*55:::lMMSSJSCMlrlJS4:...#5MMw5#**::5dCCMc4w*aaMaracllr#@@",
"*45:.#::*::lMSCJSSCMMCdrICd*@.@*5CCd4*##:::aMCd5:*:#acraacMdl:@.",
"#44.@@***4MMScCSSCMMMMMaMca:*.@@5dMl5#@@#:*4Mrr4###4rcraacMdld@@",
"@5*###***MMMlllSCaaCMllacMd:*..#5lcM5*#@*:*:dw4::*::alMCMMccdd@@",
"@#*#::**:CCdllcdrrwaalaacdd:*@**llccr:#*::*:4::*5#w5wrCMCMccdd@@",
"@@*:4r::rIIalacwrwlaaldraad:*@4wllCMc4**4:4**:*:cCr5*4:dCMMcMl:.",
"@@*4:r*::aSCCcr5wraaarddaad**#55MlCCJ5*:45rld::dMCcr444llCMcMdl*",
":##:ww*:::daraa:455w5wcddrd***5acMSYM5:*445w5rMMMMJa4*45lSSMMdl*",
"*5*44r*rdaarrMcadddMccwwdr:**#waacMISa::##wd5lSSdMJld:45rcSMCdl5",
"*:4#::waaalMcSCCcMcMddrwrw4##:4rwSJISc4#4:aaMMSdcMJYd:*wacSCMcc:",
"**4**:war4SSclllccarrrw445:#@4:cIYYSc5:445wISCraacSYc5*:5lSCMcc*",
":*::*#:rarlSclldMcclcrw54:#@.4cJIIJa:4:ad5CJJMaaaacYYd:*#lSSSMl#",
"*4w:**.*rrCSClldccclcld5:*. .llMCr54aaMMl5MSCMaaaacCRRa#*:cSSM*#",
"@wa5:*.@*aaMSlllccclll544* ..alC54:dCYJJw5dcMMaaacMCRYM5*:wSS**@",
"@:Mda##@*4aCICddlMlllc:4::@...4*:rdSYJJMa5dcMcdalMCMMJJ5**4Jr**@",
"#dMMd4*@4:*aCJMllllll5:4a#.@.@@*raCJClldl4dlcldlMMMMCJJa4*:4:*#@",
":MMMd4*#:44*MIJMlllc44:da#..@@@wwd5d5rddd4adlcccCMCMCYYJ5**#**@@",
"rMMMrr:a4:4::aJMMl5:4*wdr@@@@#@ww55.@.....wrdccMMMMCJRRY:#@#*@@:"
};