/* XPM */
static char *_41b1af496824c28adeffc563baceab8z2hYf4gDrkvO91uQ[] = {
/* columns rows colors chars-per-pixel */
"64 64 3 1 ",
"  c #000008",
". c #5F1700",
"X c #872F00",
/* pixels */
"XXXXXXX.       .XXXXXXX.       .XXXXXXX.       .XXXXXXX.       .",
"XXXXXX.       .XXXXXXX.       .XXXXXXX.       .XXXXXXX.       .X",
"XXXXX.       .XXXXXXX.       .XXXXXXX.       .XXXXXXX.       .XX",
"XXXX.       .XXXXXXX.       .XXXXXXX.       .XXXXXXX.       .XXX",
"XXX.       .XXXXXXX.       .XXXXXXX.       .XXXXXXX.       .XXXX",
"XX.       .XXXXXXX.       .XXXXXXX.       .XXXXXXX.       .XXXXX",
"X.       .XXXXXXX.       .XXXXXXX.       .XXXXXXX.       .XXXXXX",
".       .XXXXXXX.       .XXXXXXX.       .XXXXXXX.       .XXXXXXX",
"       .XXXXXXX.       .XXXXXXX.       .XXXXXXX.       .XXXXXXX.",
"      .XXXXXXX.       .XXXXXXX.       .XXXXXXX.       .XXXXXXX. ",
"     .XXXXXXX.       .XXXXXXX.       .XXXXXXX.       .XXXXXXX.  ",
"    .XXXXXXX.       .XXXXXXX.       .XXXXXXX.       .XXXXXXX.   ",
"   .XXXXXXX.       .XXXXXXX.       .XXXXXXX.       .XXXXXXX.    ",
"  .XXXXXXX.       .XXXXXXX.       .XXXXXXX.       .XXXXXXX.     ",
" .XXXXXXX.       .XXXXXXX.       .XXXXXXX.       .XXXXXXX.      ",
".XXXXXXX.       .XXXXXXX.       .XXXXXXX.       .XXXXXXX.       ",
"XXXXXXX.       .XXXXXXX.       .XXXXXXX.       .XXXXXXX.       .",
"XXXXXX.       .XXXXXXX.       .XXXXXXX.       .XXXXXXX.       .X",
"XXXXX.       .XXXXXXX.       .XXXXXXX.       .XXXXXXX.       .XX",
"XXXX.       .XXXXXXX.       .XXXXXXX.       .XXXXXXX.       .XXX",
"XXX.       .XXXXXXX.       .XXXXXXX.       .XXXXXXX.       .XXXX",
"XX.       .XXXXXXX.       .XXXXXXX.       .XXXXXXX.       .XXXXX",
"X.       .XXXXXXX.       .XXXXXXX.       .XXXXXXX.       .XXXXXX",
".       .XXXXXXX.       .XXXXXXX.       .XXXXXXX.       .XXXXXXX",
"       .XXXXXXX.       .XXXXXXX.       .XXXXXXX.       .XXXXXXX.",
"      .XXXXXXX.       .XXXXXXX.       .XXXXXXX.       .XXXXXXX. ",
"     .XXXXXXX.       .XXXXXXX.       .XXXXXXX.       .XXXXXXX.  ",
"    .XXXXXXX.       .XXXXXXX.       .XXXXXXX.       .XXXXXXX.   ",
"   .XXXXXXX.       .XXXXXXX.       .XXXXXXX.       .XXXXXXX.    ",
"  .XXXXXXX.       .XXXXXXX.       .XXXXXXX.       .XXXXXXX.     ",
" .XXXXXXX.       .XXXXXXX.       .XXXXXXX.       .XXXXXXX.      ",
".XXXXXXX.       .XXXXXXX.       .XXXXXXX.       .XXXXXXX.       ",
"XXXXXXX.       .XXXXXXX.       .XXXXXXX.       .XXXXXXX.       .",
"XXXXXX.       .XXXXXXX.       .XXXXXXX.       .XXXXXXX.       .X",
"XXXXX.       .XXXXXXX.       .XXXXXXX.       .XXXXXXX.       .XX",
"XXXX.       .XXXXXXX.       .XXXXXXX.       .XXXXXXX.       .XXX",
"XXX.       .XXXXXXX.       .XXXXXXX.       .XXXXXXX.       .XXXX",
"XX.       .XXXXXXX.       .XXXXXXX.       .XXXXXXX.       .XXXXX",
"X.       .XXXXXXX.       .XXXXXXX.       .XXXXXXX.       .XXXXXX",
".       .XXXXXXX.       .XXXXXXX.       .XXXXXXX.       .XXXXXXX",
"       .XXXXXXX.       .XXXXXXX.       .XXXXXXX.       .XXXXXXX.",
"      .XXXXXXX.       .XXXXXXX.       .XXXXXXX.       .XXXXXXX. ",
"     .XXXXXXX.       .XXXXXXX.       .XXXXXXX.       .XXXXXXX.  ",
"    .XXXXXXX.       .XXXXXXX.       .XXXXXXX.       .XXXXXXX.   ",
"   .XXXXXXX.       .XXXXXXX.       .XXXXXXX.       .XXXXXXX.    ",
"  .XXXXXXX.       .XXXXXXX.       .XXXXXXX.       .XXXXXXX.     ",
" .XXXXXXX.       .XXXXXXX.       .XXXXXXX.       .XXXXXXX.      ",
".XXXXXXX.       .XXXXXXX.       .XXXXXXX.       .XXXXXXX.       ",
"XXXXXXX.       .XXXXXXX.       .XXXXXXX.       .XXXXXXX.       .",
"XXXXXX.       .XXXXXXX.       .XXXXXXX.       .XXXXXXX.       .X",
"XXXXX.       .XXXXXXX.       .XXXXXXX.       .XXXXXXX.       .XX",
"XXXX.       .XXXXXXX.       .XXXXXXX.       .XXXXXXX.       .XXX",
"XXX.       .XXXXXXX.       .XXXXXXX.       .XXXXXXX.       .XXXX",
"XX.       .XXXXXXX.       .XXXXXXX.       .XXXXXXX.       .XXXXX",
"X.       .XXXXXXX.       .XXXXXXX.       .XXXXXXX.       .XXXXXX",
".       .XXXXXXX.       .XXXXXXX.       .XXXXXXX.       .XXXXXXX",
"       .XXXXXXX.       .XXXXXXX.       .XXXXXXX.       .XXXXXXX.",
"      .XXXXXXX.       .XXXXXXX.       .XXXXXXX.       .XXXXXXX. ",
"     .XXXXXXX.       .XXXXXXX.       .XXXXXXX.       .XXXXXXX.  ",
"    .XXXXXXX.       .XXXXXXX.       .XXXXXXX.       .XXXXXXX.   ",
"   .XXXXXXX.       .XXXXXXX.       .XXXXXXX.       .XXXXXXX.    ",
"  .XXXXXXX.       .XXXXXXX.       .XXXXXXX.       .XXXXXXX.     ",
" .XXXXXXX.       .XXXXXXX.       .XXXXXXX.       .XXXXXXX.      ",
".XXXXXXX.       .XXXXXXX.       .XXXXXXX.       .XXXXXXX.       "
};